<?xml version="1.0" encoding="UTF-8" standalone="no"?><!DOCTYPE svg PUBLIC "-//W3C//DTD SVG 1.1//EN" "http://www.w3.org/Graphics/SVG/1.1/DTD/svg11.dtd"><svg width="973px" height="411px" version="1.1" xmlns="http://www.w3.org/2000/svg" xmlns:xlink="http://www.w3.org/1999/xlink" xml:space="preserve" xmlns:serif="http://www.serif.com/" style="fill-rule:evenodd;clip-rule:evenodd;"><g id="Layer-1" serif:id="Layer 1"><g id="text6007"></g><g id="text60071" serif:id="text6007"></g><g id="text60072" serif:id="text6007"></g><g id="text60073" serif:id="text6007"></g><g id="text60074" serif:id="text6007"></g><g id="text7018"></g><g id="text70181" serif:id="text7018"></g><g id="text70182" serif:id="text7018"></g><g id="text70183" serif:id="text7018"></g><g id="text70184" serif:id="text7018"></g><g id="text4795"></g><g id="text47951" serif:id="text4795"></g><g id="text47952" serif:id="text4795"></g><g id="text47953" serif:id="text4795"></g><g id="text47954" serif:id="text4795"></g><g id="text47955" serif:id="text4795"></g><g id="text47956" serif:id="text4795"></g><g id="text47957" serif:id="text4795"></g><g id="text47958" serif:id="text4795"></g><g id="text47959" serif:id="text4795"></g><g id="text479510" serif:id="text4795"></g><g id="text479511" serif:id="text4795"></g><g id="text479512" serif:id="text4795"></g><g id="text479513" serif:id="text4795"></g><g id="text479514" serif:id="text4795"></g><g id="text479515" serif:id="text4795"></g><g id="text479516" serif:id="text4795"></g><g id="text479517" serif:id="text4795"></g><g id="text479518" serif:id="text4795"></g><g id="text479519" serif:id="text4795"></g><g id="text1254"></g><g id="text1620"></g><g id="text4795-1"></g><g id="text4795-11" serif:id="text4795-1"></g><g id="text4795-12" serif:id="text4795-1"></g><g id="text4795-13" serif:id="text4795-1"></g><g id="text7022-9"></g><g id="text7022-91" serif:id="text7022-9"></g><g id="text7022-92" serif:id="text7022-9"></g><g id="text7022-93" serif:id="text7022-9"></g><g id="text8102"></g><g id="text81021" serif:id="text8102"></g><g id="text81022" serif:id="text8102"></g><g id="text81023" serif:id="text8102"></g><g id="text70185" serif:id="text7018"></g><g id="text70186" serif:id="text7018"></g><g id="text70187" serif:id="text7018"></g><g id="text70188" serif:id="text7018"></g><g id="text70189" serif:id="text7018"></g><g id="text7018-0-4-7-2-6"></g><g id="text7018-0-4-7-2-61" serif:id="text7018-0-4-7-2-6"></g><g id="text7018-0-4-7-2-62" serif:id="text7018-0-4-7-2-6"></g><g id="text7018-0-4-7-2-63" serif:id="text7018-0-4-7-2-6"></g><g id="text4795-14" serif:id="text4795-1"></g><g id="text7022-94" serif:id="text7022-9"></g><g id="text81024" serif:id="text8102"></g><g id="text7018-0-4-7-2-64" serif:id="text7018-0-4-7-2-6"></g><g id="text4795-15" serif:id="text4795-1"></g><g id="text4795-16" serif:id="text4795-1"></g><g id="text7022-95" serif:id="text7022-9"></g><g id="text7022-96" serif:id="text7022-9"></g><g id="text81025" serif:id="text8102"></g><g id="text81026" serif:id="text8102"></g><g id="text7018-0-4-7-2-65" serif:id="text7018-0-4-7-2-6"></g><g id="text7018-0-4-7-2-66" serif:id="text7018-0-4-7-2-6"></g><g><g id="text4795-17" serif:id="text4795-1"></g><g id="text7022-97" serif:id="text7022-9"></g><g id="text81027" serif:id="text8102"></g><g id="text7018-0-4-7-2-67" serif:id="text7018-0-4-7-2-6"></g></g><g id="text4795-18" serif:id="text4795-1"></g><g id="text4795-19" serif:id="text4795-1"></g><g id="text4795-110" serif:id="text4795-1"></g><g id="text7022-98" serif:id="text7022-9"></g><g id="text7022-99" serif:id="text7022-9"></g><g id="text7022-910" serif:id="text7022-9"></g><g id="text81028" serif:id="text8102"></g><g id="text81029" serif:id="text8102"></g><g id="text810210" serif:id="text8102"></g><g id="text7018-0-4-7-2-68" serif:id="text7018-0-4-7-2-6"></g><g id="text7018-0-4-7-2-69" serif:id="text7018-0-4-7-2-6"></g><g id="text7018-0-4-7-2-610" serif:id="text7018-0-4-7-2-6"></g><g id="text4795-111" serif:id="text4795-1"></g><g id="text4795-112" serif:id="text4795-1"></g><g id="text4795-113" serif:id="text4795-1"><text x="650.952px" y="21px" style="font-family:'Delicious-Heavy', 'Delicious Heavy';font-weight:500;font-size:22.5px;">Object.pr<tspan x="731.187px " y="21px ">o</tspan>totype</text></g><g id="text4795-114" serif:id="text4795-1"></g><g id="text7022-911" serif:id="text7022-9"></g><g id="text810211" serif:id="text8102"></g><g id="text7018-0-4-7-2-611" serif:id="text7018-0-4-7-2-6"></g><g id="text4795-115" serif:id="text4795-1"></g><g id="text7022-912" serif:id="text7022-9"></g><g id="text810212" serif:id="text8102"></g><g id="text7018-0-4-7-2-612" serif:id="text7018-0-4-7-2-6"></g><g id="text4795-116" serif:id="text4795-1"></g><g id="text7022-913" serif:id="text7022-9"></g><g id="text810213" serif:id="text8102"></g><g id="text7018-0-4-7-2-613" serif:id="text7018-0-4-7-2-6"></g><g><g id="text479520" serif:id="text4795"></g><g id="text701810" serif:id="text7018"></g></g><rect id="rect6003-9" x="43.812" y="74.323" width="123.595" height="49.86" style="fill:#e6e6e6;stroke:#000;stroke-width:3px;"/><rect id="rect6003-91" serif:id="rect6003-9" x="21.361" y="333.973" width="123.595" height="49.86" style="fill:#e6e6e6;stroke:#000;stroke-width:3px;"/><g id="text479521" serif:id="text4795"></g><g id="text479522" serif:id="text4795"></g><g id="text479523" serif:id="text4795"></g><g id="text479524" serif:id="text4795"></g><g id="text479525" serif:id="text4795"></g><g id="text479526" serif:id="text4795"></g><g id="text479527" serif:id="text4795"></g><g id="text479528" serif:id="text4795"></g><g id="text479529" serif:id="text4795"></g><g id="text479530" serif:id="text4795"></g><g id="text479531" serif:id="text4795"><text x="88.433px" y="62.058px" style="font-family:'Delicious-Heavy', 'Delicious Heavy';font-weight:500;font-size:22.5px;">obj</text></g><g id="text479532" serif:id="text4795"><text x="65.982px" y="321.708px" style="font-family:'Delicious-Heavy', 'Delicious Heavy';font-weight:500;font-size:22.5px;">obj2</text></g><g id="text479533" serif:id="text4795"></g><g id="text479534" serif:id="text4795"></g><g id="text701811" serif:id="text7018"></g><g id="text701812" serif:id="text7018"></g><g id="text701813" serif:id="text7018"></g><g id="text701814" serif:id="text7018"></g><g id="text701815" serif:id="text7018"></g><g id="text701816" serif:id="text7018"></g><g id="text701817" serif:id="text7018"></g><g id="text701818" serif:id="text7018"></g><g id="text701819" serif:id="text7018"></g><g id="text701820" serif:id="text7018"><text x="50.885px" y="107.287px" style="font-family:'Delicious-Heavy', 'Delicious Heavy';font-weight:500;font-size:22.5px;fill:#808080;">[[Pr<tspan x="80.112px " y="107.287px ">o</tspan>totype]]</text></g><g id="text701821" serif:id="text7018"><text x="28.434px" y="366.937px" style="font-family:'Delicious-Heavy', 'Delicious Heavy';font-weight:500;font-size:22.5px;fill:#808080;">[[Pr<tspan x="57.661px " y="366.937px ">o</tspan>totype]]</text></g><g id="text701822" serif:id="text7018"></g><g id="text701823" serif:id="text7018"></g><rect id="rect6003-92" serif:id="rect6003-9" x="291.461" y="198.486" width="123.595" height="64.95" style="fill:#e6e6e6;stroke:#000;stroke-width:3px;"/><rect id="rect6003-93" serif:id="rect6003-9" x="201.169" y="327.213" width="123.595" height="64.95" style="fill:#e6e6e6;stroke:#000;stroke-width:3px;"/><g id="text479535" serif:id="text4795"></g><g id="text479536" serif:id="text4795"></g><g id="text479537" serif:id="text4795"></g><g id="text479538" serif:id="text4795"></g><g id="text479539" serif:id="text4795"></g><g id="text479540" serif:id="text4795"></g><g id="text479541" serif:id="text4795"></g><g id="text479542" serif:id="text4795"></g><g id="text479543" serif:id="text4795"></g><g id="text479544" serif:id="text4795"></g><g id="text479545" serif:id="text4795"><text x="334.035px" y="188.785px" style="font-family:'Delicious-Heavy', 'Delicious Heavy';font-weight:500;font-size:22.5px;">foo()</text></g><g id="text479546" serif:id="text4795"></g><g id="text479547" serif:id="text4795"></g><g id="text479548" serif:id="text4795"></g><g id="text479549" serif:id="text4795"></g><g id="text701824" serif:id="text7018"></g><g id="text701825" serif:id="text7018"></g><g id="text701826" serif:id="text7018"></g><g id="text701827" serif:id="text7018"></g><g id="text701828" serif:id="text7018"></g><g id="text701829" serif:id="text7018"></g><g id="text701830" serif:id="text7018"></g><g id="text701831" serif:id="text7018"></g><g id="text701832" serif:id="text7018"><text x="298.533px" y="246.54px" style="font-family:'Delicious-Heavy', 'Delicious Heavy';font-weight:500;font-size:22.5px;fill:#808080;">[[Pr<tspan x="327.761px " y="246.54px ">o</tspan>totype]]</text></g><g id="text701833" serif:id="text7018"></g><g id="text701834" serif:id="text7018"></g><g id="text701835" serif:id="text7018"></g><g id="text701836" serif:id="text7018"></g><g id="text479550" serif:id="text4795"></g><g id="text701837" serif:id="text7018"></g><g id="text479551" serif:id="text4795"></g><text x="208.85px" y="349.373px" style="font-family:'Delicious-Heavy', 'Delicious Heavy';font-weight:500;font-size:22.5px;">x:</text><text x="226.648px" y="347.818px" style="font-family:'Delicious-Bold', 'Delicious';font-weight:700;font-size:22.5px;fill:#000080;">42</text><g id="text701838" serif:id="text7018"></g><g id="text4795-1-6"></g><g id="text7022-9-2"></g><g id="text7018-0-4-7-6"></g><g id="text8102-5"></g><g id="text7022-9-2-6"></g><g id="text4795-1-61" serif:id="text4795-1-6"></g><g id="text4795-1-62" serif:id="text4795-1-6"></g><g id="text7022-9-21" serif:id="text7022-9-2"></g><g id="text7022-9-22" serif:id="text7022-9-2"></g><g id="text7018-0-4-7-61" serif:id="text7018-0-4-7-6"></g><g id="text7018-0-4-7-62" serif:id="text7018-0-4-7-6"></g><g id="text8102-51" serif:id="text8102-5"></g><g id="text8102-52" serif:id="text8102-5"></g><g id="text7022-9-2-61" serif:id="text7022-9-2-6"></g><g id="text7022-9-2-62" serif:id="text7022-9-2-6"></g><g id="text4795-1-63" serif:id="text4795-1-6"></g><g id="text7022-9-23" serif:id="text7022-9-2"></g><g id="text7018-0-4-7-63" serif:id="text7018-0-4-7-6"></g><g id="text8102-53" serif:id="text8102-5"></g><g id="text7022-9-2-63" serif:id="text7022-9-2-6"></g><g id="text4795-1-64" serif:id="text4795-1-6"></g><g id="text4795-1-65" serif:id="text4795-1-6"></g><g id="text4795-1-66" serif:id="text4795-1-6"></g><g id="text7022-9-24" serif:id="text7022-9-2"></g><g id="text7022-9-25" serif:id="text7022-9-2"></g><g id="text7022-9-26" serif:id="text7022-9-2"></g><g id="text7018-0-4-7-64" serif:id="text7018-0-4-7-6"></g><g id="text7018-0-4-7-65" serif:id="text7018-0-4-7-6"></g><g id="text7018-0-4-7-66" serif:id="text7018-0-4-7-6"></g><g id="text8102-54" serif:id="text8102-5"></g><g id="text8102-55" serif:id="text8102-5"></g><g id="text8102-56" serif:id="text8102-5"></g><g id="text7022-9-2-64" serif:id="text7022-9-2-6"></g><g id="text7022-9-2-65" serif:id="text7022-9-2-6"></g><g id="text7022-9-2-66" serif:id="text7022-9-2-6"></g><g id="text4795-1-67" serif:id="text4795-1-6"></g><g id="text7022-9-27" serif:id="text7022-9-2"></g><g id="text7018-0-4-7-67" serif:id="text7018-0-4-7-6"></g><g id="text8102-57" serif:id="text8102-5"></g><g id="text7022-9-2-67" serif:id="text7022-9-2-6"></g><g id="text4795-1-68" serif:id="text4795-1-6"></g><g id="text7022-9-28" serif:id="text7022-9-2"></g><g id="text7018-0-4-7-68" serif:id="text7018-0-4-7-6"></g><g id="text8102-58" serif:id="text8102-5"></g><g id="text7022-9-2-68" serif:id="text7022-9-2-6"></g><g id="text479552" serif:id="text4795"></g><g id="text479553" serif:id="text4795"></g><g id="text701839" serif:id="text7018"></g><g id="text701840" serif:id="text7018"></g><g id="text7022-1-0-9"></g><g id="text7022-1-0-91" serif:id="text7022-1-0-9"></g><g id="text7022-1-0-92" serif:id="text7022-1-0-9"></g><g id="text7022-1-0-93" serif:id="text7022-1-0-9"></g><g id="text7022-1-0-94" serif:id="text7022-1-0-9"></g><g id="text7022-1-0-95" serif:id="text7022-1-0-9"></g><g id="text7022-1-0-96" serif:id="text7022-1-0-9"></g><g id="text7022-1-0-97" serif:id="text7022-1-0-9"></g><g id="text7022-1-0-98" serif:id="text7022-1-0-9"><text x="298.661px" y="221.124px" style="font-family:'Delicious-Heavy', 'Delicious Heavy';font-weight:500;font-size:22.5px;">pr<tspan x="317.336px " y="221.124px ">o</tspan>totype</text></g><g id="text7022-1-0-99" serif:id="text7022-1-0-9"></g><g id="text7022-1-0-910" serif:id="text7022-1-0-9"></g><g id="text7022-1-0-911" serif:id="text7022-1-0-9"></g><g id="text7022-1-0-912" serif:id="text7022-1-0-9"></g><rect id="rect6003-3-1" x="223.834" y="63.501" width="123.595" height="61.696" style="fill:#ffe6d5;stroke:#d45500;stroke-width:3px;"/><g id="text6007-6-1"></g><g id="text6007-6-11" serif:id="text6007-6-1"></g><g id="text6007-6-12" serif:id="text6007-6-1"></g><g id="text6007-6-13" serif:id="text6007-6-1"></g><g id="text6007-6-14" serif:id="text6007-6-1"></g><g id="text6007-6-15" serif:id="text6007-6-1"></g><g id="text6007-6-16" serif:id="text6007-6-1"></g><g id="text6007-6-17" serif:id="text6007-6-1"></g><g id="text6007-6-18" serif:id="text6007-6-1"></g><g id="text6007-6-19" serif:id="text6007-6-1"><text x="203.667px" y="319.332px" style="font-family:'Delicious-Heavy', 'Delicious Heavy';font-weight:500;font-size:22.5px;">foo.pr<tspan x="256.542px " y="319.332px ">o</tspan>totype</text></g><g id="text6007-6-110" serif:id="text6007-6-1"></g><g id="text6007-6-111" serif:id="text6007-6-1"></g><g id="text6007-6-112" serif:id="text6007-6-1"></g><g id="text6007-6-113" serif:id="text6007-6-1"></g><g id="text7018-0-9"></g><g id="text7018-0-91" serif:id="text7018-0-9"></g><g id="text7018-0-92" serif:id="text7018-0-9"></g><g id="text7018-0-93" serif:id="text7018-0-9"></g><g id="text7018-0-94" serif:id="text7018-0-9"></g><g id="text7018-0-95" serif:id="text7018-0-9"></g><g id="text7018-0-96" serif:id="text7018-0-9"></g><g id="text7018-0-97" serif:id="text7018-0-9"></g><g id="text7018-0-98" serif:id="text7018-0-9"><text x="229.078px" y="109.631px" style="font-family:'Delicious-Heavy', 'Delicious Heavy';font-weight:500;font-size:22.5px;fill:#808080;">[[Pr<tspan x="258.306px " y="109.631px ">o</tspan>totype]]</text></g><g id="text7018-0-99" serif:id="text7018-0-9"><text x="207.725px" y="376.236px" style="font-family:'Delicious-Heavy', 'Delicious Heavy';font-weight:500;font-size:22.5px;fill:#808080;">[[Pr<tspan x="236.953px " y="376.236px ">o</tspan>totype]]</text></g><g id="text7018-0-910" serif:id="text7018-0-9"></g><g id="text7018-0-911" serif:id="text7018-0-9"></g><g id="text7018-0-912" serif:id="text7018-0-9"></g><g id="text7018-0-913" serif:id="text7018-0-9"></g><g id="text7018-0-914" serif:id="text7018-0-9"></g><g id="text7018-0-915" serif:id="text7018-0-9"></g><g id="text6007-6-1-6"></g><g id="text6007-6-1-61" serif:id="text6007-6-1-6"></g><g id="text6007-6-1-62" serif:id="text6007-6-1-6"></g><g id="text6007-6-1-63" serif:id="text6007-6-1-6"></g><g id="text6007-6-1-64" serif:id="text6007-6-1-6"></g><g id="text6007-6-1-65" serif:id="text6007-6-1-6"></g><g id="text6007-6-1-66" serif:id="text6007-6-1-6"></g><g id="text6007-6-1-67" serif:id="text6007-6-1-6"><text x="229.213px" y="85.144px" style="font-family:'Delicious-Heavy', 'Delicious Heavy';font-weight:500;font-size:22.5px;fill:#d45500;">constructor</text></g><g id="text6007-6-1-68" serif:id="text6007-6-1-6"></g><g id="text6007-6-1-69" serif:id="text6007-6-1-6"></g><g id="text6007-6-1-610" serif:id="text6007-6-1-6"></g><g id="text6007-6-1-611" serif:id="text6007-6-1-6"></g><g id="text6007-6-1-612" serif:id="text6007-6-1-6"></g><g id="text6007-6-1-613" serif:id="text6007-6-1-6"></g><g id="text7022-1-0-913" serif:id="text7022-1-0-9"></g><g id="text7022-1-0-914" serif:id="text7022-1-0-9"></g><g id="text6007-6-114" serif:id="text6007-6-1"></g><g id="text6007-6-115" serif:id="text6007-6-1"></g><g id="text7018-0-916" serif:id="text7018-0-9"></g><g id="text7018-0-917" serif:id="text7018-0-9"></g><g id="text6007-6-1-614" serif:id="text6007-6-1-6"></g><g id="text6007-6-1-615" serif:id="text6007-6-1-6"></g><g id="text701841" serif:id="text7018"></g><g id="text7022-1-0-915" serif:id="text7022-1-0-9"></g><g id="text7018-0-918" serif:id="text7018-0-9"></g><g id="text6007-6-1-616" serif:id="text6007-6-1-6"></g><g id="text701842" serif:id="text7018"></g><g id="text7022-1-0-916" serif:id="text7022-1-0-9"></g><g id="text7018-0-919" serif:id="text7018-0-9"></g><g id="text6007-6-1-617" serif:id="text6007-6-1-6"></g><g id="text701843" serif:id="text7018"></g><g id="text701844" serif:id="text7018"></g><g id="text7022-1-0-917" serif:id="text7022-1-0-9"></g><g id="text7022-1-0-918" serif:id="text7022-1-0-9"></g><g id="text7018-0-920" serif:id="text7018-0-9"></g><g id="text7018-0-921" serif:id="text7018-0-9"></g><g id="text6007-6-1-618" serif:id="text6007-6-1-6"></g><g id="text6007-6-1-619" serif:id="text6007-6-1-6"></g><g id="text479554" serif:id="text4795"></g><g id="text479555" serif:id="text4795"></g><g id="text479556" serif:id="text4795"></g><g id="text479557" serif:id="text4795"></g><g id="text479558" serif:id="text4795"></g><g id="text479559" serif:id="text4795"></g><g id="text479560" serif:id="text4795"></g><g id="text479561" serif:id="text4795"></g><g id="text479562" serif:id="text4795"></g><g id="text701845" serif:id="text7018"></g><g id="text701846" serif:id="text7018"></g><g id="text701847" serif:id="text7018"></g><g id="text701848" serif:id="text7018"></g><g id="text701849" serif:id="text7018"></g><g id="text701850" serif:id="text7018"></g><g id="text701851" serif:id="text7018"></g><g id="text701852" serif:id="text7018"></g><g id="text7022-1-0-919" serif:id="text7022-1-0-9"></g><g id="text7022-1-0-920" serif:id="text7022-1-0-9"></g><g id="text479563" serif:id="text4795"></g><g id="text479564" serif:id="text4795"></g><g id="text701853" serif:id="text7018"></g><g id="text701854" serif:id="text7018"></g><g id="text7022-1-0-921" serif:id="text7022-1-0-9"></g><g id="text7022-1-0-922" serif:id="text7022-1-0-9"></g><rect id="rect6003-9-3" x="676.656" y="30.691" width="123.595" height="92.328" style="fill:#fff287;stroke:#000;stroke-width:3px;"/><rect id="rect6003-9-31" serif:id="rect6003-9-3" x="773.148" y="180.082" width="169.351" height="104.495" style="fill:#fff287;stroke:#000;stroke-width:3px;"/><g id="text4795-117" serif:id="text4795-1"></g><g id="text4795-118" serif:id="text4795-1"></g><g id="text4795-119" serif:id="text4795-1"></g><g id="text4795-120" serif:id="text4795-1"></g><g id="text4795-121" serif:id="text4795-1"></g><g id="text4795-122" serif:id="text4795-1"></g><g id="text4795-123" serif:id="text4795-1"></g><g id="text4795-124" serif:id="text4795-1"><text x="823.384px" y="171.799px" style="font-family:'Delicious-Heavy', 'Delicious Heavy';font-weight:500;font-size:22.5px;">Object()</text></g><g id="text4795-125" serif:id="text4795-1"></g><g id="text7022-914" serif:id="text7022-9"></g><g id="text7022-915" serif:id="text7022-9"></g><g id="text7022-916" serif:id="text7022-9"></g><g id="text7022-917" serif:id="text7022-9"></g><g id="text7022-918" serif:id="text7022-9"><text x="687.414px" y="53.512px" style="font-family:'Delicious-Heavy', 'Delicious Heavy';font-weight:500;font-size:22.5px;">toString()</text></g><g id="text7022-919" serif:id="text7022-9"></g><g id="text7022-920" serif:id="text7022-9"></g><g id="text7022-921" serif:id="text7022-9"></g><g id="text7022-922" serif:id="text7022-9"></g><g id="text7022-923" serif:id="text7022-9"></g><g id="text7022-924" serif:id="text7022-9"><text x="782.805px" y="206.206px" style="font-family:'Delicious-Heavy', 'Delicious Heavy';font-weight:500;font-size:22.5px;">getPr<tspan x="828.593px " y="206.206px ">o</tspan>totypeOf()</text></g><g id="text7022-925" serif:id="text7022-9"></g><g id="text810214" serif:id="text8102"></g><g id="text810215" serif:id="text8102"></g><g id="text810216" serif:id="text8102"></g><g id="text810217" serif:id="text8102"></g><g id="text810218" serif:id="text8102"><text x="687.096px" y="86.832px" style="font-family:'Delicious-Heavy', 'Delicious Heavy';font-weight:500;font-size:30px;">...</text></g><g id="text810219" serif:id="text8102"></g><g id="text810220" serif:id="text8102"></g><g id="text810221" serif:id="text8102"></g><g id="text810222" serif:id="text8102"></g><g id="text810223" serif:id="text8102"></g><g id="text810224" serif:id="text8102"><text x="784.285px" y="248.527px" style="font-family:'Delicious-Heavy', 'Delicious Heavy';font-weight:500;font-size:30px;">...</text></g><g id="text810225" serif:id="text8102"></g><path id="path6044-5-3-1" d="M856.037,101.057l9.012,4.475l-8.987,4.525c2.244,-2.256 2.231,-6.756 -0.025,-9Z" style="fill:#808080;"/><path d="M792.617,105.734c0,0 46.919,-0.131 65.232,-0.182" style="fill:none;stroke:#808080;stroke-width:3px;"/><text x="866.653px" y="113.259px" style="font-family:'Delicious-Bold', 'Delicious';font-weight:700;font-size:36px;fill:#000080;">null</text><g id="text7018-0-4-7-2-614" serif:id="text7018-0-4-7-2-6"></g><g id="text7018-0-4-7-2-615" serif:id="text7018-0-4-7-2-6"></g><g id="text7018-0-4-7-2-616" serif:id="text7018-0-4-7-2-6"></g><g id="text7018-0-4-7-2-617" serif:id="text7018-0-4-7-2-6"></g><g id="text7018-0-4-7-2-618" serif:id="text7018-0-4-7-2-6"><path id="path7932-2-0-2" d="M686.373,114.207l0,-2.745l-1.35,0l0,-14.468l1.35,0l0,-2.745l-4.32,0l0,19.958l4.32,0Z" style="fill:#808080;fill-rule:nonzero;"/><path id="path7934-7-6-1" d="M691.954,114.207l0,-2.745l-1.35,0l0,-14.468l1.35,0l0,-2.745l-4.32,0l0,19.958l4.32,0Z" style="fill:#808080;fill-rule:nonzero;"/><path id="path7936-2-8-7" d="M703.318,101.179c0,-3.577 -2.7,-4.657 -5.828,-4.657l-3.735,0l0,14.175l3.353,0l0,-4.86c0.337,0.202 0.877,0.315 1.237,0.315c2.723,0 4.973,-2.25 4.973,-4.973Zm-3.353,-0.022c0,1.305 -0.54,2.25 -1.957,2.25c-0.225,0 -0.675,-0.18 -0.9,-0.27l0,-3.803l0.495,0c1.305,0 2.362,0.293 2.362,1.823l0,0Z" style="fill:#808080;fill-rule:nonzero;"/><path id="path7938-2-9-8" d="M710.322,102.867l0.427,-3.195c0,0 -0.517,-0.338 -1.17,-0.338c-0.562,0 -1.53,1.148 -1.53,1.148l0,-0.81l-3.285,0l0,11.025l3.263,0l0,-7.83c0,0 0.315,-0.338 0.877,-0.338c0.63,0 1.418,0.338 1.418,0.338Z" style="fill:#808080;fill-rule:nonzero;"/><path id="path7940-6-2-5" d="M716.093,111.034c3.42,0 4.95,-3.24 4.95,-5.85c0,-2.61 -1.53,-5.85 -4.95,-5.85c-3.42,0 -4.95,3.24 -4.95,5.85c0,2.61 1.53,5.85 4.95,5.85Zm0,-8.977c1.058,0 1.688,1.17 1.688,3.127c0,1.935 -0.63,3.15 -1.688,3.15c-1.057,0 -1.687,-1.192 -1.687,-3.15c0,-1.957 0.63,-3.127 1.687,-3.127Z" style="fill:#808080;fill-rule:nonzero;"/><path id="path7942-1-66-74" d="M727.034,110.854c0.36,-0.112 1.328,-0.517 1.328,-0.517l-0.698,-2.228c0,0 -0.607,0.338 -1.102,0.158c-0.315,-0.09 -0.36,-0.653 -0.36,-0.788l0,-5.22l1.8,0l0,-2.587l-1.845,0l0,-1.98l-3.128,0l0,1.98l-1.057,0l0,2.34l0.967,0.247l0,5.76c0,1.463 0.675,3.015 2.7,3.015c0.585,0 0.99,-0.045 1.395,-0.18l0,0Z" style="fill:#808080;fill-rule:nonzero;"/><path id="path7944-0-4-1" d="M733.979,111.034c3.42,0 4.95,-3.24 4.95,-5.85c0,-2.61 -1.53,-5.85 -4.95,-5.85c-3.42,0 -4.95,3.24 -4.95,5.85c0,2.61 1.53,5.85 4.95,5.85Zm0,-8.977c1.057,0 1.687,1.17 1.687,3.127c0,1.935 -0.63,3.15 -1.687,3.15c-1.058,0 -1.688,-1.192 -1.688,-3.15c0,-1.957 0.63,-3.127 1.688,-3.127Z" style="fill:#808080;fill-rule:nonzero;"/><path id="path7946-6-9-8" d="M744.92,110.854c0.36,-0.112 1.328,-0.517 1.328,-0.517l-0.698,-2.228c0,0 -0.607,0.338 -1.102,0.158c-0.315,-0.09 -0.36,-0.653 -0.36,-0.788l0,-5.22l1.8,0l0,-2.587l-1.845,0l0,-1.98l-3.128,0l0,1.98l-1.057,0l0,2.34l0.967,0.247l0,5.76c0,1.463 0.675,3.015 2.7,3.015c0.585,0 0.99,-0.045 1.395,-0.18l0,0Z" style="fill:#808080;fill-rule:nonzero;"/><path id="path7948-1-5-5" d="M751.685,106.894c-0.135,-2.182 -1.643,-7.222 -1.643,-7.222l-3.465,0l3.375,10.8c-0.653,1.102 -0.765,1.485 -2.52,2.092l0.743,2.385c0,0 1.732,-0.337 2.632,-0.945c2.88,-1.935 4.928,-10.755 5.602,-14.332l-3.352,0c-0.315,2.542 -0.742,4.95 -1.372,7.222Z" style="fill:#808080;fill-rule:nonzero;"/><path id="path7950-5-0-9" d="M762.937,111.034c3.893,0 4.68,-3.712 4.68,-6.232c0,-2.34 -1.282,-5.468 -4.207,-5.468c-1.215,0 -2.34,1.148 -2.34,1.148l0.023,-0.81l-3.285,0l0,14.962l3.285,0l0,-4.387c0,0 0.787,0.787 1.845,0.787l-0.001,0Zm-0.09,-9c1.418,0 1.44,1.958 1.44,2.948c0,0.967 0.045,3.42 -1.44,3.42c-1.62,0 -1.755,-1.778 -1.755,-3.038l0,-2.407c0.495,-0.428 0.833,-0.923 1.755,-0.923Z" style="fill:#808080;fill-rule:nonzero;"/><path id="path7952-9-4-7" d="M778.386,105.477c0,-0.608 -0.022,-1.193 -0.045,-1.8c-0.067,-2.363 -2.002,-4.343 -4.387,-4.343c-3.128,0 -5.265,2.588 -5.265,5.603c0,3.015 1.395,6.12 4.86,6.12c1.372,0 3.082,-0.743 4.162,-1.643l-0.945,-2.025c-0.832,0.608 -2.092,0.968 -3.105,0.968c-1.282,0 -1.71,-1.485 -1.71,-2.52c0,-0.113 0,-0.248 0.023,-0.36l6.412,0Zm-3.06,-2.07l-3.127,0c0.09,-0.788 0.675,-1.913 1.597,-1.913c1.013,0 1.508,1.035 1.53,1.913Z" style="fill:#808080;fill-rule:nonzero;"/><path id="path7954-4-8-5" d="M783.712,114.207l-4.32,0l0,-2.745l1.35,0l0,-14.468l-1.35,0l0,-2.745l4.32,0l0,19.958Z" style="fill:#808080;fill-rule:nonzero;"/><path id="path7956-9-7-3" d="M789.293,114.207l-4.32,0l0,-2.745l1.35,0l0,-14.468l-1.35,0l0,-2.745l4.32,0l0,19.958Z" style="fill:#808080;fill-rule:nonzero;"/></g><g id="text7018-0-4-7-2-619" serif:id="text7018-0-4-7-2-6"></g><g id="text7018-0-4-7-2-620" serif:id="text7018-0-4-7-2-6"></g><g id="text7018-0-4-7-2-621" serif:id="text7018-0-4-7-2-6"></g><g id="text7018-0-4-7-2-622" serif:id="text7018-0-4-7-2-6"></g><g id="text7018-0-4-7-2-623" serif:id="text7018-0-4-7-2-6"></g><g id="text7018-0-4-7-2-624" serif:id="text7018-0-4-7-2-6"><path id="path7932-2-0-21" serif:id="path7932-2-0-2" d="M787.434,278.053l0,-2.745l-1.35,0l0,-14.467l1.35,0l0,-2.745l-4.32,0l0,19.957l4.32,0Z" style="fill:#808080;fill-rule:nonzero;"/><path id="path7934-7-6-11" serif:id="path7934-7-6-1" d="M793.015,278.053l0,-2.745l-1.35,0l0,-14.467l1.35,0l0,-2.745l-4.32,0l0,19.957l4.32,0Z" style="fill:#808080;fill-rule:nonzero;"/><path id="path7936-2-8-71" serif:id="path7936-2-8-7" d="M804.379,265.026c0,-3.578 -2.7,-4.658 -5.828,-4.658l-3.735,0l0,14.175l3.353,0l0,-4.86c0.337,0.202 0.877,0.315 1.237,0.315c2.723,0 4.973,-2.25 4.973,-4.972Zm-3.353,-0.023c0,1.305 -0.54,2.25 -1.957,2.25c-0.225,0 -0.675,-0.18 -0.9,-0.27l0,-3.803l0.495,0c1.305,0 2.362,0.293 2.362,1.823l0,0Z" style="fill:#808080;fill-rule:nonzero;"/><path id="path7938-2-9-81" serif:id="path7938-2-9-8" d="M811.383,266.713l0.427,-3.195c0,0 -0.517,-0.337 -1.17,-0.337c-0.562,0 -1.53,1.147 -1.53,1.147l0,-0.81l-3.285,0l0,11.025l3.263,0l0,-7.83c0,0 0.315,-0.337 0.877,-0.337c0.63,0 1.418,0.337 1.418,0.337Z" style="fill:#808080;fill-rule:nonzero;"/><path id="path7940-6-2-51" serif:id="path7940-6-2-5" d="M817.154,274.881c3.42,0 4.95,-3.24 4.95,-5.85c0,-2.61 -1.53,-5.85 -4.95,-5.85c-3.42,0 -4.95,3.24 -4.95,5.85c0,2.61 1.53,5.85 4.95,5.85Zm0,-8.978c1.057,0 1.687,1.17 1.687,3.128c0,1.935 -0.63,3.15 -1.687,3.15c-1.058,0 -1.688,-1.193 -1.688,-3.15c0,-1.958 0.63,-3.128 1.688,-3.128Z" style="fill:#808080;fill-rule:nonzero;"/><path id="path7942-1-66-741" serif:id="path7942-1-66-74" d="M828.095,274.701c0.36,-0.113 1.328,-0.518 1.328,-0.518l-0.698,-2.227c0,0 -0.607,0.337 -1.102,0.157c-0.315,-0.09 -0.36,-0.652 -0.36,-0.787l0,-5.22l1.8,0l0,-2.588l-1.845,0l0,-1.98l-3.128,0l0,1.98l-1.057,0l0,2.34l0.967,0.248l0,5.76c0,1.462 0.675,3.015 2.7,3.015c0.585,0 0.99,-0.045 1.395,-0.18l0,0Z" style="fill:#808080;fill-rule:nonzero;"/><path id="path7944-0-4-11" serif:id="path7944-0-4-1" d="M835.04,274.881c3.42,0 4.95,-3.24 4.95,-5.85c0,-2.61 -1.53,-5.85 -4.95,-5.85c-3.42,0 -4.95,3.24 -4.95,5.85c0,2.61 1.53,5.85 4.95,5.85Zm0,-8.978c1.057,0 1.687,1.17 1.687,3.128c0,1.935 -0.63,3.15 -1.687,3.15c-1.058,0 -1.688,-1.193 -1.688,-3.15c0,-1.958 0.63,-3.128 1.688,-3.128Z" style="fill:#808080;fill-rule:nonzero;"/><path id="path7946-6-9-81" serif:id="path7946-6-9-8" d="M845.981,274.701c0.36,-0.113 1.328,-0.518 1.328,-0.518l-0.698,-2.227c0,0 -0.607,0.337 -1.102,0.157c-0.315,-0.09 -0.36,-0.652 -0.36,-0.787l0,-5.22l1.8,0l0,-2.588l-1.845,0l0,-1.98l-3.128,0l0,1.98l-1.057,0l0,2.34l0.967,0.248l0,5.76c0,1.462 0.675,3.015 2.7,3.015c0.585,0 0.99,-0.045 1.395,-0.18l0,0Z" style="fill:#808080;fill-rule:nonzero;"/><path id="path7948-1-5-51" serif:id="path7948-1-5-5" d="M852.745,270.741c-0.134,-2.183 -1.642,-7.223 -1.642,-7.223l-3.465,0l3.375,10.8c-0.653,1.103 -0.765,1.485 -2.52,2.093l0.742,2.385c0,0 1.733,-0.338 2.633,-0.945c2.88,-1.935 4.927,-10.755 5.602,-14.333l-3.352,0c-0.315,2.543 -0.743,4.95 -1.373,7.223Z" style="fill:#808080;fill-rule:nonzero;"/><path id="path7950-5-0-91" serif:id="path7950-5-0-9" d="M863.998,274.881c3.893,0 4.68,-3.713 4.68,-6.233c0,-2.34 -1.282,-5.467 -4.207,-5.467c-1.215,0 -2.34,1.147 -2.34,1.147l0.022,-0.81l-3.285,0l0,14.963l3.285,0l0,-4.388c0,0 0.788,0.788 1.845,0.788l0,0Zm-0.09,-9c1.418,0 1.44,1.957 1.44,2.947c0,0.968 0.045,3.42 -1.44,3.42c-1.62,0 -1.755,-1.777 -1.755,-3.037l0,-2.408c0.495,-0.427 0.833,-0.922 1.755,-0.922Z" style="fill:#808080;fill-rule:nonzero;"/><path id="path7952-9-4-71" serif:id="path7952-9-4-7" d="M879.447,269.323c0,-0.607 -0.022,-1.192 -0.045,-1.8c-0.067,-2.362 -2.002,-4.342 -4.387,-4.342c-3.128,0 -5.265,2.587 -5.265,5.602c0,3.015 1.395,6.12 4.86,6.12c1.372,0 3.082,-0.742 4.162,-1.642l-0.945,-2.025c-0.832,0.607 -2.092,0.967 -3.105,0.967c-1.282,0 -1.71,-1.485 -1.71,-2.52c0,-0.112 0,-0.247 0.023,-0.36l6.412,0Zm-3.06,-2.07l-3.127,0c0.09,-0.787 0.675,-1.912 1.597,-1.912c1.013,0 1.508,1.035 1.53,1.912Z" style="fill:#808080;fill-rule:nonzero;"/><path id="path7954-4-8-51" serif:id="path7954-4-8-5" d="M884.773,278.053l-4.32,0l0,-2.745l1.35,0l0,-14.467l-1.35,0l0,-2.745l4.32,0l0,19.957Z" style="fill:#808080;fill-rule:nonzero;"/><path id="path7956-9-7-31" serif:id="path7956-9-7-3" d="M890.354,278.053l-4.32,0l0,-2.745l1.35,0l0,-14.467l-1.35,0l0,-2.745l4.32,0l0,19.957Z" style="fill:#808080;fill-rule:nonzero;"/></g><g id="text7018-0-4-7-2-625" serif:id="text7018-0-4-7-2-6"></g><g id="text6007-6-1-620" serif:id="text6007-6-1-6"></g><g id="text6007-6-1-621" serif:id="text6007-6-1-6"></g><g id="text6007-6-1-622" serif:id="text6007-6-1-6"></g><g id="text6007-6-1-623" serif:id="text6007-6-1-6"></g><g id="text6007-6-1-624" serif:id="text6007-6-1-6"><text x="686.764px" y="74.528px" style="font-family:'Delicious-Heavy', 'Delicious Heavy';font-weight:500;font-size:22.5px;">constructor</text></g><g id="text6007-6-1-625" serif:id="text6007-6-1-6"></g><g id="text6007-6-1-626" serif:id="text6007-6-1-6"></g><rect id="rect6003-9-3-0" x="466.218" y="81.718" width="123.595" height="125.718" style="fill:#fff287;stroke:#000;stroke-width:3px;"/><g id="text4795-1-69" serif:id="text4795-1-6"></g><g id="text4795-1-610" serif:id="text4795-1-6"></g><g id="text4795-1-611" serif:id="text4795-1-6"></g><g id="text4795-1-612" serif:id="text4795-1-6"></g><g id="text4795-1-613" serif:id="text4795-1-6"><text x="442.902px" y="72.633px" style="font-family:'Delicious-Heavy', 'Delicious Heavy';font-weight:500;font-size:22.5px;">Function.pr<tspan x="544.175px " y="72.633px ">o</tspan>totype</text></g><g id="text4795-1-614" serif:id="text4795-1-6"></g><g id="text7022-9-29" serif:id="text7022-9-2"></g><g id="text7022-9-210" serif:id="text7022-9-2"></g><g id="text7022-9-211" serif:id="text7022-9-2"></g><g id="text7022-9-212" serif:id="text7022-9-2"></g><g id="text7022-9-213" serif:id="text7022-9-2"><text x="473.899px" y="105.403px" style="font-family:'Delicious-Heavy', 'Delicious Heavy';font-weight:500;font-size:22.5px;">call()</text></g><g id="text7022-9-214" serif:id="text7022-9-2"></g><g id="text7018-0-4-7-69" serif:id="text7018-0-4-7-6"></g><g id="text7018-0-4-7-610" serif:id="text7018-0-4-7-6"></g><g id="text7018-0-4-7-611" serif:id="text7018-0-4-7-6"></g><g id="text7018-0-4-7-612" serif:id="text7018-0-4-7-6"></g><g id="text7018-0-4-7-613" serif:id="text7018-0-4-7-6"><path id="path7932-2-1" d="M479.258,198.561l0,-2.745l-1.35,0l0,-14.467l1.35,0l0,-2.745l-4.32,0l0,19.957l4.32,0Z" style="fill:#808080;fill-rule:nonzero;"/><path id="path7934-7-5" d="M484.839,198.561l0,-2.745l-1.35,0l0,-14.467l1.35,0l0,-2.745l-4.32,0l0,19.957l4.32,0Z" style="fill:#808080;fill-rule:nonzero;"/><path id="path7936-2-5" d="M496.202,185.534c0,-3.578 -2.7,-4.658 -5.827,-4.658l-3.735,0l0,14.175l3.352,0l0,-4.86c0.338,0.203 0.878,0.315 1.238,0.315c2.722,0 4.972,-2.25 4.972,-4.972Zm-3.352,-0.023c0,1.305 -0.54,2.25 -1.958,2.25c-0.225,0 -0.675,-0.18 -0.9,-0.27l0,-3.802l0.495,0c1.305,0 2.363,0.292 2.363,1.822l0,0Z" style="fill:#808080;fill-rule:nonzero;"/><path id="path7938-2-4" d="M503.206,187.221l0.428,-3.195c0,0 -0.518,-0.337 -1.17,-0.337c-0.563,0 -1.53,1.147 -1.53,1.147l0,-0.81l-3.285,0l0,11.025l3.262,0l0,-7.83c0,0 0.315,-0.337 0.878,-0.337c0.63,0 1.417,0.337 1.417,0.337Z" style="fill:#808080;fill-rule:nonzero;"/><path id="path7940-6-7" d="M508.977,195.389c3.42,0 4.95,-3.24 4.95,-5.85c0,-2.61 -1.53,-5.85 -4.95,-5.85c-3.42,0 -4.95,3.24 -4.95,5.85c0,2.61 1.53,5.85 4.95,5.85Zm0,-8.978c1.058,0 1.688,1.17 1.688,3.128c0,1.935 -0.63,3.15 -1.688,3.15c-1.057,0 -1.687,-1.193 -1.687,-3.15c0,-1.958 0.63,-3.128 1.687,-3.128Z" style="fill:#808080;fill-rule:nonzero;"/><path id="path7942-1-6" d="M519.919,195.209c0.36,-0.113 1.327,-0.518 1.327,-0.518l-0.697,-2.227c0,0 -0.608,0.337 -1.103,0.157c-0.315,-0.09 -0.36,-0.652 -0.36,-0.787l0,-5.22l1.8,0l0,-2.588l-1.845,0l0,-1.98l-3.127,0l0,1.98l-1.058,0l0,2.34l0.968,0.248l0,5.76c0,1.462 0.675,3.015 2.7,3.015c0.585,0 0.99,-0.045 1.395,-0.18l0,0Z" style="fill:#808080;fill-rule:nonzero;"/><path id="path7944-0-5" d="M526.863,195.389c3.42,0 4.95,-3.24 4.95,-5.85c0,-2.61 -1.53,-5.85 -4.95,-5.85c-3.42,0 -4.95,3.24 -4.95,5.85c0,2.61 1.53,5.85 4.95,5.85Zm0,-8.978c1.058,0 1.688,1.17 1.688,3.128c0,1.935 -0.63,3.15 -1.688,3.15c-1.057,0 -1.687,-1.193 -1.687,-3.15c0,-1.958 0.63,-3.128 1.687,-3.128Z" style="fill:#808080;fill-rule:nonzero;"/><path id="path7946-6-6" d="M537.805,195.209c0.36,-0.113 1.327,-0.518 1.327,-0.518l-0.697,-2.227c0,0 -0.608,0.337 -1.103,0.157c-0.315,-0.09 -0.36,-0.652 -0.36,-0.787l0,-5.22l1.8,0l0,-2.588l-1.845,0l0,-1.98l-3.127,0l0,1.98l-1.058,0l0,2.34l0.968,0.248l0,5.76c0,1.462 0.675,3.015 2.7,3.015c0.585,0 0.99,-0.045 1.395,-0.18l0,0Z" style="fill:#808080;fill-rule:nonzero;"/><path id="path7948-1-9" d="M544.569,191.249c-0.135,-2.183 -1.643,-7.223 -1.643,-7.223l-3.465,0l3.375,10.8c-0.652,1.103 -0.765,1.485 -2.52,2.093l0.743,2.385c0,0 1.732,-0.338 2.632,-0.945c2.88,-1.935 4.928,-10.755 5.603,-14.333l-3.353,0c-0.315,2.543 -0.742,4.95 -1.372,7.223Z" style="fill:#808080;fill-rule:nonzero;"/><path id="path7950-5-3" d="M555.822,195.389c3.892,0 4.68,-3.713 4.68,-6.233c0,-2.34 -1.283,-5.467 -4.208,-5.467c-1.215,0 -2.34,1.147 -2.34,1.147l0.023,-0.81l-3.285,0l0,14.963l3.285,0l0,-4.388c0,0 0.787,0.788 1.845,0.788l0,0Zm-0.09,-9c1.417,0 1.44,1.957 1.44,2.947c0,0.968 0.045,3.42 -1.44,3.42c-1.62,0 -1.755,-1.777 -1.755,-3.037l0,-2.408c0.495,-0.427 0.832,-0.922 1.755,-0.922Z" style="fill:#808080;fill-rule:nonzero;"/><path id="path7952-9-7" d="M571.271,189.831c0,-0.607 -0.023,-1.192 -0.045,-1.8c-0.068,-2.362 -2.003,-4.342 -4.388,-4.342c-3.127,0 -5.265,2.587 -5.265,5.602c0,3.015 1.395,6.12 4.86,6.12c1.373,0 3.083,-0.742 4.163,-1.642l-0.945,-2.025c-0.833,0.607 -2.093,0.967 -3.105,0.967c-1.283,0 -1.71,-1.485 -1.71,-2.52c0,-0.112 0,-0.247 0.022,-0.36l6.413,0Zm-3.06,-2.07l-3.128,0c0.09,-0.787 0.675,-1.912 1.598,-1.912c1.012,0 1.507,1.035 1.53,1.912Z" style="fill:#808080;fill-rule:nonzero;"/><path id="path7954-4-4" d="M576.597,198.561l-4.32,0l0,-2.745l1.35,0l0,-14.467l-1.35,0l0,-2.745l4.32,0l0,19.957Z" style="fill:#808080;fill-rule:nonzero;"/><path id="path7956-9-5" d="M582.178,198.561l-4.32,0l0,-2.745l1.35,0l0,-14.467l-1.35,0l0,-2.745l4.32,0l0,19.957Z" style="fill:#808080;fill-rule:nonzero;"/></g><g id="text7018-0-4-7-614" serif:id="text7018-0-4-7-6"></g><g id="text8102-59" serif:id="text8102-5"></g><g id="text8102-510" serif:id="text8102-5"></g><g id="text8102-511" serif:id="text8102-5"></g><g id="text8102-512" serif:id="text8102-5"></g><g id="text8102-513" serif:id="text8102-5"><text x="475.097px" y="169.122px" style="font-family:'Delicious-Heavy', 'Delicious Heavy';font-weight:500;font-size:30px;">...</text></g><g id="text8102-514" serif:id="text8102-5"></g><g id="text7022-9-2-69" serif:id="text7022-9-2-6"></g><g id="text7022-9-2-610" serif:id="text7022-9-2-6"></g><g id="text7022-9-2-611" serif:id="text7022-9-2-6"></g><g id="text7022-9-2-612" serif:id="text7022-9-2-6"></g><g id="text7022-9-2-613" serif:id="text7022-9-2-6"><text x="474.011px" y="130.882px" style="font-family:'Delicious-Heavy', 'Delicious Heavy';font-weight:500;font-size:22.5px;">toString()</text></g><g id="text7022-9-2-614" serif:id="text7022-9-2-6"></g><g id="text479565" serif:id="text4795"></g><g id="text479566" serif:id="text4795"></g><g id="text479567" serif:id="text4795"></g><g id="text479568" serif:id="text4795"></g><g id="text701855" serif:id="text7018"></g><g id="text701856" serif:id="text7018"></g><g id="text701857" serif:id="text7018"></g><g id="text701858" serif:id="text7018"></g><rect id="rect6003-9-3-01" serif:id="rect6003-9-3-0" x="553.456" y="273.362" width="123.595" height="79.533" style="fill:#fff287;stroke:#000;stroke-width:3px;"/><g id="text4795-1-615" serif:id="text4795-1-6"></g><g id="text4795-1-616" serif:id="text4795-1-6"></g><g id="text4795-1-617" serif:id="text4795-1-6"></g><g id="text4795-1-618" serif:id="text4795-1-6"></g><g id="text4795-1-619" serif:id="text4795-1-6"><text x="577.594px" y="264.564px" style="font-family:'Delicious-Heavy', 'Delicious Heavy';font-weight:500;font-size:22.5px;">Function()</text></g><g id="text4795-1-620" serif:id="text4795-1-6"></g><g id="text7018-0-4-7-615" serif:id="text7018-0-4-7-6"></g><g id="text7018-0-4-7-616" serif:id="text7018-0-4-7-6"></g><g id="text7018-0-4-7-617" serif:id="text7018-0-4-7-6"></g><g id="text7018-0-4-7-618" serif:id="text7018-0-4-7-6"></g><g id="text7018-0-4-7-619" serif:id="text7018-0-4-7-6"><path id="path7932-2-11" serif:id="path7932-2-1" d="M567.383,343.789l0,-2.745l-1.35,0l0,-14.467l1.35,0l0,-2.745l-4.32,0l0,19.957l4.32,0Z" style="fill:#808080;fill-rule:nonzero;"/><path id="path7934-7-51" serif:id="path7934-7-5" d="M572.964,343.789l0,-2.745l-1.35,0l0,-14.467l1.35,0l0,-2.745l-4.32,0l0,19.957l4.32,0Z" style="fill:#808080;fill-rule:nonzero;"/><path id="path7936-2-51" serif:id="path7936-2-5" d="M584.328,330.762c0,-3.578 -2.7,-4.658 -5.828,-4.658l-3.735,0l0,14.175l3.353,0l0,-4.86c0.337,0.202 0.877,0.315 1.237,0.315c2.723,0 4.973,-2.25 4.973,-4.972Zm-3.353,-0.023c0,1.305 -0.54,2.25 -1.957,2.25c-0.225,0 -0.675,-0.18 -0.9,-0.27l0,-3.802l0.495,0c1.305,0 2.362,0.292 2.362,1.822l0,0Z" style="fill:#808080;fill-rule:nonzero;"/><path id="path7938-2-41" serif:id="path7938-2-4" d="M591.331,332.449l0.428,-3.195c0,0 -0.518,-0.337 -1.17,-0.337c-0.563,0 -1.53,1.147 -1.53,1.147l0,-0.81l-3.285,0l0,11.025l3.262,0l0,-7.83c0,0 0.315,-0.337 0.878,-0.337c0.63,0 1.417,0.337 1.417,0.337Z" style="fill:#808080;fill-rule:nonzero;"/><path id="path7940-6-71" serif:id="path7940-6-7" d="M597.103,340.617c3.42,0 4.95,-3.24 4.95,-5.85c0,-2.61 -1.53,-5.85 -4.95,-5.85c-3.42,0 -4.95,3.24 -4.95,5.85c0,2.61 1.53,5.85 4.95,5.85Zm0,-8.978c1.057,0 1.687,1.17 1.687,3.128c0,1.935 -0.63,3.15 -1.687,3.15c-1.058,0 -1.688,-1.193 -1.688,-3.15c0,-1.958 0.63,-3.128 1.688,-3.128Z" style="fill:#808080;fill-rule:nonzero;"/><path id="path7942-1-61" serif:id="path7942-1-6" d="M608.044,340.437c0.36,-0.113 1.328,-0.518 1.328,-0.518l-0.698,-2.227c0,0 -0.607,0.337 -1.102,0.157c-0.315,-0.09 -0.36,-0.652 -0.36,-0.787l0,-5.22l1.8,0l0,-2.588l-1.845,0l0,-1.98l-3.128,0l0,1.98l-1.057,0l0,2.34l0.967,0.248l0,5.76c0,1.462 0.675,3.015 2.7,3.015c0.585,0 0.99,-0.045 1.395,-0.18l0,0Z" style="fill:#808080;fill-rule:nonzero;"/><path id="path7944-0-51" serif:id="path7944-0-5" d="M614.988,340.617c3.42,0 4.95,-3.24 4.95,-5.85c0,-2.61 -1.53,-5.85 -4.95,-5.85c-3.42,0 -4.95,3.24 -4.95,5.85c0,2.61 1.53,5.85 4.95,5.85Zm0,-8.978c1.058,0 1.688,1.17 1.688,3.128c0,1.935 -0.63,3.15 -1.688,3.15c-1.057,0 -1.687,-1.193 -1.687,-3.15c0,-1.958 0.63,-3.128 1.687,-3.128Z" style="fill:#808080;fill-rule:nonzero;"/><path id="path7946-6-61" serif:id="path7946-6-6" d="M625.93,340.437c0.36,-0.113 1.327,-0.518 1.327,-0.518l-0.697,-2.227c0,0 -0.608,0.337 -1.103,0.157c-0.315,-0.09 -0.36,-0.652 -0.36,-0.787l0,-5.22l1.8,0l0,-2.588l-1.845,0l0,-1.98l-3.127,0l0,1.98l-1.058,0l0,2.34l0.968,0.248l0,5.76c0,1.462 0.675,3.015 2.7,3.015c0.585,0 0.99,-0.045 1.395,-0.18l0,0Z" style="fill:#808080;fill-rule:nonzero;"/><path id="path7948-1-91" serif:id="path7948-1-9" d="M632.694,336.477c-0.135,-2.183 -1.642,-7.223 -1.642,-7.223l-3.465,0l3.375,10.8c-0.653,1.103 -0.765,1.485 -2.52,2.093l0.742,2.385c0,0 1.733,-0.338 2.633,-0.945c2.88,-1.935 4.927,-10.755 5.602,-14.333l-3.352,0c-0.315,2.543 -0.743,4.95 -1.373,7.223Z" style="fill:#808080;fill-rule:nonzero;"/><path id="path7950-5-31" serif:id="path7950-5-3" d="M643.947,340.617c3.892,0 4.68,-3.713 4.68,-6.233c0,-2.34 -1.283,-5.467 -4.208,-5.467c-1.215,0 -2.34,1.147 -2.34,1.147l0.023,-0.81l-3.285,0l0,14.963l3.285,0l0,-4.388c0,0 0.788,0.788 1.845,0.788l0,0Zm-0.09,-9c1.417,0 1.44,1.957 1.44,2.947c0,0.968 0.045,3.42 -1.44,3.42c-1.62,0 -1.755,-1.777 -1.755,-3.037l0,-2.408c0.495,-0.427 0.832,-0.922 1.755,-0.922Z" style="fill:#808080;fill-rule:nonzero;"/><path id="path7952-9-71" serif:id="path7952-9-7" d="M659.396,335.059c0,-0.607 -0.023,-1.192 -0.045,-1.8c-0.067,-2.362 -2.003,-4.342 -4.387,-4.342c-3.128,0 -5.266,2.587 -5.266,5.602c0,3.015 1.396,6.12 4.86,6.12c1.373,0 3.083,-0.742 4.163,-1.642l-0.945,-2.025c-0.832,0.607 -2.092,0.967 -3.105,0.967c-1.283,0 -1.71,-1.485 -1.71,-2.52c0,-0.112 0,-0.247 0.023,-0.36l6.412,0Zm-3.06,-2.07l-3.127,0c0.09,-0.787 0.675,-1.912 1.597,-1.912c1.013,0 1.508,1.035 1.53,1.912Z" style="fill:#808080;fill-rule:nonzero;"/><path id="path7954-4-41" serif:id="path7954-4-4" d="M664.722,343.789l-4.32,0l0,-2.745l1.35,0l0,-14.467l-1.35,0l0,-2.745l4.32,0l0,19.957Z" style="fill:#808080;fill-rule:nonzero;"/><path id="path7956-9-51" serif:id="path7956-9-5" d="M670.303,343.789l-4.32,0l0,-2.745l1.35,0l0,-14.467l-1.35,0l0,-2.745l4.32,0l0,19.957Z" style="fill:#808080;fill-rule:nonzero;"/></g><g id="text7018-0-4-7-620" serif:id="text7018-0-4-7-6"></g><g id="text8102-515" serif:id="text8102-5"></g><g id="text8102-516" serif:id="text8102-5"></g><g id="text8102-517" serif:id="text8102-5"></g><g id="text8102-518" serif:id="text8102-5"></g><g id="text8102-519" serif:id="text8102-5"><text x="561.891px" y="313.623px" style="font-family:'Delicious-Heavy', 'Delicious Heavy';font-weight:500;font-size:30px;">...</text></g><g id="text8102-520" serif:id="text8102-5"></g><g id="text6007-6-1-627" serif:id="text6007-6-1-6"></g><g id="text6007-6-1-628" serif:id="text6007-6-1-6"></g><g id="text6007-6-1-629" serif:id="text6007-6-1-6"></g><g id="text6007-6-1-630" serif:id="text6007-6-1-6"></g><g id="text6007-6-1-631" serif:id="text6007-6-1-6"><text x="559.606px" y="299.035px" style="font-family:'Delicious-Heavy', 'Delicious Heavy';font-weight:500;font-size:22.5px;">pr<tspan x="578.281px " y="299.035px ">o</tspan>totype</text></g><g id="text6007-6-1-632" serif:id="text6007-6-1-6"></g><g id="text7022-926" serif:id="text7022-9"></g><g id="text7022-927" serif:id="text7022-9"></g><g id="text7022-928" serif:id="text7022-9"></g><g id="text7022-929" serif:id="text7022-9"></g><g id="text7022-930" serif:id="text7022-9"><text x="782.763px" y="231.335px" style="font-family:'Delicious-Heavy', 'Delicious Heavy';font-weight:500;font-size:22.5px;">pr<tspan x="801.438px " y="231.335px ">o</tspan>totype</text></g><g id="text7022-931" serif:id="text7022-9"></g><g id="text6007-6-116" serif:id="text6007-6-1"></g><g id="text6007-6-117" serif:id="text6007-6-1"></g><g id="text7018-0-922" serif:id="text7018-0-9"></g><g id="text7018-0-923" serif:id="text7018-0-9"></g><g id="text6007-6-1-633" serif:id="text6007-6-1-6"></g><g id="text6007-6-1-634" serif:id="text6007-6-1-6"></g><g><g><g id="text4795-1-621" serif:id="text4795-1-6"></g></g></g><g><g><g id="text4795-1-622" serif:id="text4795-1-6"></g></g></g><g><g><g id="text4795-1-623" serif:id="text4795-1-6"></g></g></g><g><g><g id="text4795-1-624" serif:id="text4795-1-6"></g></g></g><path id="path3964-2-2" d="M831.146,141.702l-4.963,9.507l-4.628,-9.674c2.356,2.439 7.151,2.523 9.591,0.167Z" style="fill-rule:nonzero;"/><path d="M790.148,69.778c27.326,-0.098 36.859,12.675 36.169,73.759" style="fill:none;fill-rule:nonzero;stroke:#000;stroke-width:3.2px;"/><path id="path3964-2-21" serif:id="path3964-2-2" d="M634.805,233.81l-4.889,9.546l-4.703,-9.638c2.374,2.421 7.17,2.467 9.592,0.092Z" style="fill-rule:nonzero;"/><path d="M580.346,148.389c27.335,-0.098 49.374,25.192 49.644,87.293" style="fill:none;fill-rule:nonzero;stroke:#000;stroke-width:3.2px;"/><path id="path3964-2-22" serif:id="path3964-2-2" d="M403.05,174.585l-4.922,9.528l-4.669,-9.654c2.366,2.429 7.162,2.492 9.591,0.126Z" style="fill:#d45500;fill-rule:nonzero;"/><path d="M330.457,80.06c55.308,1.399 68.485,13.491 67.772,96.38" style="fill:none;fill-rule:nonzero;stroke:#d45500;stroke-width:3.2px;"/><path id="path3964-2-23" serif:id="path3964-2-2" d="M517.711,219.54l4.623,-9.677l4.967,9.504c-2.44,-2.354 -7.236,-2.268 -9.59,0.173Z" style="fill-rule:nonzero;"/><path d="M558.351,295.458c-37.444,0.888 -35.218,-31.036 -35.879,-77.923" style="fill:none;fill-rule:nonzero;stroke:#000;stroke-width:3.2px;"/><path id="path3964-2-24" serif:id="path3964-2-2" d="M475.226,220.173l5.586,-9.154l3.972,9.962c-2.188,-2.592 -6.967,-2.995 -9.558,-0.808Z" style="fill:#808080;fill-rule:nonzero;"/><path d="M408.15,242.279c36.501,0.865 67.214,5.162 72.016,-23.614" style="fill:none;fill-rule:nonzero;stroke:#808080;stroke-width:3.2px;"/><path id="path3964-2-25" serif:id="path3964-2-2" d="M722.727,136.535l4.558,-9.707l5.031,9.471c-2.457,-2.338 -7.251,-2.22 -9.589,0.236Z" style="fill:#808080;fill-rule:nonzero;"/><path d="M317.248,369.785c358.064,10.685 417.691,85.458 410.226,-235.286" style="fill:none;fill-rule:nonzero;stroke:#808080;stroke-width:3.2px;"/><path id="path3964-2-26" serif:id="path3964-2-2" d="M211.318,96.58l9.659,4.661l-9.523,4.931c2.364,-2.432 2.296,-7.228 -0.136,-9.592Z" style="fill:#808080;fill-rule:nonzero;"/><path d="M160.557,102.094c0,0 36.479,-0.515 52.747,-0.745" style="fill:none;fill-rule:nonzero;stroke:#808080;stroke-width:3.2px;"/><path id="path3964-2-27" serif:id="path3964-2-2" d="M188.867,356.231l9.659,4.66l-9.523,4.931c2.364,-2.432 2.296,-7.227 -0.136,-9.591Z" style="fill:#808080;fill-rule:nonzero;"/><path d="M138.106,361.744c0,0 36.479,-0.515 52.747,-0.745" style="fill:none;fill-rule:nonzero;stroke:#808080;stroke-width:3.2px;"/><path id="path3964-2-28" serif:id="path3964-2-2" d="M270.23,294.564l-4.943,9.517l-4.648,-9.665c2.361,2.435 7.156,2.509 9.591,0.148Z" style="fill-rule:nonzero;"/><path d="M297.399,215.882c-36.209,0.966 -31.574,33.572 -31.994,80.526" style="fill:none;fill-rule:nonzero;stroke:#000;stroke-width:3.2px;"/><path id="path3964-2-29" serif:id="path3964-2-2" d="M496.818,217.424l4.692,-9.644l4.899,9.54c-2.424,-2.372 -7.219,-2.32 -9.591,0.104Z" style="fill:#808080;fill-rule:nonzero;"/><path d="M560.433,334.504c-66.714,-4.061 -58.791,-68.817 -58.84,-119.05" style="fill:none;fill-rule:nonzero;stroke:#808080;stroke-width:3.2px;"/><path id="path3964-2-210" serif:id="path3964-2-2" d="M741.037,135.717l4.635,-9.671l4.956,9.51c-2.438,-2.357 -7.234,-2.277 -9.591,0.161Z" style="fill-rule:nonzero;"/><path d="M780.647,229.342c-37.477,0.888 -34.274,-47.067 -34.847,-95.623" style="fill:none;fill-rule:nonzero;stroke:#000;stroke-width:3.2px;"/><path id="path6044-5-3-11" serif:id="path6044-5-3-1" d="M665.04,92.428l8.767,4.939l-9.211,4.05c2.358,-2.136 2.58,-6.631 0.444,-8.989Z" style="fill:#808080;"/><path d="M584.614,189.333c0,0 23.088,0.135 24.468,-18.959c2.342,-32.41 -1.996,-74.714 57.534,-73.362" style="fill:none;stroke:#808080;stroke-width:3px;"/><path id="path6044-5-3-12" serif:id="path6044-5-3-1" d="M604.232,205.554l-8.789,-4.9l9.193,-4.091c-2.349,2.147 -2.551,6.642 -0.404,8.991Z" style="fill:#808080;"/><path d="M781.259,270.131c-80.075,1.859 -77.275,-63.101 -178.623,-69.153" style="fill:none;stroke:#808080;stroke-width:3px;"/><g id="text6007-6-1-635" serif:id="text6007-6-1-6"></g><g id="text6007-6-1-636" serif:id="text6007-6-1-6"></g><g id="text6007-6-1-637" serif:id="text6007-6-1-6"></g><g id="text6007-6-1-638" serif:id="text6007-6-1-6"></g><g id="text6007-6-1-639" serif:id="text6007-6-1-6"><text x="474.226px" y="153.754px" style="font-family:'Delicious-Heavy', 'Delicious Heavy';font-weight:500;font-size:22.5px;">constructor</text></g><g id="text6007-6-1-640" serif:id="text6007-6-1-6"></g><g id="text7022-9-215" serif:id="text7022-9-2"></g><g id="text7022-9-216" serif:id="text7022-9-2"></g><g id="text7022-9-217" serif:id="text7022-9-2"></g><g id="text7022-9-218" serif:id="text7022-9-2"></g><g id="text7022-9-219" serif:id="text7022-9-2"></g><g id="text7022-9-220" serif:id="text7022-9-2"></g><g id="text7022-9-221" serif:id="text7022-9-2"></g><g id="text7022-9-222" serif:id="text7022-9-2"></g><g id="text7022-9-223" serif:id="text7022-9-2"></g><path id="path6044-5-3-13" serif:id="path6044-5-3-1" d="M664.919,38.283l8.808,4.866l-9.177,4.126c2.34,-2.155 2.525,-6.652 0.369,-8.992Z" style="fill:#808080;"/><path d="M340.157,104.801c42.379,4.337 46.153,-54.09 78.575,-60.082c49.29,-9.11 211.615,-3.301 247.801,-1.866" style="fill:none;stroke:#808080;stroke-width:3px;"/></g></svg>