<?xml version="1.0" encoding="UTF-8" standalone="no"?><!DOCTYPE svg PUBLIC "-//W3C//DTD SVG 1.1//EN" "http://www.w3.org/Graphics/SVG/1.1/DTD/svg11.dtd"><svg width="100%" height="100%" viewBox="0 0 1014 423" version="1.1" xmlns="http://www.w3.org/2000/svg" xmlns:xlink="http://www.w3.org/1999/xlink" xml:space="preserve" xmlns:serif="http://www.serif.com/" style="fill-rule:evenodd;clip-rule:evenodd;"><g id="Layer-1" serif:id="Layer 1"><g id="text6007"></g><g id="text60071" serif:id="text6007"></g><g id="text60072" serif:id="text6007"></g><g id="text60073" serif:id="text6007"></g><g id="text7018"></g><g id="text70181" serif:id="text7018"></g><g id="text70182" serif:id="text7018"></g><g id="text70183" serif:id="text7018"></g><g id="text4795"></g><g id="text47951" serif:id="text4795"></g><g id="text47952" serif:id="text4795"></g><g id="text47953" serif:id="text4795"></g><g id="text47954" serif:id="text4795"></g><g id="text47955" serif:id="text4795"></g><g id="text47956" serif:id="text4795"></g><g id="text47957" serif:id="text4795"></g><g id="text47958" serif:id="text4795"></g><g id="text47959" serif:id="text4795"></g><g id="text479510" serif:id="text4795"></g><g id="text479511" serif:id="text4795"></g><g id="text479512" serif:id="text4795"></g><g id="text479513" serif:id="text4795"></g><g id="text479514" serif:id="text4795"></g><g id="text479515" serif:id="text4795"></g><g id="text479516" serif:id="text4795"></g><g id="text1254"></g><g id="text1620"></g><g id="text4795-1"></g><g id="text4795-11" serif:id="text4795-1"></g><g id="text4795-12" serif:id="text4795-1"></g><g id="text7022-9"></g><g id="text7022-91" serif:id="text7022-9"></g><g id="text7022-92" serif:id="text7022-9"></g><g id="text8102"></g><g id="text81021" serif:id="text8102"></g><g id="text81022" serif:id="text8102"></g><g id="text70184" serif:id="text7018"></g><g id="text70185" serif:id="text7018"></g><g id="text70186" serif:id="text7018"></g><g id="text70187" serif:id="text7018"></g><g id="text7018-0-4-7-2-6"></g><g id="text7018-0-4-7-2-61" serif:id="text7018-0-4-7-2-6"></g><g id="text7018-0-4-7-2-62" serif:id="text7018-0-4-7-2-6"></g><g id="text4795-13" serif:id="text4795-1"></g><g id="text7022-93" serif:id="text7022-9"></g><g id="text81023" serif:id="text8102"></g><g id="text7018-0-4-7-2-63" serif:id="text7018-0-4-7-2-6"></g><g id="text4795-14" serif:id="text4795-1"></g><g id="text4795-15" serif:id="text4795-1"></g><g id="text7022-94" serif:id="text7022-9"></g><g id="text7022-95" serif:id="text7022-9"></g><g id="text81024" serif:id="text8102"></g><g id="text81025" serif:id="text8102"></g><g id="text7018-0-4-7-2-64" serif:id="text7018-0-4-7-2-6"></g><g id="text7018-0-4-7-2-65" serif:id="text7018-0-4-7-2-6"></g><g><g id="text4795-16" serif:id="text4795-1"></g><g id="text7022-96" serif:id="text7022-9"></g><g id="text81026" serif:id="text8102"></g><g id="text7018-0-4-7-2-66" serif:id="text7018-0-4-7-2-6"></g></g><g id="text4795-17" serif:id="text4795-1"></g><g id="text4795-18" serif:id="text4795-1"></g><g id="text4795-19" serif:id="text4795-1"></g><g id="text7022-97" serif:id="text7022-9"></g><g id="text7022-98" serif:id="text7022-9"></g><g id="text7022-99" serif:id="text7022-9"></g><g id="text81027" serif:id="text8102"></g><g id="text81028" serif:id="text8102"></g><g id="text81029" serif:id="text8102"></g><g id="text7018-0-4-7-2-67" serif:id="text7018-0-4-7-2-6"></g><g id="text7018-0-4-7-2-68" serif:id="text7018-0-4-7-2-6"></g><g id="text7018-0-4-7-2-69" serif:id="text7018-0-4-7-2-6"></g><g id="text4795-110" serif:id="text4795-1"></g><g id="text4795-111" serif:id="text4795-1"><text x="646.88px" y="26.674px" style="font-family:'Delicious-Heavy', 'Delicious Heavy';font-weight:500;font-size:22.5px;">Object.pr<tspan x="727.115px " y="26.674px ">o</tspan>totype</text></g><g id="text4795-112" serif:id="text4795-1"></g><g id="text7022-910" serif:id="text7022-9"></g><g id="text810210" serif:id="text8102"></g><g id="text7018-0-4-7-2-610" serif:id="text7018-0-4-7-2-6"></g><g id="text4795-113" serif:id="text4795-1"></g><g id="text7022-911" serif:id="text7022-9"></g><g id="text810211" serif:id="text8102"></g><g id="text7018-0-4-7-2-611" serif:id="text7018-0-4-7-2-6"></g><g id="text4795-114" serif:id="text4795-1"></g><g id="text7022-912" serif:id="text7022-9"></g><g id="text810212" serif:id="text8102"></g><g id="text7018-0-4-7-2-612" serif:id="text7018-0-4-7-2-6"></g><g><g id="text479517" serif:id="text4795"></g><g id="text70188" serif:id="text7018"></g></g><rect id="rect6003-9" x="39.74" y="79.997" width="123.595" height="49.86" style="fill:#e6e6e6;stroke:#000;stroke-width:3px;"/><g id="text479518" serif:id="text4795"></g><g id="text479519" serif:id="text4795"></g><g id="text479520" serif:id="text4795"></g><g id="text479521" serif:id="text4795"></g><g id="text479522" serif:id="text4795"></g><g id="text479523" serif:id="text4795"></g><g id="text479524" serif:id="text4795"></g><g id="text479525" serif:id="text4795"></g><g id="text479526" serif:id="text4795"></g><g id="text479527" serif:id="text4795"><text x="84.361px" y="67.732px" style="font-family:'Delicious-Heavy', 'Delicious Heavy';font-weight:500;font-size:22.5px;">obj</text></g><g id="text479528" serif:id="text4795"></g><g id="text479529" serif:id="text4795"></g><g id="text70189" serif:id="text7018"></g><g id="text701810" serif:id="text7018"></g><g id="text701811" serif:id="text7018"></g><g id="text701812" serif:id="text7018"></g><g id="text701813" serif:id="text7018"></g><g id="text701814" serif:id="text7018"></g><g id="text701815" serif:id="text7018"></g><g id="text701816" serif:id="text7018"></g><g id="text701817" serif:id="text7018"><text x="46.813px" y="112.961px" style="font-family:'Delicious-Heavy', 'Delicious Heavy';font-weight:500;font-size:22.5px;fill:#808080;">[[Pr<tspan x="76.04px " y="112.961px ">o</tspan>totype]]</text></g><g id="text701818" serif:id="text7018"></g><g id="text701819" serif:id="text7018"></g><rect id="rect6003-91" serif:id="rect6003-9" x="287.389" y="204.16" width="123.595" height="64.95" style="fill:#e6e6e6;stroke:#000;stroke-width:3px;"/><g id="text479530" serif:id="text4795"></g><g id="text479531" serif:id="text4795"></g><g id="text479532" serif:id="text4795"></g><g id="text479533" serif:id="text4795"></g><g id="text479534" serif:id="text4795"></g><g id="text479535" serif:id="text4795"></g><g id="text479536" serif:id="text4795"></g><g id="text479537" serif:id="text4795"></g><g id="text479538" serif:id="text4795"></g><g id="text479539" serif:id="text4795"><text x="329.963px" y="194.459px" style="font-family:'Delicious-Heavy', 'Delicious Heavy';font-weight:500;font-size:22.5px;">foo()</text></g><g id="text479540" serif:id="text4795"></g><g id="text479541" serif:id="text4795"></g><g id="text479542" serif:id="text4795"></g><g id="text479543" serif:id="text4795"></g><g id="text701820" serif:id="text7018"></g><g id="text701821" serif:id="text7018"></g><g id="text701822" serif:id="text7018"></g><g id="text701823" serif:id="text7018"></g><g id="text701824" serif:id="text7018"></g><g id="text701825" serif:id="text7018"></g><g id="text701826" serif:id="text7018"></g><g id="text701827" serif:id="text7018"><text x="294.462px" y="252.214px" style="font-family:'Delicious-Heavy', 'Delicious Heavy';font-weight:500;font-size:22.5px;fill:#808080;">[[Pr<tspan x="323.689px " y="252.214px ">o</tspan>totype]]</text></g><g id="text701828" serif:id="text7018"></g><g id="text701829" serif:id="text7018"></g><g id="text701830" serif:id="text7018"></g><g id="text701831" serif:id="text7018"></g><g id="text479544" serif:id="text4795"></g><g id="text701832" serif:id="text7018"></g><g id="text479545" serif:id="text4795"></g><g id="text701833" serif:id="text7018"></g><g id="text4795-1-6"></g><g id="text7022-9-2"></g><g id="text7018-0-4-7-6"></g><g id="text8102-5"></g><g id="text7022-9-2-6"></g><g id="text4795-1-61" serif:id="text4795-1-6"></g><g id="text4795-1-62" serif:id="text4795-1-6"></g><g id="text7022-9-21" serif:id="text7022-9-2"></g><g id="text7022-9-22" serif:id="text7022-9-2"></g><g id="text7018-0-4-7-61" serif:id="text7018-0-4-7-6"></g><g id="text7018-0-4-7-62" serif:id="text7018-0-4-7-6"></g><g id="text8102-51" serif:id="text8102-5"></g><g id="text8102-52" serif:id="text8102-5"></g><g id="text7022-9-2-61" serif:id="text7022-9-2-6"></g><g id="text7022-9-2-62" serif:id="text7022-9-2-6"></g><g id="text4795-1-63" serif:id="text4795-1-6"></g><g id="text7022-9-23" serif:id="text7022-9-2"></g><g id="text7018-0-4-7-63" serif:id="text7018-0-4-7-6"></g><g id="text8102-53" serif:id="text8102-5"></g><g id="text7022-9-2-63" serif:id="text7022-9-2-6"></g><g id="text4795-1-64" serif:id="text4795-1-6"></g><g id="text4795-1-65" serif:id="text4795-1-6"></g><g id="text4795-1-66" serif:id="text4795-1-6"></g><g id="text7022-9-24" serif:id="text7022-9-2"></g><g id="text7022-9-25" serif:id="text7022-9-2"></g><g id="text7022-9-26" serif:id="text7022-9-2"></g><g id="text7018-0-4-7-64" serif:id="text7018-0-4-7-6"></g><g id="text7018-0-4-7-65" serif:id="text7018-0-4-7-6"></g><g id="text7018-0-4-7-66" serif:id="text7018-0-4-7-6"></g><g id="text8102-54" serif:id="text8102-5"></g><g id="text8102-55" serif:id="text8102-5"></g><g id="text8102-56" serif:id="text8102-5"></g><g id="text7022-9-2-64" serif:id="text7022-9-2-6"></g><g id="text7022-9-2-65" serif:id="text7022-9-2-6"></g><g id="text7022-9-2-66" serif:id="text7022-9-2-6"></g><g id="text4795-1-67" serif:id="text4795-1-6"></g><g id="text7022-9-27" serif:id="text7022-9-2"></g><g id="text7018-0-4-7-67" serif:id="text7018-0-4-7-6"></g><g id="text8102-57" serif:id="text8102-5"></g><g id="text7022-9-2-67" serif:id="text7022-9-2-6"></g><g id="text4795-1-68" serif:id="text4795-1-6"></g><g id="text7022-9-28" serif:id="text7022-9-2"></g><g id="text7018-0-4-7-68" serif:id="text7018-0-4-7-6"></g><g id="text8102-58" serif:id="text8102-5"></g><g id="text7022-9-2-68" serif:id="text7022-9-2-6"></g><g id="text479546" serif:id="text4795"></g><g id="text479547" serif:id="text4795"></g><g id="text701834" serif:id="text7018"></g><g id="text701835" serif:id="text7018"></g><g id="text7022-1-0-9"></g><g id="text7022-1-0-91" serif:id="text7022-1-0-9"></g><g id="text7022-1-0-92" serif:id="text7022-1-0-9"></g><g id="text7022-1-0-93" serif:id="text7022-1-0-9"></g><g id="text7022-1-0-94" serif:id="text7022-1-0-9"></g><g id="text7022-1-0-95" serif:id="text7022-1-0-9"></g><g id="text7022-1-0-96" serif:id="text7022-1-0-9"></g><g id="text7022-1-0-97" serif:id="text7022-1-0-9"><text x="294.589px" y="226.799px" style="font-family:'Delicious-Heavy', 'Delicious Heavy';font-weight:500;font-size:22.5px;fill:#d45500;">pr<tspan x="313.264px " y="226.799px ">o</tspan>totype</text></g><g id="text7022-1-0-98" serif:id="text7022-1-0-9"></g><g id="text7022-1-0-99" serif:id="text7022-1-0-9"></g><g id="text7022-1-0-910" serif:id="text7022-1-0-9"></g><g id="text7022-1-0-911" serif:id="text7022-1-0-9"></g><rect id="rect6003-3-1" x="219.762" y="69.175" width="123.595" height="61.696" style="fill:#ffe6d5;stroke:#d45500;stroke-width:3px;"/><g id="text6007-6-1"></g><g id="text6007-6-11" serif:id="text6007-6-1"></g><g id="text6007-6-12" serif:id="text6007-6-1"></g><g id="text6007-6-13" serif:id="text6007-6-1"></g><g id="text6007-6-14" serif:id="text6007-6-1"></g><g id="text6007-6-15" serif:id="text6007-6-1"></g><g id="text6007-6-16" serif:id="text6007-6-1"></g><g id="text6007-6-17" serif:id="text6007-6-1"></g><g id="text6007-6-18" serif:id="text6007-6-1"><text x="220.948px" y="58.401px" style="font-family:'Delicious-Heavy', 'Delicious Heavy';font-weight:500;font-size:22.5px;">foo.pr<tspan x="273.823px " y="58.401px ">o</tspan>totype</text></g><g id="text6007-6-19" serif:id="text6007-6-1"></g><g id="text6007-6-110" serif:id="text6007-6-1"></g><g id="text6007-6-111" serif:id="text6007-6-1"></g><g id="text6007-6-112" serif:id="text6007-6-1"></g><g id="text7018-0-9"></g><g id="text7018-0-91" serif:id="text7018-0-9"></g><g id="text7018-0-92" serif:id="text7018-0-9"></g><g id="text7018-0-93" serif:id="text7018-0-9"></g><g id="text7018-0-94" serif:id="text7018-0-9"></g><g id="text7018-0-95" serif:id="text7018-0-9"></g><g id="text7018-0-96" serif:id="text7018-0-9"></g><g id="text7018-0-97" serif:id="text7018-0-9"><text x="225.006px" y="115.306px" style="font-family:'Delicious-Heavy', 'Delicious Heavy';font-weight:500;font-size:22.5px;fill:#808080;">[[Pr<tspan x="254.234px " y="115.306px ">o</tspan>totype]]</text></g><g id="text7018-0-98" serif:id="text7018-0-9"></g><g id="text7018-0-99" serif:id="text7018-0-9"></g><g id="text7018-0-910" serif:id="text7018-0-9"></g><g id="text7018-0-911" serif:id="text7018-0-9"></g><g id="text7018-0-912" serif:id="text7018-0-9"></g><g id="text7018-0-913" serif:id="text7018-0-9"></g><g id="text6007-6-1-6"></g><g id="text6007-6-1-61" serif:id="text6007-6-1-6"></g><g id="text6007-6-1-62" serif:id="text6007-6-1-6"></g><g id="text6007-6-1-63" serif:id="text6007-6-1-6"></g><g id="text6007-6-1-64" serif:id="text6007-6-1-6"></g><g id="text6007-6-1-65" serif:id="text6007-6-1-6"></g><g id="text6007-6-1-66" serif:id="text6007-6-1-6"><text x="225.141px" y="90.818px" style="font-family:'Delicious-Heavy', 'Delicious Heavy';font-weight:500;font-size:22.5px;fill:#d45500;">constructor</text></g><g id="text6007-6-1-67" serif:id="text6007-6-1-6"></g><g id="text6007-6-1-68" serif:id="text6007-6-1-6"></g><g id="text6007-6-1-69" serif:id="text6007-6-1-6"></g><g id="text6007-6-1-610" serif:id="text6007-6-1-6"></g><g id="text6007-6-1-611" serif:id="text6007-6-1-6"></g><g id="text6007-6-1-612" serif:id="text6007-6-1-6"></g><g id="text7022-1-0-912" serif:id="text7022-1-0-9"></g><g id="text7022-1-0-913" serif:id="text7022-1-0-9"></g><g id="text6007-6-113" serif:id="text6007-6-1"></g><g id="text6007-6-114" serif:id="text6007-6-1"></g><g id="text7018-0-914" serif:id="text7018-0-9"></g><g id="text7018-0-915" serif:id="text7018-0-9"></g><g id="text6007-6-1-613" serif:id="text6007-6-1-6"></g><g id="text6007-6-1-614" serif:id="text6007-6-1-6"></g><g id="text701836" serif:id="text7018"></g><g id="text7022-1-0-914" serif:id="text7022-1-0-9"></g><g id="text7018-0-916" serif:id="text7018-0-9"></g><g id="text6007-6-1-615" serif:id="text6007-6-1-6"></g><g id="text701837" serif:id="text7018"></g><g id="text7022-1-0-915" serif:id="text7022-1-0-9"></g><g id="text7018-0-917" serif:id="text7018-0-9"></g><g id="text6007-6-1-616" serif:id="text6007-6-1-6"></g><g id="text701838" serif:id="text7018"></g><g id="text701839" serif:id="text7018"></g><g id="text7022-1-0-916" serif:id="text7022-1-0-9"></g><g id="text7022-1-0-917" serif:id="text7022-1-0-9"></g><g id="text7018-0-918" serif:id="text7018-0-9"></g><g id="text7018-0-919" serif:id="text7018-0-9"></g><g id="text6007-6-1-617" serif:id="text6007-6-1-6"></g><g id="text6007-6-1-618" serif:id="text6007-6-1-6"></g><g id="text479548" serif:id="text4795"></g><g id="text479549" serif:id="text4795"></g><g id="text479550" serif:id="text4795"></g><g id="text479551" serif:id="text4795"></g><g id="text479552" serif:id="text4795"></g><g id="text479553" serif:id="text4795"></g><g id="text479554" serif:id="text4795"></g><g id="text479555" serif:id="text4795"></g><g id="text479556" serif:id="text4795"></g><g id="text701840" serif:id="text7018"></g><g id="text701841" serif:id="text7018"></g><g id="text701842" serif:id="text7018"></g><g id="text701843" serif:id="text7018"></g><g id="text701844" serif:id="text7018"></g><g id="text701845" serif:id="text7018"></g><g id="text701846" serif:id="text7018"></g><g id="text701847" serif:id="text7018"></g><g id="text7022-1-0-918" serif:id="text7022-1-0-9"></g><g id="text7022-1-0-919" serif:id="text7022-1-0-9"></g><g id="text479557" serif:id="text4795"></g><g id="text479558" serif:id="text4795"></g><g id="text701848" serif:id="text7018"></g><g id="text701849" serif:id="text7018"></g><g id="text7022-1-0-920" serif:id="text7022-1-0-9"></g><g id="text7022-1-0-921" serif:id="text7022-1-0-9"></g><rect id="rect6003-9-3" x="672.584" y="36.365" width="123.595" height="92.328" style="fill:#fff287;stroke:#000;stroke-width:3px;"/><rect id="rect6003-9-31" serif:id="rect6003-9-3" x="769.076" y="185.756" width="169.351" height="104.495" style="fill:#fff287;stroke:#000;stroke-width:3px;"/><g id="text4795-115" serif:id="text4795-1"></g><g id="text4795-116" serif:id="text4795-1"></g><g id="text4795-117" serif:id="text4795-1"></g><g id="text4795-118" serif:id="text4795-1"></g><g id="text4795-119" serif:id="text4795-1"></g><g id="text4795-120" serif:id="text4795-1"></g><g id="text4795-121" serif:id="text4795-1"><text x="819.312px" y="177.474px" style="font-family:'Delicious-Heavy', 'Delicious Heavy';font-weight:500;font-size:22.5px;">Object()</text></g><g id="text4795-122" serif:id="text4795-1"></g><g id="text7022-913" serif:id="text7022-9"></g><g id="text7022-914" serif:id="text7022-9"></g><g id="text7022-915" serif:id="text7022-9"></g><g id="text7022-916" serif:id="text7022-9"><text x="683.342px" y="59.186px" style="font-family:'Delicious-Heavy', 'Delicious Heavy';font-weight:500;font-size:22.5px;">toString()</text></g><g id="text7022-917" serif:id="text7022-9"></g><g id="text7022-918" serif:id="text7022-9"></g><g id="text7022-919" serif:id="text7022-9"></g><g id="text7022-920" serif:id="text7022-9"></g><g id="text7022-921" serif:id="text7022-9"><text x="778.733px" y="211.881px" style="font-family:'Delicious-Heavy', 'Delicious Heavy';font-weight:500;font-size:22.5px;">getPr<tspan x="824.521px " y="211.881px ">o</tspan>totypeOf()</text></g><g id="text7022-922" serif:id="text7022-9"></g><g id="text810213" serif:id="text8102"></g><g id="text810214" serif:id="text8102"></g><g id="text810215" serif:id="text8102"></g><g id="text810216" serif:id="text8102"><text x="683.025px" y="92.507px" style="font-family:'Delicious-Heavy', 'Delicious Heavy';font-weight:500;font-size:30px;">...</text></g><g id="text810217" serif:id="text8102"></g><g id="text810218" serif:id="text8102"></g><g id="text810219" serif:id="text8102"></g><g id="text810220" serif:id="text8102"></g><g id="text810221" serif:id="text8102"><text x="780.213px" y="254.201px" style="font-family:'Delicious-Heavy', 'Delicious Heavy';font-weight:500;font-size:30px;">...</text></g><g id="text810222" serif:id="text8102"></g><path id="path6044-5-3-1" d="M851.965,106.731l9.013,4.475l-8.988,4.525c2.244,-2.256 2.231,-6.756 -0.025,-9Z" style="fill:#808080;"/><path d="M788.546,111.408c0,0 46.918,-0.131 65.232,-0.182" style="fill:none;stroke:#808080;stroke-width:3px;"/><text x="862.581px" y="118.933px" style="font-family:'Delicious-Bold', 'Delicious';font-weight:700;font-size:36px;fill:#000080;">null</text><g id="text7018-0-4-7-2-613" serif:id="text7018-0-4-7-2-6"></g><g id="text7018-0-4-7-2-614" serif:id="text7018-0-4-7-2-6"></g><g id="text7018-0-4-7-2-615" serif:id="text7018-0-4-7-2-6"></g><g id="text7018-0-4-7-2-616" serif:id="text7018-0-4-7-2-6"><path id="path7932-2-0-2" d="M682.301,119.881l0,-2.745l-1.35,0l0,-14.467l1.35,0l0,-2.745l-4.32,0l0,19.957l4.32,0Z" style="fill:#808080;fill-rule:nonzero;"/><path id="path7934-7-6-1" d="M687.882,119.881l0,-2.745l-1.35,0l0,-14.467l1.35,0l0,-2.745l-4.32,0l0,19.957l4.32,0Z" style="fill:#808080;fill-rule:nonzero;"/><path id="path7936-2-8-7" d="M699.246,106.854c0,-3.578 -2.7,-4.658 -5.827,-4.658l-3.735,0l0,14.175l3.352,0l0,-4.86c0.338,0.203 0.878,0.315 1.238,0.315c2.722,0 4.972,-2.25 4.972,-4.972Zm-3.352,-0.023c0,1.305 -0.54,2.25 -1.958,2.25c-0.225,0 -0.675,-0.18 -0.9,-0.27l0,-3.802l0.495,0c1.305,0 2.363,0.292 2.363,1.822l0,0Z" style="fill:#808080;fill-rule:nonzero;"/><path id="path7938-2-9-8" d="M706.25,108.541l0.427,-3.195c0,0 -0.517,-0.337 -1.17,-0.337c-0.562,0 -1.53,1.147 -1.53,1.147l0,-0.81l-3.285,0l0,11.025l3.263,0l0,-7.83c0,0 0.315,-0.337 0.877,-0.337c0.63,0 1.418,0.337 1.418,0.337Z" style="fill:#808080;fill-rule:nonzero;"/><path id="path7940-6-2-5" d="M712.021,116.709c3.42,0 4.95,-3.24 4.95,-5.85c0,-2.61 -1.53,-5.85 -4.95,-5.85c-3.42,0 -4.95,3.24 -4.95,5.85c0,2.61 1.53,5.85 4.95,5.85Zm0,-8.978c1.058,0 1.688,1.17 1.688,3.128c0,1.935 -0.63,3.15 -1.688,3.15c-1.057,0 -1.687,-1.193 -1.687,-3.15c0,-1.958 0.63,-3.128 1.687,-3.128Z" style="fill:#808080;fill-rule:nonzero;"/><path id="path7942-1-66-74" d="M722.962,116.529c0.36,-0.113 1.328,-0.518 1.328,-0.518l-0.698,-2.227c0,0 -0.607,0.337 -1.102,0.157c-0.315,-0.09 -0.36,-0.652 -0.36,-0.787l0,-5.22l1.8,0l0,-2.588l-1.845,0l0,-1.98l-3.128,0l0,1.98l-1.057,0l0,2.34l0.967,0.248l0,5.76c0,1.462 0.675,3.015 2.7,3.015c0.585,0 0.99,-0.045 1.395,-0.18l0,0Z" style="fill:#808080;fill-rule:nonzero;"/><path id="path7944-0-4-1" d="M729.907,116.709c3.42,0 4.95,-3.24 4.95,-5.85c0,-2.61 -1.53,-5.85 -4.95,-5.85c-3.42,0 -4.95,3.24 -4.95,5.85c0,2.61 1.53,5.85 4.95,5.85Zm0,-8.978c1.057,0 1.687,1.17 1.687,3.128c0,1.935 -0.63,3.15 -1.687,3.15c-1.058,0 -1.688,-1.193 -1.688,-3.15c0,-1.958 0.63,-3.128 1.688,-3.128Z" style="fill:#808080;fill-rule:nonzero;"/><path id="path7946-6-9-8" d="M740.848,116.529c0.36,-0.113 1.328,-0.518 1.328,-0.518l-0.698,-2.227c0,0 -0.607,0.337 -1.102,0.157c-0.315,-0.09 -0.36,-0.652 -0.36,-0.787l0,-5.22l1.8,0l0,-2.588l-1.845,0l0,-1.98l-3.128,0l0,1.98l-1.057,0l0,2.34l0.967,0.248l0,5.76c0,1.462 0.675,3.015 2.7,3.015c0.585,0 0.99,-0.045 1.395,-0.18l0,0Z" style="fill:#808080;fill-rule:nonzero;"/><path id="path7948-1-5-5" d="M747.613,112.569c-0.135,-2.183 -1.643,-7.223 -1.643,-7.223l-3.465,0l3.375,10.8c-0.652,1.103 -0.765,1.485 -2.52,2.093l0.743,2.385c0,0 1.732,-0.338 2.632,-0.945c2.88,-1.935 4.928,-10.755 5.603,-14.333l-3.353,0c-0.315,2.543 -0.742,4.95 -1.372,7.223Z" style="fill:#808080;fill-rule:nonzero;"/><path id="path7950-5-0-9" d="M758.865,116.709c3.893,0 4.68,-3.713 4.68,-6.233c0,-2.34 -1.282,-5.467 -4.207,-5.467c-1.215,0 -2.34,1.147 -2.34,1.147l0.023,-0.81l-3.285,0l0,14.963l3.285,0l0,-4.388c0,0 0.787,0.788 1.845,0.788l-0.001,0Zm-0.09,-9c1.418,0 1.44,1.957 1.44,2.947c0,0.968 0.045,3.42 -1.44,3.42c-1.62,0 -1.755,-1.777 -1.755,-3.037l0,-2.408c0.495,-0.427 0.833,-0.922 1.755,-0.922Z" style="fill:#808080;fill-rule:nonzero;"/><path id="path7952-9-4-7" d="M774.315,111.151c0,-0.607 -0.023,-1.192 -0.046,-1.8c-0.067,-2.362 -2.002,-4.342 -4.387,-4.342c-3.128,0 -5.265,2.587 -5.265,5.602c0,3.015 1.395,6.12 4.86,6.12c1.372,0 3.082,-0.742 4.162,-1.642l-0.945,-2.025c-0.832,0.607 -2.092,0.967 -3.105,0.967c-1.282,0 -1.71,-1.485 -1.71,-2.52c0,-0.112 0,-0.247 0.023,-0.36l6.413,0Zm-3.06,-2.07l-3.128,0c0.09,-0.787 0.675,-1.912 1.598,-1.912c1.012,0 1.507,1.035 1.53,1.912Z" style="fill:#808080;fill-rule:nonzero;"/><path id="path7954-4-8-5" d="M779.64,119.881l-4.32,0l0,-2.745l1.35,0l0,-14.467l-1.35,0l0,-2.745l4.32,0l0,19.957Z" style="fill:#808080;fill-rule:nonzero;"/><path id="path7956-9-7-3" d="M785.221,119.881l-4.32,0l0,-2.745l1.35,0l0,-14.467l-1.35,0l0,-2.745l4.32,0l0,19.957Z" style="fill:#808080;fill-rule:nonzero;"/></g><g id="text7018-0-4-7-2-617" serif:id="text7018-0-4-7-2-6"></g><g id="text7018-0-4-7-2-618" serif:id="text7018-0-4-7-2-6"></g><g id="text7018-0-4-7-2-619" serif:id="text7018-0-4-7-2-6"></g><g id="text7018-0-4-7-2-620" serif:id="text7018-0-4-7-2-6"></g><g id="text7018-0-4-7-2-621" serif:id="text7018-0-4-7-2-6"><path id="path7932-2-0-21" serif:id="path7932-2-0-2" d="M783.362,283.727l0,-2.745l-1.35,0l0,-14.467l1.35,0l0,-2.745l-4.32,0l0,19.957l4.32,0Z" style="fill:#808080;fill-rule:nonzero;"/><path id="path7934-7-6-11" serif:id="path7934-7-6-1" d="M788.943,283.727l0,-2.745l-1.35,0l0,-14.467l1.35,0l0,-2.745l-4.32,0l0,19.957l4.32,0Z" style="fill:#808080;fill-rule:nonzero;"/><path id="path7936-2-8-71" serif:id="path7936-2-8-7" d="M800.307,270.7c0,-3.578 -2.7,-4.658 -5.827,-4.658l-3.735,0l0,14.175l3.352,0l0,-4.86c0.338,0.203 0.878,0.315 1.238,0.315c2.722,0 4.972,-2.25 4.972,-4.972Zm-3.352,-0.023c0,1.305 -0.54,2.25 -1.958,2.25c-0.225,0 -0.675,-0.18 -0.9,-0.27l0,-3.802l0.495,0c1.305,0 2.363,0.292 2.363,1.822l0,0Z" style="fill:#808080;fill-rule:nonzero;"/><path id="path7938-2-9-81" serif:id="path7938-2-9-8" d="M807.311,272.387l0.427,-3.195c0,0 -0.517,-0.337 -1.17,-0.337c-0.562,0 -1.53,1.147 -1.53,1.147l0,-0.81l-3.285,0l0,11.025l3.263,0l0,-7.83c0,0 0.315,-0.337 0.877,-0.337c0.63,0 1.418,0.337 1.418,0.337Z" style="fill:#808080;fill-rule:nonzero;"/><path id="path7940-6-2-51" serif:id="path7940-6-2-5" d="M813.082,280.555c3.42,0 4.95,-3.24 4.95,-5.85c0,-2.61 -1.53,-5.85 -4.95,-5.85c-3.42,0 -4.95,3.24 -4.95,5.85c0,2.61 1.53,5.85 4.95,5.85Zm0,-8.978c1.058,0 1.688,1.17 1.688,3.128c0,1.935 -0.63,3.15 -1.688,3.15c-1.057,0 -1.687,-1.193 -1.687,-3.15c0,-1.958 0.63,-3.128 1.687,-3.128Z" style="fill:#808080;fill-rule:nonzero;"/><path id="path7942-1-66-741" serif:id="path7942-1-66-74" d="M824.023,280.375c0.36,-0.113 1.328,-0.518 1.328,-0.518l-0.698,-2.227c0,0 -0.607,0.337 -1.102,0.157c-0.315,-0.09 -0.36,-0.652 -0.36,-0.787l0,-5.22l1.8,0l0,-2.588l-1.845,0l0,-1.98l-3.128,0l0,1.98l-1.057,0l0,2.34l0.967,0.248l0,5.76c0,1.462 0.675,3.015 2.7,3.015c0.585,0 0.99,-0.045 1.395,-0.18l0,0Z" style="fill:#808080;fill-rule:nonzero;"/><path id="path7944-0-4-11" serif:id="path7944-0-4-1" d="M830.968,280.555c3.42,0 4.95,-3.24 4.95,-5.85c0,-2.61 -1.53,-5.85 -4.95,-5.85c-3.42,0 -4.95,3.24 -4.95,5.85c0,2.61 1.53,5.85 4.95,5.85Zm0,-8.978c1.057,0 1.687,1.17 1.687,3.128c0,1.935 -0.63,3.15 -1.687,3.15c-1.058,0 -1.688,-1.193 -1.688,-3.15c0,-1.958 0.63,-3.128 1.688,-3.128Z" style="fill:#808080;fill-rule:nonzero;"/><path id="path7946-6-9-81" serif:id="path7946-6-9-8" d="M841.909,280.375c0.36,-0.113 1.328,-0.518 1.328,-0.518l-0.698,-2.227c0,0 -0.607,0.337 -1.102,0.157c-0.315,-0.09 -0.36,-0.652 -0.36,-0.787l0,-5.22l1.8,0l0,-2.588l-1.845,0l0,-1.98l-3.128,0l0,1.98l-1.057,0l0,2.34l0.967,0.248l0,5.76c0,1.462 0.675,3.015 2.7,3.015c0.585,0 0.99,-0.045 1.395,-0.18l0,0Z" style="fill:#808080;fill-rule:nonzero;"/><path id="path7948-1-5-51" serif:id="path7948-1-5-5" d="M848.674,276.415c-0.135,-2.183 -1.643,-7.223 -1.643,-7.223l-3.465,0l3.375,10.8c-0.652,1.103 -0.765,1.485 -2.52,2.093l0.743,2.385c0,0 1.732,-0.338 2.632,-0.945c2.88,-1.935 4.928,-10.755 5.603,-14.333l-3.353,0c-0.315,2.543 -0.742,4.95 -1.372,7.223Z" style="fill:#808080;fill-rule:nonzero;"/><path id="path7950-5-0-91" serif:id="path7950-5-0-9" d="M859.926,280.555c3.893,0 4.68,-3.713 4.68,-6.233c0,-2.34 -1.282,-5.467 -4.207,-5.467c-1.215,0 -2.34,1.147 -2.34,1.147l0.023,-0.81l-3.285,0l0,14.963l3.285,0l0,-4.388c0,0 0.787,0.788 1.845,0.788l-0.001,0Zm-0.09,-9c1.418,0 1.44,1.957 1.44,2.947c0,0.968 0.045,3.42 -1.44,3.42c-1.62,0 -1.755,-1.777 -1.755,-3.037l0,-2.408c0.495,-0.427 0.833,-0.922 1.755,-0.922Z" style="fill:#808080;fill-rule:nonzero;"/><path id="path7952-9-4-71" serif:id="path7952-9-4-7" d="M875.375,274.997c0,-0.607 -0.022,-1.192 -0.045,-1.8c-0.067,-2.362 -2.002,-4.342 -4.387,-4.342c-3.128,0 -5.265,2.587 -5.265,5.602c0,3.015 1.395,6.12 4.86,6.12c1.372,0 3.082,-0.742 4.162,-1.642l-0.945,-2.025c-0.832,0.607 -2.092,0.967 -3.105,0.967c-1.282,0 -1.71,-1.485 -1.71,-2.52c0,-0.112 0,-0.247 0.023,-0.36l6.412,0Zm-3.06,-2.07l-3.127,0c0.09,-0.787 0.675,-1.912 1.597,-1.912c1.013,0 1.508,1.035 1.53,1.912Z" style="fill:#808080;fill-rule:nonzero;"/><path id="path7954-4-8-51" serif:id="path7954-4-8-5" d="M880.701,283.727l-4.32,0l0,-2.745l1.35,0l0,-14.467l-1.35,0l0,-2.745l4.32,0l0,19.957Z" style="fill:#808080;fill-rule:nonzero;"/><path id="path7956-9-7-31" serif:id="path7956-9-7-3" d="M886.282,283.727l-4.32,0l0,-2.745l1.35,0l0,-14.467l-1.35,0l0,-2.745l4.32,0l0,19.957Z" style="fill:#808080;fill-rule:nonzero;"/></g><g id="text7018-0-4-7-2-622" serif:id="text7018-0-4-7-2-6"></g><g id="text6007-6-1-619" serif:id="text6007-6-1-6"></g><g id="text6007-6-1-620" serif:id="text6007-6-1-6"></g><g id="text6007-6-1-621" serif:id="text6007-6-1-6"></g><g id="text6007-6-1-622" serif:id="text6007-6-1-6"><text x="682.692px" y="80.202px" style="font-family:'Delicious-Heavy', 'Delicious Heavy';font-weight:500;font-size:22.5px;">constructor</text></g><g id="text6007-6-1-623" serif:id="text6007-6-1-6"></g><g id="text6007-6-1-624" serif:id="text6007-6-1-6"></g><rect id="rect6003-9-3-0" x="462.146" y="87.392" width="123.595" height="125.718" style="fill:#fff287;stroke:#000;stroke-width:3px;"/><g id="text4795-1-69" serif:id="text4795-1-6"></g><g id="text4795-1-610" serif:id="text4795-1-6"></g><g id="text4795-1-611" serif:id="text4795-1-6"></g><g id="text4795-1-612" serif:id="text4795-1-6"><text x="438.831px" y="78.308px" style="font-family:'Delicious-Heavy', 'Delicious Heavy';font-weight:500;font-size:22.5px;">Function.pr<tspan x="540.103px " y="78.308px ">o</tspan>totype</text></g><g id="text4795-1-613" serif:id="text4795-1-6"></g><g id="text7022-9-29" serif:id="text7022-9-2"></g><g id="text7022-9-210" serif:id="text7022-9-2"></g><g id="text7022-9-211" serif:id="text7022-9-2"></g><g id="text7022-9-212" serif:id="text7022-9-2"><text x="469.827px" y="111.077px" style="font-family:'Delicious-Heavy', 'Delicious Heavy';font-weight:500;font-size:22.5px;">call()</text></g><g id="text7022-9-213" serif:id="text7022-9-2"></g><g id="text7018-0-4-7-69" serif:id="text7018-0-4-7-6"></g><g id="text7018-0-4-7-610" serif:id="text7018-0-4-7-6"></g><g id="text7018-0-4-7-611" serif:id="text7018-0-4-7-6"></g><g id="text7018-0-4-7-612" serif:id="text7018-0-4-7-6"><path id="path7932-2-1" d="M475.186,204.236l0,-2.745l-1.35,0l0,-14.468l1.35,0l0,-2.745l-4.32,0l0,19.958l4.32,0Z" style="fill:#808080;fill-rule:nonzero;"/><path id="path7934-7-5" d="M480.767,204.236l0,-2.745l-1.35,0l0,-14.468l1.35,0l0,-2.745l-4.32,0l0,19.958l4.32,0Z" style="fill:#808080;fill-rule:nonzero;"/><path id="path7936-2-5" d="M492.131,191.208c0,-3.577 -2.7,-4.657 -5.828,-4.657l-3.735,0l0,14.175l3.353,0l0,-4.86c0.337,0.202 0.877,0.315 1.237,0.315c2.723,0 4.973,-2.25 4.973,-4.973Zm-3.353,-0.023c0,1.305 -0.54,2.25 -1.957,2.25c-0.226,0 -0.676,-0.18 -0.9,-0.269l0,-3.803l0.494,0c1.306,0 2.363,0.293 2.363,1.823l0,-0.001Z" style="fill:#808080;fill-rule:nonzero;"/><path id="path7938-2-4" d="M499.134,192.896l0.428,-3.195c0,0 -0.518,-0.338 -1.17,-0.338c-0.563,0 -1.53,1.148 -1.53,1.148l0,-0.81l-3.285,0l0,11.025l3.262,0l0,-7.83c0,0 0.315,-0.338 0.878,-0.338c0.63,0 1.417,0.338 1.417,0.338Z" style="fill:#808080;fill-rule:nonzero;"/><path id="path7940-6-7" d="M504.906,201.063c3.42,0 4.95,-3.24 4.95,-5.85c0,-2.61 -1.53,-5.85 -4.95,-5.85c-3.42,0 -4.95,3.24 -4.95,5.85c0,2.61 1.53,5.85 4.95,5.85Zm0,-8.977c1.057,0 1.687,1.17 1.687,3.127c0,1.935 -0.63,3.15 -1.687,3.15c-1.058,0 -1.688,-1.192 -1.688,-3.15c0,-1.957 0.63,-3.127 1.688,-3.127Z" style="fill:#808080;fill-rule:nonzero;"/><path id="path7942-1-6" d="M515.847,200.883c0.36,-0.112 1.327,-0.517 1.327,-0.517l-0.697,-2.228c0,0 -0.608,0.338 -1.103,0.158c-0.315,-0.09 -0.36,-0.653 -0.36,-0.788l0,-5.22l1.8,0l0,-2.587l-1.845,0l0,-1.98l-3.127,0l0,1.98l-1.058,0l0,2.34l0.968,0.247l0,5.76c0,1.463 0.675,3.015 2.7,3.015c0.585,0 0.99,-0.045 1.395,-0.18l0,0Z" style="fill:#808080;fill-rule:nonzero;"/><path id="path7944-0-5" d="M522.791,201.063c3.42,0 4.95,-3.24 4.95,-5.85c0,-2.61 -1.53,-5.85 -4.95,-5.85c-3.42,0 -4.95,3.24 -4.95,5.85c0,2.61 1.53,5.85 4.95,5.85Zm0,-8.977c1.058,0 1.688,1.17 1.688,3.127c0,1.935 -0.63,3.15 -1.688,3.15c-1.057,0 -1.687,-1.192 -1.687,-3.15c0,-1.957 0.63,-3.127 1.687,-3.127Z" style="fill:#808080;fill-rule:nonzero;"/><path id="path7946-6-6" d="M533.733,200.883c0.36,-0.112 1.327,-0.517 1.327,-0.517l-0.697,-2.228c0,0 -0.608,0.338 -1.103,0.158c-0.315,-0.09 -0.36,-0.653 -0.36,-0.788l0,-5.22l1.8,0l0,-2.587l-1.845,0l0,-1.98l-3.127,0l0,1.98l-1.058,0l0,2.34l0.968,0.247l0,5.76c0,1.463 0.675,3.015 2.7,3.015c0.585,0 0.99,-0.045 1.395,-0.18l0,0Z" style="fill:#808080;fill-rule:nonzero;"/><path id="path7948-1-9" d="M540.497,196.923c-0.135,-2.182 -1.642,-7.222 -1.642,-7.222l-3.465,0l3.375,10.8c-0.653,1.102 -0.765,1.485 -2.52,2.092l0.742,2.385c0,0 1.733,-0.337 2.633,-0.945c2.88,-1.935 4.927,-10.755 5.602,-14.332l-3.352,0c-0.315,2.542 -0.743,4.95 -1.373,7.222Z" style="fill:#808080;fill-rule:nonzero;"/><path id="path7950-5-3" d="M551.75,201.063c3.892,0 4.68,-3.712 4.68,-6.232c0,-2.34 -1.283,-5.468 -4.208,-5.468c-1.215,0 -2.34,1.148 -2.34,1.148l0.023,-0.81l-3.285,0l0,14.962l3.285,0l0,-4.387c0,0 0.788,0.787 1.845,0.787l0,0Zm-0.09,-9c1.417,0 1.44,1.958 1.44,2.948c0,0.967 0.045,3.42 -1.44,3.42c-1.62,0 -1.755,-1.778 -1.755,-3.038l0,-2.407c0.495,-0.428 0.832,-0.923 1.755,-0.923Z" style="fill:#808080;fill-rule:nonzero;"/><path id="path7952-9-7" d="M567.199,195.506c0,-0.608 -0.023,-1.193 -0.045,-1.8c-0.068,-2.363 -2.003,-4.343 -4.388,-4.343c-3.127,0 -5.265,2.588 -5.265,5.603c0,3.015 1.395,6.12 4.86,6.12c1.373,0 3.083,-0.743 4.163,-1.643l-0.945,-2.025c-0.833,0.608 -2.093,0.968 -3.105,0.968c-1.283,0 -1.71,-1.485 -1.71,-2.52c0,-0.113 0,-0.248 0.023,-0.36l6.412,0Zm-3.06,-2.07l-3.128,0c0.091,-0.788 0.675,-1.913 1.598,-1.913c1.012,0 1.507,1.035 1.53,1.913Z" style="fill:#808080;fill-rule:nonzero;"/><path id="path7954-4-4" d="M572.525,204.236l-4.32,0l0,-2.745l1.35,0l0,-14.468l-1.35,0l0,-2.745l4.32,0l0,19.958Z" style="fill:#808080;fill-rule:nonzero;"/><path id="path7956-9-5" d="M578.106,204.236l-4.32,0l0,-2.745l1.35,0l0,-14.468l-1.35,0l0,-2.745l4.32,0l0,19.958Z" style="fill:#808080;fill-rule:nonzero;"/></g><g id="text7018-0-4-7-613" serif:id="text7018-0-4-7-6"></g><g id="text8102-59" serif:id="text8102-5"></g><g id="text8102-510" serif:id="text8102-5"></g><g id="text8102-511" serif:id="text8102-5"></g><g id="text8102-512" serif:id="text8102-5"><text x="471.025px" y="174.796px" style="font-family:'Delicious-Heavy', 'Delicious Heavy';font-weight:500;font-size:30px;">...</text></g><g id="text8102-513" serif:id="text8102-5"></g><g id="text7022-9-2-69" serif:id="text7022-9-2-6"></g><g id="text7022-9-2-610" serif:id="text7022-9-2-6"></g><g id="text7022-9-2-611" serif:id="text7022-9-2-6"></g><g id="text7022-9-2-612" serif:id="text7022-9-2-6"><text x="469.939px" y="136.556px" style="font-family:'Delicious-Heavy', 'Delicious Heavy';font-weight:500;font-size:22.5px;">toString()</text></g><g id="text7022-9-2-613" serif:id="text7022-9-2-6"></g><g id="text479559" serif:id="text4795"></g><g id="text479560" serif:id="text4795"></g><g id="text479561" serif:id="text4795"></g><g id="text479562" serif:id="text4795"></g><g id="text701850" serif:id="text7018"></g><g id="text701851" serif:id="text7018"></g><g id="text701852" serif:id="text7018"></g><g id="text701853" serif:id="text7018"></g><rect id="rect6003-9-3-01" serif:id="rect6003-9-3-0" x="549.384" y="279.037" width="123.595" height="79.533" style="fill:#fff287;stroke:#000;stroke-width:3px;"/><g id="text4795-1-614" serif:id="text4795-1-6"></g><g id="text4795-1-615" serif:id="text4795-1-6"></g><g id="text4795-1-616" serif:id="text4795-1-6"></g><g id="text4795-1-617" serif:id="text4795-1-6"><text x="573.522px" y="270.238px" style="font-family:'Delicious-Heavy', 'Delicious Heavy';font-weight:500;font-size:22.5px;">Function()</text></g><g id="text4795-1-618" serif:id="text4795-1-6"></g><g id="text7018-0-4-7-614" serif:id="text7018-0-4-7-6"></g><g id="text7018-0-4-7-615" serif:id="text7018-0-4-7-6"></g><g id="text7018-0-4-7-616" serif:id="text7018-0-4-7-6"></g><g id="text7018-0-4-7-617" serif:id="text7018-0-4-7-6"><path id="path7932-2-11" serif:id="path7932-2-1" d="M563.311,349.463l0,-2.745l-1.35,0l0,-14.467l1.35,0l0,-2.745l-4.32,0l0,19.957l4.32,0Z" style="fill:#808080;fill-rule:nonzero;"/><path id="path7934-7-51" serif:id="path7934-7-5" d="M568.892,349.463l0,-2.745l-1.35,0l0,-14.467l1.35,0l0,-2.745l-4.32,0l0,19.957l4.32,0Z" style="fill:#808080;fill-rule:nonzero;"/><path id="path7936-2-51" serif:id="path7936-2-5" d="M580.256,336.436c0,-3.578 -2.7,-4.658 -5.828,-4.658l-3.735,0l0,14.175l3.353,0l0,-4.86c0.337,0.203 0.877,0.315 1.237,0.315c2.723,0 4.973,-2.25 4.973,-4.972Zm-3.353,-0.023c0,1.305 -0.54,2.25 -1.957,2.25c-0.225,0 -0.675,-0.18 -0.9,-0.27l0,-3.802l0.495,0c1.305,0 2.362,0.292 2.362,1.822l0,0Z" style="fill:#808080;fill-rule:nonzero;"/><path id="path7938-2-41" serif:id="path7938-2-4" d="M587.26,338.123l0.427,-3.195c0,0 -0.517,-0.337 -1.17,-0.337c-0.562,0 -1.53,1.147 -1.53,1.147l0,-0.81l-3.285,0l0,11.025l3.263,0l0,-7.83c0,0 0.315,-0.337 0.877,-0.337c0.63,0 1.418,0.337 1.418,0.337Z" style="fill:#808080;fill-rule:nonzero;"/><path id="path7940-6-71" serif:id="path7940-6-7" d="M593.031,346.291c3.42,0 4.95,-3.24 4.95,-5.85c0,-2.61 -1.53,-5.85 -4.95,-5.85c-3.42,0 -4.95,3.24 -4.95,5.85c0,2.61 1.53,5.85 4.95,5.85Zm0,-8.978c1.057,0 1.687,1.17 1.687,3.128c0,1.935 -0.63,3.15 -1.687,3.15c-1.058,0 -1.688,-1.193 -1.688,-3.15c0,-1.958 0.63,-3.128 1.688,-3.128Z" style="fill:#808080;fill-rule:nonzero;"/><path id="path7942-1-61" serif:id="path7942-1-6" d="M603.972,346.111c0.36,-0.113 1.328,-0.518 1.328,-0.518l-0.698,-2.227c0,0 -0.607,0.337 -1.102,0.157c-0.315,-0.09 -0.36,-0.652 -0.36,-0.787l0,-5.22l1.8,0l0,-2.588l-1.845,0l0,-1.98l-3.128,0l0,1.98l-1.057,0l0,2.34l0.967,0.248l0,5.76c0,1.462 0.675,3.015 2.7,3.015c0.585,0 0.99,-0.045 1.395,-0.18l0,0Z" style="fill:#808080;fill-rule:nonzero;"/><path id="path7944-0-51" serif:id="path7944-0-5" d="M610.917,346.291c3.42,0 4.95,-3.24 4.95,-5.85c0,-2.61 -1.53,-5.85 -4.95,-5.85c-3.42,0 -4.95,3.24 -4.95,5.85c0,2.61 1.53,5.85 4.95,5.85Zm0,-8.978c1.057,0 1.687,1.17 1.687,3.128c0,1.935 -0.63,3.15 -1.687,3.15c-1.058,0 -1.688,-1.193 -1.688,-3.15c0,-1.958 0.63,-3.128 1.688,-3.128Z" style="fill:#808080;fill-rule:nonzero;"/><path id="path7946-6-61" serif:id="path7946-6-6" d="M621.858,346.111c0.36,-0.113 1.327,-0.518 1.327,-0.518l-0.697,-2.227c0,0 -0.608,0.337 -1.103,0.157c-0.315,-0.09 -0.36,-0.652 -0.36,-0.787l0,-5.22l1.8,0l0,-2.588l-1.845,0l0,-1.98l-3.127,0l0,1.98l-1.058,0l0,2.34l0.968,0.248l0,5.76c0,1.462 0.675,3.015 2.7,3.015c0.585,0 0.99,-0.045 1.395,-0.18l0,0Z" style="fill:#808080;fill-rule:nonzero;"/><path id="path7948-1-91" serif:id="path7948-1-9" d="M628.622,342.151c-0.135,-2.183 -1.642,-7.223 -1.642,-7.223l-3.465,0l3.375,10.8c-0.653,1.103 -0.765,1.485 -2.52,2.093l0.742,2.385c0,0 1.733,-0.338 2.633,-0.945c2.88,-1.935 4.927,-10.755 5.602,-14.333l-3.352,0c-0.315,2.543 -0.743,4.95 -1.373,7.223Z" style="fill:#808080;fill-rule:nonzero;"/><path id="path7950-5-31" serif:id="path7950-5-3" d="M639.875,346.291c3.893,0 4.68,-3.713 4.68,-6.233c0,-2.34 -1.282,-5.467 -4.207,-5.467c-1.215,0 -2.34,1.147 -2.34,1.147l0.022,-0.81l-3.285,0l0,14.963l3.285,0l0,-4.388c0,0 0.788,0.788 1.845,0.788l0,0Zm-0.09,-9c1.417,0 1.44,1.957 1.44,2.947c0,0.968 0.045,3.42 -1.44,3.42c-1.62,0 -1.755,-1.777 -1.755,-3.037l0,-2.408c0.495,-0.427 0.832,-0.922 1.755,-0.922Z" style="fill:#808080;fill-rule:nonzero;"/><path id="path7952-9-71" serif:id="path7952-9-7" d="M655.324,340.733c0,-0.607 -0.023,-1.192 -0.045,-1.8c-0.067,-2.362 -2.002,-4.342 -4.387,-4.342c-3.128,0 -5.265,2.587 -5.265,5.602c0,3.015 1.395,6.12 4.86,6.12c1.372,0 3.082,-0.742 4.162,-1.642l-0.945,-2.025c-0.832,0.607 -2.092,0.967 -3.105,0.967c-1.282,0 -1.71,-1.485 -1.71,-2.52c0,-0.112 0,-0.247 0.023,-0.36l6.412,0Zm-3.06,-2.07l-3.127,0c0.09,-0.787 0.675,-1.912 1.597,-1.912c1.013,0 1.508,1.035 1.53,1.912Z" style="fill:#808080;fill-rule:nonzero;"/><path id="path7954-4-41" serif:id="path7954-4-4" d="M660.65,349.463l-4.32,0l0,-2.745l1.35,0l0,-14.467l-1.35,0l0,-2.745l4.32,0l0,19.957Z" style="fill:#808080;fill-rule:nonzero;"/><path id="path7956-9-51" serif:id="path7956-9-5" d="M666.231,349.463l-4.32,0l0,-2.745l1.35,0l0,-14.467l-1.35,0l0,-2.745l4.32,0l0,19.957Z" style="fill:#808080;fill-rule:nonzero;"/></g><g id="text7018-0-4-7-618" serif:id="text7018-0-4-7-6"></g><g id="text8102-514" serif:id="text8102-5"></g><g id="text8102-515" serif:id="text8102-5"></g><g id="text8102-516" serif:id="text8102-5"></g><g id="text8102-517" serif:id="text8102-5"><text x="557.819px" y="319.297px" style="font-family:'Delicious-Heavy', 'Delicious Heavy';font-weight:500;font-size:30px;">...</text></g><g id="text8102-518" serif:id="text8102-5"></g><g id="text6007-6-1-625" serif:id="text6007-6-1-6"></g><g id="text6007-6-1-626" serif:id="text6007-6-1-6"></g><g id="text6007-6-1-627" serif:id="text6007-6-1-6"></g><g id="text6007-6-1-628" serif:id="text6007-6-1-6"><text x="555.534px" y="304.709px" style="font-family:'Delicious-Heavy', 'Delicious Heavy';font-weight:500;font-size:22.5px;">pr<tspan x="574.209px " y="304.709px ">o</tspan>totype</text></g><g id="text6007-6-1-629" serif:id="text6007-6-1-6"></g><g id="text7022-923" serif:id="text7022-9"></g><g id="text7022-924" serif:id="text7022-9"></g><g id="text7022-925" serif:id="text7022-9"></g><g id="text7022-926" serif:id="text7022-9"><text x="778.691px" y="237.009px" style="font-family:'Delicious-Heavy', 'Delicious Heavy';font-weight:500;font-size:22.5px;">pr<tspan x="797.366px " y="237.009px ">o</tspan>totype</text></g><g id="text7022-927" serif:id="text7022-9"></g><g id="text6007-6-115" serif:id="text6007-6-1"></g><g id="text6007-6-116" serif:id="text6007-6-1"></g><g id="text7018-0-920" serif:id="text7018-0-9"></g><g id="text7018-0-921" serif:id="text7018-0-9"></g><g id="text6007-6-1-630" serif:id="text6007-6-1-6"></g><g id="text6007-6-1-631" serif:id="text6007-6-1-6"></g><g><g><g id="text4795-1-619" serif:id="text4795-1-6"></g></g></g><g><g><g id="text4795-1-620" serif:id="text4795-1-6"></g></g></g><g><g><g id="text4795-1-621" serif:id="text4795-1-6"></g></g></g><g><g><g id="text4795-1-622" serif:id="text4795-1-6"></g></g></g><path id="path3964-2-2" d="M827.074,147.377l-4.963,9.507l-4.628,-9.675c2.356,2.44 7.151,2.523 9.591,0.168Z" style="fill-rule:nonzero;"/><path d="M786.076,75.453c27.327,-0.098 36.859,12.674 36.169,73.758" style="fill:none;fill-rule:nonzero;stroke:#000;stroke-width:3.2px;"/><path id="path3964-2-21" serif:id="path3964-2-2" d="M630.733,239.485l-4.889,9.545l-4.703,-9.638c2.375,2.421 7.171,2.467 9.592,0.093Z" style="fill-rule:nonzero;"/><path d="M576.274,154.063c27.335,-0.098 49.374,25.192 49.644,87.294" style="fill:none;fill-rule:nonzero;stroke:#000;stroke-width:3.2px;"/><path id="path3964-2-22" serif:id="path3964-2-2" d="M398.978,180.259l-4.922,9.529l-4.669,-9.655c2.366,2.429 7.162,2.493 9.591,0.126Z" style="fill:#d45500;fill-rule:nonzero;"/><path d="M326.385,85.735c55.308,1.398 68.485,13.491 67.772,96.379" style="fill:none;fill-rule:nonzero;stroke:#d45500;stroke-width:3.2px;"/><path id="path3964-2-23" serif:id="path3964-2-2" d="M513.639,225.214l4.623,-9.677l4.968,9.504c-2.441,-2.354 -7.237,-2.268 -9.591,0.173Z" style="fill-rule:nonzero;"/><path d="M554.279,301.133c-37.444,0.887 -35.218,-31.037 -35.879,-77.923" style="fill:none;fill-rule:nonzero;stroke:#000;stroke-width:3.2px;"/><path id="path3964-2-24" serif:id="path3964-2-2" d="M471.154,225.848l5.586,-9.155l3.972,9.962c-2.188,-2.591 -6.967,-2.995 -9.558,-0.807Z" style="fill:#808080;fill-rule:nonzero;"/><path d="M404.078,247.953c36.501,0.865 67.214,5.163 72.016,-23.613" style="fill:none;fill-rule:nonzero;stroke:#808080;stroke-width:3.2px;"/><path id="path3964-2-25" serif:id="path3964-2-2" d="M207.246,102.255l9.66,4.66l-9.524,4.931c2.364,-2.432 2.296,-7.227 -0.136,-9.591Z" style="fill:#808080;fill-rule:nonzero;"/><path d="M156.485,107.768c0,0 36.479,-0.515 52.747,-0.745" style="fill:none;fill-rule:nonzero;stroke:#808080;stroke-width:3.2px;"/><path id="path3964-2-26" serif:id="path3964-2-2" d="M256.567,145.81l4.648,-9.665l4.943,9.518c-2.435,-2.361 -7.23,-2.287 -9.591,0.147Z" style="fill:#d55f0f;fill-rule:nonzero;"/><path d="M293.327,224.344c-36.209,-0.965 -31.574,-33.572 -31.994,-80.526" style="fill:none;fill-rule:nonzero;stroke:#d55f0f;stroke-width:3.2px;"/><path id="path3964-2-27" serif:id="path3964-2-2" d="M492.746,223.098l4.692,-9.644l4.899,9.54c-2.423,-2.372 -7.219,-2.32 -9.591,0.104Z" style="fill:#808080;fill-rule:nonzero;"/><path d="M556.361,340.178c-66.714,-4.061 -58.791,-68.817 -58.84,-119.05" style="fill:none;fill-rule:nonzero;stroke:#808080;stroke-width:3.2px;"/><path id="path3964-2-28" serif:id="path3964-2-2" d="M736.965,141.391l4.635,-9.671l4.956,9.511c-2.438,-2.358 -7.234,-2.278 -9.591,0.16Z" style="fill-rule:nonzero;"/><path d="M776.575,235.016c-37.477,0.889 -34.274,-47.067 -34.847,-95.623" style="fill:none;fill-rule:nonzero;stroke:#000;stroke-width:3.2px;"/><path id="path6044-5-3-11" serif:id="path6044-5-3-1" d="M660.968,98.102l8.767,4.939l-9.211,4.05c2.358,-2.136 2.581,-6.63 0.444,-8.989Z" style="fill:#808080;"/><path d="M580.542,195.008c0,0 23.088,0.134 24.468,-18.959c2.342,-32.41 -1.996,-74.715 57.534,-73.363" style="fill:none;stroke:#808080;stroke-width:3px;"/><path id="path6044-5-3-12" serif:id="path6044-5-3-1" d="M600.16,211.228l-8.789,-4.899l9.193,-4.092c-2.349,2.147 -2.551,6.643 -0.404,8.991Z" style="fill:#808080;"/><path d="M777.187,275.805c-80.075,1.859 -77.275,-63.101 -178.623,-69.153" style="fill:none;stroke:#808080;stroke-width:3px;"/><g id="text6007-6-1-632" serif:id="text6007-6-1-6"></g><g id="text6007-6-1-633" serif:id="text6007-6-1-6"></g><g id="text6007-6-1-634" serif:id="text6007-6-1-6"></g><g id="text6007-6-1-635" serif:id="text6007-6-1-6"><text x="470.154px" y="159.428px" style="font-family:'Delicious-Heavy', 'Delicious Heavy';font-weight:500;font-size:22.5px;">constructor</text></g><g id="text6007-6-1-636" serif:id="text6007-6-1-6"></g><g id="text7022-9-214" serif:id="text7022-9-2"></g><g id="text7022-9-215" serif:id="text7022-9-2"></g><g id="text7022-9-216" serif:id="text7022-9-2"></g><g id="text7022-9-217" serif:id="text7022-9-2"></g><g id="text7022-9-218" serif:id="text7022-9-2"></g><g id="text7022-9-219" serif:id="text7022-9-2"></g><g id="text7022-9-220" serif:id="text7022-9-2"></g><g id="text7022-9-221" serif:id="text7022-9-2"></g><g id="text7022-9-222" serif:id="text7022-9-2"></g><path id="path6044-5-3-13" serif:id="path6044-5-3-1" d="M660.847,43.957l8.808,4.866l-9.177,4.127c2.34,-2.156 2.525,-6.652 0.369,-8.993Z" style="fill:#808080;"/><path d="M336.085,110.475c42.379,4.337 46.153,-54.089 78.575,-60.082c49.29,-9.11 211.615,-3.301 247.801,-1.866" style="fill:none;stroke:#808080;stroke-width:3px;"/></g></svg>