<?xml version="1.0" encoding="UTF-8" standalone="no"?><!DOCTYPE svg PUBLIC "-//W3C//DTD SVG 1.1//EN" "http://www.w3.org/Graphics/SVG/1.1/DTD/svg11.dtd"><svg width="790px" height="580px" version="1.1" xmlns="http://www.w3.org/2000/svg" xmlns:xlink="http://www.w3.org/1999/xlink" xml:space="preserve" xmlns:serif="http://www.serif.com/" style="fill-rule:evenodd;clip-rule:evenodd;"><g id="Layer-1" serif:id="Layer 1"><g id="text6007"></g><g id="text60071" serif:id="text6007"></g><g id="text60072" serif:id="text6007"></g><g id="text60073" serif:id="text6007"></g><g id="text7018"></g><g id="text70181" serif:id="text7018"></g><g id="text70182" serif:id="text7018"></g><g id="text70183" serif:id="text7018"></g><g id="text4795"></g><g id="text47951" serif:id="text4795"></g><g id="text47952" serif:id="text4795"></g><g id="text47953" serif:id="text4795"></g><g id="text47954" serif:id="text4795"></g><g id="text47955" serif:id="text4795"></g><g id="text47956" serif:id="text4795"></g><g id="text47957" serif:id="text4795"></g><g id="text47958" serif:id="text4795"></g><g id="text47959" serif:id="text4795"></g><g id="text479510" serif:id="text4795"></g><g id="text479511" serif:id="text4795"></g><g id="text479512" serif:id="text4795"></g><g id="text479513" serif:id="text4795"></g><g id="text479514" serif:id="text4795"></g><g id="text479515" serif:id="text4795"></g><g id="text479516" serif:id="text4795"></g><g id="text1254"></g><g id="text1620"></g><g id="text4795-1"></g><g id="text4795-11" serif:id="text4795-1"></g><g id="text4795-12" serif:id="text4795-1"></g><g id="text7022-9"></g><g id="text7022-91" serif:id="text7022-9"></g><g id="text7022-92" serif:id="text7022-9"></g><g id="text8102"></g><g id="text81021" serif:id="text8102"></g><g id="text81022" serif:id="text8102"></g><g id="text70184" serif:id="text7018"></g><g id="text70185" serif:id="text7018"></g><g id="text70186" serif:id="text7018"></g><g id="text70187" serif:id="text7018"></g><g id="text7018-0-4-7-2-6"></g><g id="text7018-0-4-7-2-61" serif:id="text7018-0-4-7-2-6"></g><g id="text7018-0-4-7-2-62" serif:id="text7018-0-4-7-2-6"></g><g id="text4795-13" serif:id="text4795-1"></g><g id="text7022-93" serif:id="text7022-9"></g><g id="text81023" serif:id="text8102"></g><g id="text7018-0-4-7-2-63" serif:id="text7018-0-4-7-2-6"></g><g id="text4795-14" serif:id="text4795-1"></g><g id="text4795-15" serif:id="text4795-1"></g><g id="text7022-94" serif:id="text7022-9"></g><g id="text7022-95" serif:id="text7022-9"></g><g id="text81024" serif:id="text8102"></g><g id="text81025" serif:id="text8102"></g><g id="text7018-0-4-7-2-64" serif:id="text7018-0-4-7-2-6"></g><g id="text7018-0-4-7-2-65" serif:id="text7018-0-4-7-2-6"></g><g><g id="text4795-16" serif:id="text4795-1"></g><g id="text7022-96" serif:id="text7022-9"></g><g id="text81026" serif:id="text8102"></g><g id="text7018-0-4-7-2-66" serif:id="text7018-0-4-7-2-6"></g></g><g id="text4795-17" serif:id="text4795-1"></g><g id="text4795-18" serif:id="text4795-1"></g><g id="text4795-19" serif:id="text4795-1"></g><g id="text7022-97" serif:id="text7022-9"></g><g id="text7022-98" serif:id="text7022-9"></g><g id="text7022-99" serif:id="text7022-9"></g><g id="text81027" serif:id="text8102"></g><g id="text81028" serif:id="text8102"></g><g id="text81029" serif:id="text8102"></g><g id="text7018-0-4-7-2-67" serif:id="text7018-0-4-7-2-6"></g><g id="text7018-0-4-7-2-68" serif:id="text7018-0-4-7-2-6"></g><g id="text7018-0-4-7-2-69" serif:id="text7018-0-4-7-2-6"></g><g id="text4795-110" serif:id="text4795-1"></g><g id="text4795-111" serif:id="text4795-1"></g><g id="text4795-112" serif:id="text4795-1"></g><g id="text7022-910" serif:id="text7022-9"></g><g id="text810210" serif:id="text8102"></g><g id="text7018-0-4-7-2-610" serif:id="text7018-0-4-7-2-6"></g><g id="text4795-113" serif:id="text4795-1"></g><g id="text7022-911" serif:id="text7022-9"></g><g id="text810211" serif:id="text8102"></g><g id="text7018-0-4-7-2-611" serif:id="text7018-0-4-7-2-6"></g><g id="text4795-114" serif:id="text4795-1"></g><g id="text7022-912" serif:id="text7022-9"></g><g id="text810212" serif:id="text8102"></g><g id="text7018-0-4-7-2-612" serif:id="text7018-0-4-7-2-6"></g><g><g id="text479517" serif:id="text4795"></g><g id="text70188" serif:id="text7018"></g></g><g id="text479518" serif:id="text4795"></g><g id="text479519" serif:id="text4795"></g><g id="text479520" serif:id="text4795"></g><g id="text479521" serif:id="text4795"></g><g id="text479522" serif:id="text4795"></g><g id="text479523" serif:id="text4795"></g><g id="text479524" serif:id="text4795"></g><g id="text479525" serif:id="text4795"></g><g id="text479526" serif:id="text4795"></g><g id="text479527" serif:id="text4795"></g><g id="text479528" serif:id="text4795"></g><g id="text479529" serif:id="text4795"></g><g id="text70189" serif:id="text7018"></g><g id="text701810" serif:id="text7018"></g><g id="text701811" serif:id="text7018"></g><g id="text701812" serif:id="text7018"></g><g id="text701813" serif:id="text7018"></g><g id="text701814" serif:id="text7018"></g><g id="text701815" serif:id="text7018"></g><g id="text701816" serif:id="text7018"></g><g id="text701817" serif:id="text7018"></g><g id="text701818" serif:id="text7018"></g><g id="text701819" serif:id="text7018"></g><g id="text479530" serif:id="text4795"></g><g id="text479531" serif:id="text4795"></g><g id="text479532" serif:id="text4795"></g><g id="text479533" serif:id="text4795"></g><g id="text479534" serif:id="text4795"></g><g id="text479535" serif:id="text4795"></g><g id="text479536" serif:id="text4795"></g><g id="text479537" serif:id="text4795"></g><g id="text479538" serif:id="text4795"></g><g id="text479539" serif:id="text4795"></g><g id="text479540" serif:id="text4795"></g><g id="text479541" serif:id="text4795"></g><g id="text479542" serif:id="text4795"></g><g id="text479543" serif:id="text4795"></g><g id="text701820" serif:id="text7018"></g><g id="text701821" serif:id="text7018"></g><g id="text701822" serif:id="text7018"></g><g id="text701823" serif:id="text7018"></g><g id="text701824" serif:id="text7018"></g><g id="text701825" serif:id="text7018"></g><g id="text701826" serif:id="text7018"></g><g id="text701827" serif:id="text7018"></g><g id="text701828" serif:id="text7018"></g><g id="text701829" serif:id="text7018"></g><g id="text701830" serif:id="text7018"></g><g id="text701831" serif:id="text7018"></g><g id="text479544" serif:id="text4795"></g><g id="text701832" serif:id="text7018"></g><g id="text479545" serif:id="text4795"></g><g id="text701833" serif:id="text7018"></g><g id="text4795-1-6"></g><g id="text7022-9-2"></g><g id="text7018-0-4-7-6"></g><g id="text8102-5"></g><g id="text7022-9-2-6"></g><g id="text4795-1-61" serif:id="text4795-1-6"></g><g id="text4795-1-62" serif:id="text4795-1-6"></g><g id="text7022-9-21" serif:id="text7022-9-2"></g><g id="text7022-9-22" serif:id="text7022-9-2"></g><g id="text7018-0-4-7-61" serif:id="text7018-0-4-7-6"></g><g id="text7018-0-4-7-62" serif:id="text7018-0-4-7-6"></g><g id="text8102-51" serif:id="text8102-5"></g><g id="text8102-52" serif:id="text8102-5"></g><g id="text7022-9-2-61" serif:id="text7022-9-2-6"></g><g id="text7022-9-2-62" serif:id="text7022-9-2-6"></g><g id="text4795-1-63" serif:id="text4795-1-6"></g><g id="text7022-9-23" serif:id="text7022-9-2"></g><g id="text7018-0-4-7-63" serif:id="text7018-0-4-7-6"></g><g id="text8102-53" serif:id="text8102-5"></g><g id="text7022-9-2-63" serif:id="text7022-9-2-6"></g><g id="text4795-1-64" serif:id="text4795-1-6"></g><g id="text4795-1-65" serif:id="text4795-1-6"></g><g id="text4795-1-66" serif:id="text4795-1-6"></g><g id="text7022-9-24" serif:id="text7022-9-2"></g><g id="text7022-9-25" serif:id="text7022-9-2"></g><g id="text7022-9-26" serif:id="text7022-9-2"></g><g id="text7018-0-4-7-64" serif:id="text7018-0-4-7-6"></g><g id="text7018-0-4-7-65" serif:id="text7018-0-4-7-6"></g><g id="text7018-0-4-7-66" serif:id="text7018-0-4-7-6"></g><g id="text8102-54" serif:id="text8102-5"></g><g id="text8102-55" serif:id="text8102-5"></g><g id="text8102-56" serif:id="text8102-5"></g><g id="text7022-9-2-64" serif:id="text7022-9-2-6"></g><g id="text7022-9-2-65" serif:id="text7022-9-2-6"></g><g id="text7022-9-2-66" serif:id="text7022-9-2-6"></g><g id="text4795-1-67" serif:id="text4795-1-6"></g><g id="text7022-9-27" serif:id="text7022-9-2"></g><g id="text7018-0-4-7-67" serif:id="text7018-0-4-7-6"></g><g id="text8102-57" serif:id="text8102-5"></g><g id="text7022-9-2-67" serif:id="text7022-9-2-6"></g><g id="text4795-1-68" serif:id="text4795-1-6"></g><g id="text7022-9-28" serif:id="text7022-9-2"></g><g id="text7018-0-4-7-68" serif:id="text7018-0-4-7-6"></g><g id="text8102-58" serif:id="text8102-5"></g><g id="text7022-9-2-68" serif:id="text7022-9-2-6"></g><g id="text479546" serif:id="text4795"></g><g id="text479547" serif:id="text4795"></g><g id="text701834" serif:id="text7018"></g><g id="text701835" serif:id="text7018"></g><g id="text7022-1-0-9"></g><g id="text7022-1-0-91" serif:id="text7022-1-0-9"></g><g id="text7022-1-0-92" serif:id="text7022-1-0-9"></g><g id="text7022-1-0-93" serif:id="text7022-1-0-9"></g><g id="text7022-1-0-94" serif:id="text7022-1-0-9"></g><g id="text7022-1-0-95" serif:id="text7022-1-0-9"></g><g id="text7022-1-0-96" serif:id="text7022-1-0-9"></g><g id="text7022-1-0-97" serif:id="text7022-1-0-9"></g><g id="text7022-1-0-98" serif:id="text7022-1-0-9"></g><g id="text7022-1-0-99" serif:id="text7022-1-0-9"></g><g id="text7022-1-0-910" serif:id="text7022-1-0-9"></g><g id="text7022-1-0-911" serif:id="text7022-1-0-9"></g><g id="text6007-6-1"></g><g id="text6007-6-11" serif:id="text6007-6-1"></g><g id="text6007-6-12" serif:id="text6007-6-1"></g><g id="text6007-6-13" serif:id="text6007-6-1"></g><g id="text6007-6-14" serif:id="text6007-6-1"></g><g id="text6007-6-15" serif:id="text6007-6-1"></g><g id="text6007-6-16" serif:id="text6007-6-1"></g><g id="text6007-6-17" serif:id="text6007-6-1"></g><g id="text6007-6-18" serif:id="text6007-6-1"></g><g id="text6007-6-19" serif:id="text6007-6-1"></g><g id="text6007-6-110" serif:id="text6007-6-1"></g><g id="text6007-6-111" serif:id="text6007-6-1"></g><g id="text6007-6-112" serif:id="text6007-6-1"></g><g id="text7018-0-9"></g><g id="text7018-0-91" serif:id="text7018-0-9"></g><g id="text7018-0-92" serif:id="text7018-0-9"></g><g id="text7018-0-93" serif:id="text7018-0-9"></g><g id="text7018-0-94" serif:id="text7018-0-9"></g><g id="text7018-0-95" serif:id="text7018-0-9"></g><g id="text7018-0-96" serif:id="text7018-0-9"></g><g id="text7018-0-97" serif:id="text7018-0-9"></g><g id="text7018-0-98" serif:id="text7018-0-9"></g><g id="text7018-0-99" serif:id="text7018-0-9"></g><g id="text7018-0-910" serif:id="text7018-0-9"></g><g id="text7018-0-911" serif:id="text7018-0-9"></g><g id="text7018-0-912" serif:id="text7018-0-9"></g><g id="text7018-0-913" serif:id="text7018-0-9"></g><g id="text6007-6-1-6"></g><g id="text6007-6-1-61" serif:id="text6007-6-1-6"></g><g id="text6007-6-1-62" serif:id="text6007-6-1-6"></g><g id="text6007-6-1-63" serif:id="text6007-6-1-6"></g><g id="text6007-6-1-64" serif:id="text6007-6-1-6"></g><g id="text6007-6-1-65" serif:id="text6007-6-1-6"></g><g id="text6007-6-1-66" serif:id="text6007-6-1-6"></g><g id="text6007-6-1-67" serif:id="text6007-6-1-6"></g><g id="text6007-6-1-68" serif:id="text6007-6-1-6"></g><g id="text6007-6-1-69" serif:id="text6007-6-1-6"></g><g id="text6007-6-1-610" serif:id="text6007-6-1-6"></g><g id="text6007-6-1-611" serif:id="text6007-6-1-6"></g><g id="text6007-6-1-612" serif:id="text6007-6-1-6"></g><g id="text7022-1-0-912" serif:id="text7022-1-0-9"></g><g id="text7022-1-0-913" serif:id="text7022-1-0-9"></g><g id="text6007-6-113" serif:id="text6007-6-1"></g><g id="text6007-6-114" serif:id="text6007-6-1"></g><g id="text7018-0-914" serif:id="text7018-0-9"></g><g id="text7018-0-915" serif:id="text7018-0-9"></g><g id="text6007-6-1-613" serif:id="text6007-6-1-6"></g><g id="text6007-6-1-614" serif:id="text6007-6-1-6"></g><rect id="rect6003-9" x="51.964" y="334.661" width="123.595" height="36.276" style="fill:#e6e6e6;stroke:#000;stroke-width:3px;"/><rect id="rect6003-91" serif:id="rect6003-9" x="51.249" y="406.87" width="123.595" height="36.276" style="fill:#e6e6e6;stroke:#000;stroke-width:3px;"/><g id="text701836" serif:id="text7018"></g><g id="text7022-1-0-914" serif:id="text7022-1-0-9"></g><g id="text7018-0-916" serif:id="text7018-0-9"></g><g id="text6007-6-1-615" serif:id="text6007-6-1-6"></g><g id="text701837" serif:id="text7018"></g><g id="text7022-1-0-915" serif:id="text7022-1-0-9"></g><g id="text7018-0-917" serif:id="text7018-0-9"></g><g id="text6007-6-1-616" serif:id="text6007-6-1-6"></g><g id="text701838" serif:id="text7018"></g><g id="text701839" serif:id="text7018"></g><g id="text7022-1-0-916" serif:id="text7022-1-0-9"></g><g id="text7022-1-0-917" serif:id="text7022-1-0-9"></g><g id="text7018-0-918" serif:id="text7018-0-9"></g><g id="text7018-0-919" serif:id="text7018-0-9"></g><g id="text6007-6-1-617" serif:id="text6007-6-1-6"></g><g id="text6007-6-1-618" serif:id="text6007-6-1-6"></g><g id="text479548" serif:id="text4795"></g><g id="text479549" serif:id="text4795"><text x="98.63px" y="326.829px" style="font-family:'Delicious-Heavy', 'Delicious Heavy';font-weight:500;font-size:22.5px;">bar</text></g><g id="text479550" serif:id="text4795"></g><g id="text479551" serif:id="text4795"></g><g id="text479552" serif:id="text4795"></g><g id="text479553" serif:id="text4795"></g><g id="text479554" serif:id="text4795"><text x="97.915px" y="399.037px" style="font-family:'Delicious-Heavy', 'Delicious Heavy';font-weight:500;font-size:22.5px;">baz</text></g><g id="text479555" serif:id="text4795"></g><g id="text479556" serif:id="text4795"></g><g id="text701840" serif:id="text7018"></g><g id="text701841" serif:id="text7018"><text x="59.48px" y="358.898px" style="font-family:'Delicious-Heavy', 'Delicious Heavy';font-weight:500;font-size:22.5px;fill:#808080;">[[Pr<tspan x="88.707px " y="358.898px ">o</tspan>totype]]</text></g><g id="text701842" serif:id="text7018"></g><g id="text701843" serif:id="text7018"></g><g id="text701844" serif:id="text7018"></g><g id="text701845" serif:id="text7018"><text x="58.765px" y="431.106px" style="font-family:'Delicious-Heavy', 'Delicious Heavy';font-weight:500;font-size:22.5px;fill:#808080;">[[Pr<tspan x="87.992px " y="431.106px ">o</tspan>totype]]</text></g><g id="text701846" serif:id="text7018"></g><g id="text701847" serif:id="text7018"></g><g id="text7022-1-0-918" serif:id="text7022-1-0-9"></g><g id="text7022-1-0-919" serif:id="text7022-1-0-9"></g><g id="text479557" serif:id="text4795"></g><g id="text479558" serif:id="text4795"></g><g id="text701848" serif:id="text7018"></g><g id="text701849" serif:id="text7018"></g><g id="text7022-1-0-920" serif:id="text7022-1-0-9"></g><g id="text7022-1-0-921" serif:id="text7022-1-0-9"></g><rect id="rect6003-9-3" x="491.512" y="322.944" width="123.595" height="92.328" style="fill:#fff287;stroke:#000;stroke-width:3px;"/><rect id="rect6003-9-31" serif:id="rect6003-9-3" x="266.468" y="425.35" width="169.351" height="104.495" style="fill:#fff287;stroke:#000;stroke-width:3px;"/><g id="text4795-115" serif:id="text4795-1"></g><g id="text4795-116" serif:id="text4795-1"><text x="478.955px" y="313.624px" style="font-family:'Delicious-Heavy', 'Delicious Heavy';font-weight:500;font-size:22.5px;">Object.pr<tspan x="559.19px " y="313.624px ">o</tspan>totype</text></g><g id="text4795-117" serif:id="text4795-1"></g><g id="text4795-118" serif:id="text4795-1"></g><g id="text4795-119" serif:id="text4795-1"><text x="316.703px" y="417.068px" style="font-family:'Delicious-Heavy', 'Delicious Heavy';font-weight:500;font-size:22.5px;">Object()</text></g><g id="text4795-120" serif:id="text4795-1"></g><g id="text4795-121" serif:id="text4795-1"></g><g id="text4795-122" serif:id="text4795-1"></g><g id="text7022-913" serif:id="text7022-9"></g><g id="text7022-914" serif:id="text7022-9"><text x="502.27px" y="345.765px" style="font-family:'Delicious-Heavy', 'Delicious Heavy';font-weight:500;font-size:22.5px;">toString()</text></g><g id="text7022-915" serif:id="text7022-9"></g><g id="text7022-916" serif:id="text7022-9"></g><g id="text7022-917" serif:id="text7022-9"></g><g id="text7022-918" serif:id="text7022-9"></g><g id="text7022-919" serif:id="text7022-9"><text x="276.125px" y="451.475px" style="font-family:'Delicious-Heavy', 'Delicious Heavy';font-weight:500;font-size:22.5px;">getPr<tspan x="321.913px " y="451.475px ">o</tspan>totypeOf()</text></g><g id="text7022-920" serif:id="text7022-9"></g><g id="text7022-921" serif:id="text7022-9"></g><g id="text7022-922" serif:id="text7022-9"></g><g id="text810213" serif:id="text8102"></g><g id="text810214" serif:id="text8102"><text x="501.953px" y="379.085px" style="font-family:'Delicious-Heavy', 'Delicious Heavy';font-weight:500;font-size:30px;">...</text></g><g id="text810215" serif:id="text8102"></g><g id="text810216" serif:id="text8102"></g><g id="text810217" serif:id="text8102"></g><g id="text810218" serif:id="text8102"></g><g id="text810219" serif:id="text8102"><text x="277.605px" y="493.795px" style="font-family:'Delicious-Heavy', 'Delicious Heavy';font-weight:500;font-size:30px;">...</text></g><g id="text810220" serif:id="text8102"></g><g id="text810221" serif:id="text8102"></g><g id="text810222" serif:id="text8102"></g><g><path id="path6044-5-3-1" d="M646.732,392.905l9.018,4.463l-8.982,4.537c2.241,-2.259 2.223,-6.759 -0.036,-9Z" style="fill:#808080;"/><path d="M605.808,397.571c0,0 28.915,-0.118 42.742,-0.174" style="fill:none;stroke:#808080;stroke-width:3px;"/><text x="657.353px" y="405.095px" style="font-family:'Delicious-Bold', 'Delicious';font-weight:700;font-size:36px;fill:#000080;">null</text></g><g id="text7018-0-4-7-2-613" serif:id="text7018-0-4-7-2-6"></g><g id="text7018-0-4-7-2-614" serif:id="text7018-0-4-7-2-6"><path id="path7932-2-0-2" d="M501.23,406.46l0,-2.745l-1.35,0l0,-14.468l1.35,0l0,-2.745l-4.32,0l0,19.958l4.32,0Z" style="fill:#808080;fill-rule:nonzero;"/><path id="path7934-7-6-1" d="M506.811,406.46l0,-2.745l-1.35,0l0,-14.468l1.35,0l0,-2.745l-4.32,0l0,19.958l4.32,0Z" style="fill:#808080;fill-rule:nonzero;"/><path id="path7936-2-8-7" d="M518.174,393.432c0,-3.577 -2.7,-4.657 -5.827,-4.657l-3.735,0l0,14.175l3.352,0l0,-4.86c0.338,0.202 0.878,0.315 1.238,0.315c2.722,0 4.972,-2.25 4.972,-4.973Zm-3.352,-0.022c0,1.305 -0.54,2.25 -1.958,2.25c-0.225,0 -0.675,-0.18 -0.9,-0.27l0,-3.803l0.495,0c1.305,0 2.363,0.293 2.363,1.823l0,0Z" style="fill:#808080;fill-rule:nonzero;"/><path id="path7938-2-9-8" d="M525.178,395.12l0.428,-3.195c0,0 -0.518,-0.338 -1.17,-0.338c-0.563,0 -1.53,1.148 -1.53,1.148l0,-0.81l-3.286,0l0,11.025l3.263,0l0,-7.83c0,0 0.315,-0.338 0.877,-0.338c0.63,0 1.418,0.338 1.418,0.338Z" style="fill:#808080;fill-rule:nonzero;"/><path id="path7940-6-2-5" d="M530.949,403.287c3.42,0 4.95,-3.24 4.95,-5.85c0,-2.61 -1.53,-5.85 -4.95,-5.85c-3.42,0 -4.95,3.24 -4.95,5.85c0,2.61 1.53,5.85 4.95,5.85Zm0,-8.977c1.058,0 1.688,1.17 1.688,3.127c0,1.935 -0.63,3.15 -1.688,3.15c-1.057,0 -1.687,-1.192 -1.687,-3.15c0,-1.957 0.63,-3.127 1.687,-3.127Z" style="fill:#808080;fill-rule:nonzero;"/><path id="path7942-1-66-74" d="M541.891,403.107c0.36,-0.112 1.327,-0.517 1.327,-0.517l-0.697,-2.228c0,0 -0.608,0.338 -1.103,0.158c-0.315,-0.09 -0.36,-0.653 -0.36,-0.788l0,-5.22l1.8,0l0,-2.587l-1.845,0l0,-1.98l-3.127,0l0,1.98l-1.058,0l0,2.34l0.968,0.247l0,5.76c0,1.463 0.675,3.015 2.7,3.015c0.585,0 0.99,-0.045 1.395,-0.18l0,0Z" style="fill:#808080;fill-rule:nonzero;"/><path id="path7944-0-4-1" d="M548.835,403.287c3.42,0 4.95,-3.24 4.95,-5.85c0,-2.61 -1.53,-5.85 -4.95,-5.85c-3.42,0 -4.95,3.24 -4.95,5.85c0,2.61 1.53,5.85 4.95,5.85Zm0,-8.977c1.057,0 1.687,1.17 1.687,3.127c0,1.935 -0.63,3.15 -1.687,3.15c-1.058,0 -1.688,-1.192 -1.688,-3.15c0,-1.957 0.63,-3.127 1.688,-3.127Z" style="fill:#808080;fill-rule:nonzero;"/><path id="path7946-6-9-8" d="M559.776,403.107c0.36,-0.112 1.328,-0.517 1.328,-0.517l-0.698,-2.228c0,0 -0.607,0.338 -1.102,0.158c-0.315,-0.09 -0.36,-0.653 -0.36,-0.788l0,-5.22l1.8,0l0,-2.587l-1.845,0l0,-1.98l-3.128,0l0,1.98l-1.057,0l0,2.34l0.967,0.247l0,5.76c0,1.463 0.675,3.015 2.7,3.015c0.585,0 0.99,-0.045 1.395,-0.18l0,0Z" style="fill:#808080;fill-rule:nonzero;"/><path id="path7948-1-5-5" d="M566.541,399.147c-0.135,-2.182 -1.643,-7.222 -1.643,-7.222l-3.465,0l3.375,10.8c-0.652,1.102 -0.765,1.485 -2.52,2.092l0.743,2.385c0,0 1.732,-0.337 2.632,-0.945c2.88,-1.935 4.928,-10.755 5.603,-14.332l-3.353,0c-0.315,2.542 -0.742,4.95 -1.372,7.222Z" style="fill:#808080;fill-rule:nonzero;"/><path id="path7950-5-0-9" d="M577.794,403.287c3.892,0 4.68,-3.712 4.68,-6.232c0,-2.34 -1.283,-5.468 -4.208,-5.468c-1.215,0 -2.34,1.148 -2.34,1.148l0.023,-0.81l-3.285,0l0,14.962l3.285,0l0,-4.387c0,0 0.787,0.787 1.845,0.787l0,0Zm-0.091,-9c1.418,0 1.44,1.958 1.44,2.948c0,0.967 0.045,3.42 -1.44,3.42c-1.62,0 -1.755,-1.778 -1.755,-3.038l0,-2.407c0.495,-0.428 0.833,-0.923 1.755,-0.923Z" style="fill:#808080;fill-rule:nonzero;"/><path id="path7952-9-4-7" d="M593.243,397.73c0,-0.608 -0.023,-1.193 -0.045,-1.8c-0.068,-2.363 -2.003,-4.343 -4.388,-4.343c-3.127,0 -5.265,2.588 -5.265,5.603c0,3.015 1.395,6.12 4.86,6.12c1.373,0 3.083,-0.743 4.163,-1.643l-0.945,-2.025c-0.833,0.608 -2.093,0.968 -3.105,0.968c-1.283,0 -1.71,-1.485 -1.71,-2.52c0,-0.113 0,-0.248 0.022,-0.36l6.413,0Zm-3.06,-2.07l-3.128,0c0.09,-0.788 0.675,-1.913 1.598,-1.913c1.012,0 1.507,1.035 1.53,1.913Z" style="fill:#808080;fill-rule:nonzero;"/><path id="path7954-4-8-5" d="M598.568,406.46l-4.32,0l0,-2.745l1.35,0l0,-14.468l-1.35,0l0,-2.745l4.32,0l0,19.958Z" style="fill:#808080;fill-rule:nonzero;"/><path id="path7956-9-7-3" d="M604.149,406.46l-4.32,0l0,-2.745l1.35,0l0,-14.468l-1.35,0l0,-2.745l4.32,0l0,19.958Z" style="fill:#808080;fill-rule:nonzero;"/></g><g id="text7018-0-4-7-2-615" serif:id="text7018-0-4-7-2-6"></g><g id="text7018-0-4-7-2-616" serif:id="text7018-0-4-7-2-6"></g><g id="text7018-0-4-7-2-617" serif:id="text7018-0-4-7-2-6"></g><g id="text7018-0-4-7-2-618" serif:id="text7018-0-4-7-2-6"></g><g id="text7018-0-4-7-2-619" serif:id="text7018-0-4-7-2-6"><path id="path7932-2-0-21" serif:id="path7932-2-0-2" d="M280.754,523.322l0,-2.745l-1.35,0l0,-14.468l1.35,0l0,-2.745l-4.32,0l0,19.958l4.32,0Z" style="fill:#808080;fill-rule:nonzero;"/><path id="path7934-7-6-11" serif:id="path7934-7-6-1" d="M286.335,523.322l0,-2.745l-1.35,0l0,-14.468l1.35,0l0,-2.745l-4.32,0l0,19.958l4.32,0Z" style="fill:#808080;fill-rule:nonzero;"/><path id="path7936-2-8-71" serif:id="path7936-2-8-7" d="M297.699,510.294c0,-3.577 -2.7,-4.657 -5.828,-4.657l-3.735,0l0,14.175l3.353,0l0,-4.86c0.337,0.202 0.877,0.315 1.237,0.315c2.723,0 4.973,-2.25 4.973,-4.973Zm-3.353,-0.023c0,1.305 -0.54,2.25 -1.957,2.25c-0.225,0 -0.675,-0.18 -0.9,-0.269l0,-3.803l0.495,0c1.305,0 2.362,0.293 2.362,1.823l0,-0.001Z" style="fill:#808080;fill-rule:nonzero;"/><path id="path7938-2-9-81" serif:id="path7938-2-9-8" d="M304.702,511.982l0.428,-3.195c0,0 -0.518,-0.338 -1.17,-0.338c-0.563,0 -1.53,1.148 -1.53,1.148l0,-0.81l-3.285,0l0,11.025l3.262,0l0,-7.83c0,0 0.315,-0.338 0.878,-0.338c0.63,0 1.417,0.338 1.417,0.338Z" style="fill:#808080;fill-rule:nonzero;"/><path id="path7940-6-2-51" serif:id="path7940-6-2-5" d="M310.474,520.149c3.42,0 4.95,-3.24 4.95,-5.85c0,-2.61 -1.53,-5.85 -4.95,-5.85c-3.42,0 -4.95,3.24 -4.95,5.85c0,2.61 1.53,5.85 4.95,5.85Zm0,-8.977c1.057,0 1.687,1.17 1.687,3.127c0,1.935 -0.63,3.15 -1.687,3.15c-1.058,0 -1.688,-1.192 -1.688,-3.15c0,-1.957 0.63,-3.127 1.688,-3.127Z" style="fill:#808080;fill-rule:nonzero;"/><path id="path7942-1-66-741" serif:id="path7942-1-66-74" d="M321.415,519.969c0.36,-0.112 1.328,-0.517 1.328,-0.517l-0.698,-2.228c0,0 -0.607,0.338 -1.102,0.158c-0.315,-0.09 -0.36,-0.653 -0.36,-0.788l0,-5.22l1.8,0l0,-2.587l-1.845,0l0,-1.98l-3.128,0l0,1.98l-1.057,0l0,2.34l0.967,0.247l0,5.76c0,1.463 0.675,3.015 2.7,3.015c0.585,0 0.99,-0.045 1.395,-0.18l0,0Z" style="fill:#808080;fill-rule:nonzero;"/><path id="path7944-0-4-11" serif:id="path7944-0-4-1" d="M328.359,520.149c3.42,0 4.95,-3.24 4.95,-5.85c0,-2.61 -1.53,-5.85 -4.95,-5.85c-3.42,0 -4.95,3.24 -4.95,5.85c0,2.61 1.53,5.85 4.95,5.85Zm0,-8.977c1.058,0 1.688,1.17 1.688,3.127c0,1.935 -0.63,3.15 -1.688,3.15c-1.057,0 -1.687,-1.192 -1.687,-3.15c0,-1.957 0.63,-3.127 1.687,-3.127Z" style="fill:#808080;fill-rule:nonzero;"/><path id="path7946-6-9-81" serif:id="path7946-6-9-8" d="M339.301,519.969c0.36,-0.112 1.327,-0.517 1.327,-0.517l-0.697,-2.228c0,0 -0.608,0.338 -1.103,0.158c-0.315,-0.09 -0.36,-0.653 -0.36,-0.788l0,-5.22l1.8,0l0,-2.587l-1.845,0l0,-1.98l-3.127,0l0,1.98l-1.058,0l0,2.34l0.968,0.247l0,5.76c0,1.463 0.675,3.015 2.7,3.015c0.585,0 0.99,-0.045 1.395,-0.18l0,0Z" style="fill:#808080;fill-rule:nonzero;"/><path id="path7948-1-5-51" serif:id="path7948-1-5-5" d="M346.065,516.009c-0.135,-2.182 -1.642,-7.222 -1.642,-7.222l-3.465,0l3.375,10.8c-0.653,1.102 -0.765,1.485 -2.52,2.092l0.742,2.385c0,0 1.733,-0.337 2.633,-0.945c2.88,-1.935 4.927,-10.755 5.602,-14.332l-3.352,0c-0.315,2.542 -0.743,4.95 -1.373,7.222Z" style="fill:#808080;fill-rule:nonzero;"/><path id="path7950-5-0-91" serif:id="path7950-5-0-9" d="M357.318,520.149c3.892,0 4.68,-3.712 4.68,-6.232c0,-2.34 -1.283,-5.468 -4.208,-5.468c-1.215,0 -2.34,1.148 -2.34,1.148l0.023,-0.81l-3.285,0l0,14.962l3.285,0l0,-4.387c0,0 0.788,0.787 1.845,0.787l0,0Zm-0.09,-9c1.417,0 1.44,1.958 1.44,2.948c0,0.967 0.045,3.42 -1.44,3.42c-1.62,0 -1.755,-1.778 -1.755,-3.038l0,-2.407c0.495,-0.428 0.832,-0.923 1.755,-0.923Z" style="fill:#808080;fill-rule:nonzero;"/><path id="path7952-9-4-71" serif:id="path7952-9-4-7" d="M372.767,514.592c0,-0.608 -0.023,-1.193 -0.045,-1.8c-0.067,-2.363 -2.003,-4.343 -4.388,-4.343c-3.127,0 -5.265,2.588 -5.265,5.603c0,3.015 1.395,6.12 4.86,6.12c1.373,0 3.083,-0.743 4.163,-1.643l-0.945,-2.025c-0.833,0.608 -2.093,0.968 -3.105,0.968c-1.283,0 -1.71,-1.485 -1.71,-2.52c0,-0.113 0,-0.248 0.023,-0.36l6.412,0Zm-3.06,-2.07l-3.127,0c0.09,-0.788 0.675,-1.913 1.597,-1.913c1.013,0 1.508,1.035 1.53,1.913Z" style="fill:#808080;fill-rule:nonzero;"/><path id="path7954-4-8-51" serif:id="path7954-4-8-5" d="M378.093,523.322l-4.32,0l0,-2.745l1.35,0l0,-14.468l-1.35,0l0,-2.745l4.32,0l0,19.958Z" style="fill:#808080;fill-rule:nonzero;"/><path id="path7956-9-7-31" serif:id="path7956-9-7-3" d="M383.674,523.322l-4.32,0l0,-2.745l1.35,0l0,-14.468l-1.35,0l0,-2.745l4.32,0l0,19.958Z" style="fill:#808080;fill-rule:nonzero;"/></g><g id="text7018-0-4-7-2-620" serif:id="text7018-0-4-7-2-6"></g><g id="text7018-0-4-7-2-621" serif:id="text7018-0-4-7-2-6"></g><g id="text7018-0-4-7-2-622" serif:id="text7018-0-4-7-2-6"></g><g id="text6007-6-1-619" serif:id="text6007-6-1-6"></g><g id="text6007-6-1-620" serif:id="text6007-6-1-6"><text x="501.62px" y="366.78px" style="font-family:'Delicious-Heavy', 'Delicious Heavy';font-weight:500;font-size:22.5px;">constructor</text></g><g id="text6007-6-1-621" serif:id="text6007-6-1-6"></g><g id="text6007-6-1-622" serif:id="text6007-6-1-6"></g><g id="text6007-6-1-623" serif:id="text6007-6-1-6"></g><g id="text6007-6-1-624" serif:id="text6007-6-1-6"></g><rect id="rect6003-9-3-0" x="487.688" y="69.744" width="123.595" height="125.718" style="fill:#fff287;stroke:#000;stroke-width:3px;"/><g id="text4795-1-69" serif:id="text4795-1-6"></g><g id="text4795-1-610" serif:id="text4795-1-6"><text x="464.372px" y="60.66px" style="font-family:'Delicious-Heavy', 'Delicious Heavy';font-weight:500;font-size:22.5px;">Function.pr<tspan x="565.645px " y="60.66px ">o</tspan>totype</text></g><g id="text4795-1-611" serif:id="text4795-1-6"></g><g id="text4795-1-612" serif:id="text4795-1-6"></g><g id="text4795-1-613" serif:id="text4795-1-6"></g><g id="text7022-9-29" serif:id="text7022-9-2"></g><g id="text7022-9-210" serif:id="text7022-9-2"><text x="495.369px" y="93.429px" style="font-family:'Delicious-Heavy', 'Delicious Heavy';font-weight:500;font-size:22.5px;">call()</text></g><g id="text7022-9-211" serif:id="text7022-9-2"></g><g id="text7022-9-212" serif:id="text7022-9-2"></g><g id="text7022-9-213" serif:id="text7022-9-2"></g><g id="text7018-0-4-7-69" serif:id="text7018-0-4-7-6"></g><g id="text7018-0-4-7-610" serif:id="text7018-0-4-7-6"><path id="path7932-2-1" d="M500.728,186.588l0,-2.745l-1.35,0l0,-14.468l1.35,0l0,-2.745l-4.32,0l0,19.958l4.32,0Z" style="fill:#808080;fill-rule:nonzero;"/><path id="path7934-7-5" d="M506.309,186.588l0,-2.745l-1.35,0l0,-14.468l1.35,0l0,-2.745l-4.32,0l0,19.958l4.32,0Z" style="fill:#808080;fill-rule:nonzero;"/><path id="path7936-2-5" d="M517.672,173.56c0,-3.577 -2.7,-4.657 -5.827,-4.657l-3.735,0l0,14.175l3.352,0l0,-4.86c0.338,0.202 0.878,0.315 1.238,0.315c2.722,0 4.972,-2.25 4.972,-4.973Zm-3.352,-0.022c0,1.305 -0.54,2.25 -1.958,2.25c-0.225,0 -0.675,-0.18 -0.9,-0.27l0,-3.803l0.495,0c1.305,0 2.363,0.293 2.363,1.823l0,0Z" style="fill:#808080;fill-rule:nonzero;"/><path id="path7938-2-4" d="M524.676,175.248l0.428,-3.195c0,0 -0.518,-0.338 -1.17,-0.338c-0.563,0 -1.53,1.148 -1.53,1.148l0,-0.81l-3.285,0l0,11.025l3.262,0l0,-7.83c0,0 0.315,-0.338 0.878,-0.338c0.63,0 1.417,0.338 1.417,0.338Z" style="fill:#808080;fill-rule:nonzero;"/><path id="path7940-6-7" d="M530.447,183.415c3.42,0 4.95,-3.24 4.95,-5.85c0,-2.61 -1.53,-5.85 -4.95,-5.85c-3.42,0 -4.95,3.24 -4.95,5.85c0,2.61 1.53,5.85 4.95,5.85Zm0,-8.977c1.058,0 1.688,1.17 1.688,3.127c0,1.935 -0.63,3.15 -1.688,3.15c-1.057,0 -1.687,-1.192 -1.687,-3.15c0,-1.957 0.63,-3.127 1.687,-3.127Z" style="fill:#808080;fill-rule:nonzero;"/><path id="path7942-1-6" d="M541.389,183.235c0.36,-0.112 1.327,-0.517 1.327,-0.517l-0.697,-2.228c0,0 -0.608,0.338 -1.103,0.158c-0.315,-0.09 -0.36,-0.653 -0.36,-0.788l0,-5.22l1.8,0l0,-2.587l-1.845,0l0,-1.98l-3.127,0l0,1.98l-1.058,0l0,2.34l0.968,0.247l0,5.76c0,1.463 0.675,3.015 2.7,3.015c0.585,0 0.99,-0.045 1.395,-0.18l0,0Z" style="fill:#808080;fill-rule:nonzero;"/><path id="path7944-0-5" d="M548.333,183.415c3.42,0 4.95,-3.24 4.95,-5.85c0,-2.61 -1.53,-5.85 -4.95,-5.85c-3.42,0 -4.95,3.24 -4.95,5.85c0,2.61 1.53,5.85 4.95,5.85Zm0,-8.977c1.058,0 1.688,1.17 1.688,3.127c0,1.935 -0.63,3.15 -1.688,3.15c-1.057,0 -1.687,-1.192 -1.687,-3.15c0,-1.957 0.63,-3.127 1.687,-3.127Z" style="fill:#808080;fill-rule:nonzero;"/><path id="path7946-6-6" d="M559.275,183.235c0.36,-0.112 1.327,-0.517 1.327,-0.517l-0.697,-2.228c0,0 -0.608,0.338 -1.103,0.158c-0.315,-0.09 -0.36,-0.653 -0.36,-0.788l0,-5.22l1.8,0l0,-2.587l-1.845,0l0,-1.98l-3.127,0l0,1.98l-1.058,0l0,2.34l0.968,0.247l0,5.76c0,1.463 0.675,3.015 2.7,3.015c0.585,0 0.99,-0.045 1.395,-0.18l0,0Z" style="fill:#808080;fill-rule:nonzero;"/><path id="path7948-1-9" d="M566.039,179.275c-0.135,-2.182 -1.643,-7.222 -1.643,-7.222l-3.465,0l3.375,10.8c-0.652,1.102 -0.765,1.485 -2.52,2.092l0.743,2.385c0,0 1.732,-0.337 2.632,-0.945c2.88,-1.935 4.928,-10.755 5.603,-14.332l-3.353,0c-0.315,2.542 -0.742,4.95 -1.372,7.222Z" style="fill:#808080;fill-rule:nonzero;"/><path id="path7950-5-3" d="M577.292,183.415c3.892,0 4.68,-3.712 4.68,-6.232c0,-2.34 -1.283,-5.468 -4.208,-5.468c-1.215,0 -2.34,1.148 -2.34,1.148l0.023,-0.81l-3.285,0l0,14.962l3.285,0l0,-4.387c0,0 0.787,0.787 1.845,0.787l0,0Zm-0.09,-9c1.417,0 1.44,1.958 1.44,2.948c0,0.967 0.045,3.42 -1.44,3.42c-1.62,0 -1.755,-1.778 -1.755,-3.038l0,-2.407c0.495,-0.428 0.832,-0.923 1.755,-0.923Z" style="fill:#808080;fill-rule:nonzero;"/><path id="path7952-9-7" d="M592.741,177.858c0,-0.608 -0.023,-1.193 -0.045,-1.8c-0.068,-2.363 -2.003,-4.343 -4.388,-4.343c-3.127,0 -5.265,2.588 -5.265,5.603c0,3.015 1.395,6.12 4.86,6.12c1.373,0 3.083,-0.743 4.163,-1.643l-0.945,-2.025c-0.833,0.608 -2.093,0.968 -3.105,0.968c-1.283,0 -1.71,-1.485 -1.71,-2.52c0,-0.113 0,-0.248 0.022,-0.36l6.413,0Zm-3.06,-2.07l-3.128,0c0.09,-0.788 0.675,-1.913 1.598,-1.913c1.012,0 1.507,1.035 1.53,1.913Z" style="fill:#808080;fill-rule:nonzero;"/><path id="path7954-4-4" d="M598.067,186.588l-4.32,0l0,-2.745l1.35,0l0,-14.468l-1.35,0l0,-2.745l4.32,0l0,19.958Z" style="fill:#808080;fill-rule:nonzero;"/><path id="path7956-9-5" d="M603.648,186.588l-4.32,0l0,-2.745l1.35,0l0,-14.468l-1.35,0l0,-2.745l4.32,0l0,19.958Z" style="fill:#808080;fill-rule:nonzero;"/></g><g id="text7018-0-4-7-611" serif:id="text7018-0-4-7-6"></g><g id="text7018-0-4-7-612" serif:id="text7018-0-4-7-6"></g><g id="text7018-0-4-7-613" serif:id="text7018-0-4-7-6"></g><g id="text8102-59" serif:id="text8102-5"></g><g id="text8102-510" serif:id="text8102-5"><text x="496.567px" y="157.148px" style="font-family:'Delicious-Heavy', 'Delicious Heavy';font-weight:500;font-size:30px;">...</text></g><g id="text8102-511" serif:id="text8102-5"></g><g id="text8102-512" serif:id="text8102-5"></g><g id="text8102-513" serif:id="text8102-5"></g><g id="text7022-9-2-69" serif:id="text7022-9-2-6"></g><g id="text7022-9-2-610" serif:id="text7022-9-2-6"><text x="495.481px" y="118.908px" style="font-family:'Delicious-Heavy', 'Delicious Heavy';font-weight:500;font-size:22.5px;">toString()</text></g><g id="text7022-9-2-611" serif:id="text7022-9-2-6"></g><g id="text7022-9-2-612" serif:id="text7022-9-2-6"></g><g id="text7022-9-2-613" serif:id="text7022-9-2-6"></g><rect id="rect6003-92" serif:id="rect6003-9" x="50.677" y="263.453" width="123.595" height="36.276" style="fill:#e6e6e6;stroke:#000;stroke-width:3px;"/><g id="text479559" serif:id="text4795"></g><g id="text479560" serif:id="text4795"><text x="97.343px" y="255.621px" style="font-family:'Delicious-Heavy', 'Delicious Heavy';font-weight:500;font-size:22.5px;">foo</text></g><g id="text479561" serif:id="text4795"></g><g id="text479562" serif:id="text4795"></g><g id="text701850" serif:id="text7018"></g><g id="text701851" serif:id="text7018"><text x="58.193px" y="287.69px" style="font-family:'Delicious-Heavy', 'Delicious Heavy';font-weight:500;font-size:22.5px;fill:#808080;">[[Pr<tspan x="87.42px " y="287.69px ">o</tspan>totype]]</text></g><g id="text701852" serif:id="text7018"></g><g id="text701853" serif:id="text7018"></g><rect id="rect6003-9-3-01" serif:id="rect6003-9-3-0" x="258.856" y="181.802" width="123.595" height="79.533" style="fill:#fff287;stroke:#000;stroke-width:3px;"/><g id="text4795-1-614" serif:id="text4795-1-6"></g><g id="text4795-1-615" serif:id="text4795-1-6"><text x="282.994px" y="173.003px" style="font-family:'Delicious-Heavy', 'Delicious Heavy';font-weight:500;font-size:22.5px;">Function()</text></g><g id="text4795-1-616" serif:id="text4795-1-6"></g><g id="text4795-1-617" serif:id="text4795-1-6"></g><g id="text4795-1-618" serif:id="text4795-1-6"></g><g id="text7018-0-4-7-614" serif:id="text7018-0-4-7-6"></g><g id="text7018-0-4-7-615" serif:id="text7018-0-4-7-6"><path id="path7932-2-11" serif:id="path7932-2-1" d="M272.783,252.229l0,-2.745l-1.35,0l0,-14.468l1.35,0l0,-2.745l-4.32,0l0,19.958l4.32,0Z" style="fill:#808080;fill-rule:nonzero;"/><path id="path7934-7-51" serif:id="path7934-7-5" d="M278.364,252.229l0,-2.745l-1.35,0l0,-14.468l1.35,0l0,-2.745l-4.32,0l0,19.958l4.32,0Z" style="fill:#808080;fill-rule:nonzero;"/><path id="path7936-2-51" serif:id="path7936-2-5" d="M289.727,239.201c0,-3.577 -2.7,-4.657 -5.827,-4.657l-3.735,0l0,14.175l3.352,0l0,-4.86c0.338,0.202 0.878,0.315 1.238,0.315c2.722,0 4.972,-2.25 4.972,-4.973Zm-3.352,-0.023c0,1.305 -0.54,2.25 -1.958,2.25c-0.225,0 -0.675,-0.18 -0.9,-0.269l0,-3.803l0.495,0c1.305,0 2.363,0.293 2.363,1.823l0,-0.001Z" style="fill:#808080;fill-rule:nonzero;"/><path id="path7938-2-41" serif:id="path7938-2-4" d="M296.731,240.889l0.428,-3.195c0,0 -0.518,-0.338 -1.17,-0.338c-0.563,0 -1.53,1.148 -1.53,1.148l0,-0.81l-3.285,0l0,11.025l3.262,0l0,-7.83c0,0 0.315,-0.338 0.878,-0.338c0.63,0 1.417,0.338 1.417,0.338Z" style="fill:#808080;fill-rule:nonzero;"/><path id="path7940-6-71" serif:id="path7940-6-7" d="M302.502,249.056c3.42,0 4.95,-3.24 4.95,-5.85c0,-2.61 -1.53,-5.85 -4.95,-5.85c-3.42,0 -4.95,3.24 -4.95,5.85c0,2.61 1.53,5.85 4.95,5.85Zm0,-8.977c1.058,0 1.688,1.17 1.688,3.127c0,1.935 -0.63,3.15 -1.688,3.15c-1.057,0 -1.687,-1.192 -1.687,-3.15c0,-1.957 0.63,-3.127 1.687,-3.127Z" style="fill:#808080;fill-rule:nonzero;"/><path id="path7942-1-61" serif:id="path7942-1-6" d="M313.444,248.876c0.36,-0.112 1.327,-0.517 1.327,-0.517l-0.697,-2.228c0,0 -0.608,0.338 -1.103,0.158c-0.315,-0.09 -0.36,-0.653 -0.36,-0.788l0,-5.22l1.8,0l0,-2.587l-1.845,0l0,-1.98l-3.127,0l0,1.98l-1.058,0l0,2.34l0.968,0.247l0,5.76c0,1.463 0.675,3.015 2.7,3.015c0.585,0 0.99,-0.045 1.395,-0.18l0,0Z" style="fill:#808080;fill-rule:nonzero;"/><path id="path7944-0-51" serif:id="path7944-0-5" d="M320.388,249.056c3.42,0 4.95,-3.24 4.95,-5.85c0,-2.61 -1.53,-5.85 -4.95,-5.85c-3.42,0 -4.95,3.24 -4.95,5.85c0,2.61 1.53,5.85 4.95,5.85Zm0,-8.977c1.058,0 1.688,1.17 1.688,3.127c0,1.935 -0.63,3.15 -1.688,3.15c-1.057,0 -1.687,-1.192 -1.687,-3.15c0,-1.957 0.63,-3.127 1.687,-3.127Z" style="fill:#808080;fill-rule:nonzero;"/><path id="path7946-6-61" serif:id="path7946-6-6" d="M331.33,248.876c0.36,-0.112 1.327,-0.517 1.327,-0.517l-0.697,-2.228c0,0 -0.608,0.338 -1.103,0.158c-0.315,-0.09 -0.36,-0.653 -0.36,-0.788l0,-5.22l1.8,0l0,-2.587l-1.845,0l0,-1.98l-3.127,0l0,1.98l-1.058,0l0,2.34l0.968,0.247l0,5.76c0,1.463 0.675,3.015 2.7,3.015c0.585,0 0.99,-0.045 1.395,-0.18l0,0Z" style="fill:#808080;fill-rule:nonzero;"/><path id="path7948-1-91" serif:id="path7948-1-9" d="M338.094,244.916c-0.135,-2.182 -1.643,-7.222 -1.643,-7.222l-3.465,0l3.375,10.8c-0.652,1.102 -0.765,1.485 -2.52,2.092l0.743,2.385c0,0 1.732,-0.337 2.632,-0.945c2.88,-1.935 4.928,-10.755 5.603,-14.332l-3.353,0c-0.315,2.542 -0.742,4.95 -1.372,7.222Z" style="fill:#808080;fill-rule:nonzero;"/><path id="path7950-5-31" serif:id="path7950-5-3" d="M349.347,249.056c3.892,0 4.68,-3.712 4.68,-6.232c0,-2.34 -1.283,-5.468 -4.208,-5.468c-1.215,0 -2.34,1.148 -2.34,1.148l0.023,-0.81l-3.285,0l0,14.962l3.285,0l0,-4.387c0,0 0.787,0.787 1.845,0.787l0,0Zm-0.09,-9c1.417,0 1.44,1.958 1.44,2.948c0,0.967 0.045,3.42 -1.44,3.42c-1.62,0 -1.755,-1.778 -1.755,-3.038l0,-2.407c0.495,-0.428 0.832,-0.923 1.755,-0.923Z" style="fill:#808080;fill-rule:nonzero;"/><path id="path7952-9-71" serif:id="path7952-9-7" d="M364.796,243.499c0,-0.608 -0.023,-1.193 -0.045,-1.8c-0.068,-2.363 -2.003,-4.343 -4.388,-4.343c-3.127,0 -5.265,2.588 -5.265,5.603c0,3.015 1.395,6.12 4.86,6.12c1.373,0 3.083,-0.743 4.163,-1.643l-0.945,-2.025c-0.833,0.608 -2.093,0.968 -3.105,0.968c-1.283,0 -1.71,-1.485 -1.71,-2.52c0,-0.113 0,-0.248 0.022,-0.36l6.413,0Zm-3.06,-2.07l-3.128,0c0.09,-0.788 0.675,-1.913 1.598,-1.913c1.012,0 1.507,1.035 1.53,1.913Z" style="fill:#808080;fill-rule:nonzero;"/><path id="path7954-4-41" serif:id="path7954-4-4" d="M370.122,252.229l-4.32,0l0,-2.745l1.35,0l0,-14.468l-1.35,0l0,-2.745l4.32,0l0,19.958Z" style="fill:#808080;fill-rule:nonzero;"/><path id="path7956-9-51" serif:id="path7956-9-5" d="M375.703,252.229l-4.32,0l0,-2.745l1.35,0l0,-14.468l-1.35,0l0,-2.745l4.32,0l0,19.958Z" style="fill:#808080;fill-rule:nonzero;"/></g><g id="text7018-0-4-7-616" serif:id="text7018-0-4-7-6"></g><g id="text7018-0-4-7-617" serif:id="text7018-0-4-7-6"></g><g id="text7018-0-4-7-618" serif:id="text7018-0-4-7-6"></g><g id="text8102-514" serif:id="text8102-5"></g><g id="text8102-515" serif:id="text8102-5"><text x="267.291px" y="222.062px" style="font-family:'Delicious-Heavy', 'Delicious Heavy';font-weight:500;font-size:30px;">...</text></g><g id="text8102-516" serif:id="text8102-5"></g><g id="text8102-517" serif:id="text8102-5"></g><g id="text8102-518" serif:id="text8102-5"></g><g id="text6007-6-1-625" serif:id="text6007-6-1-6"></g><g id="text6007-6-1-626" serif:id="text6007-6-1-6"><text x="265.005px" y="207.474px" style="font-family:'Delicious-Heavy', 'Delicious Heavy';font-weight:500;font-size:22.5px;">pr<tspan x="283.68px " y="207.474px ">o</tspan>totype</text></g><g id="text6007-6-1-627" serif:id="text6007-6-1-6"></g><g id="text6007-6-1-628" serif:id="text6007-6-1-6"></g><g id="text6007-6-1-629" serif:id="text6007-6-1-6"></g><g id="text7022-923" serif:id="text7022-9"></g><g id="text7022-924" serif:id="text7022-9"><text x="276.082px" y="476.603px" style="font-family:'Delicious-Heavy', 'Delicious Heavy';font-weight:500;font-size:22.5px;">pr<tspan x="294.757px " y="476.603px ">o</tspan>totype</text></g><g id="text7022-925" serif:id="text7022-9"></g><g id="text7022-926" serif:id="text7022-9"></g><g id="text7022-927" serif:id="text7022-9"></g><g id="text6007-6-115" serif:id="text6007-6-1"></g><g id="text6007-6-116" serif:id="text6007-6-1"></g><g id="text7018-0-920" serif:id="text7018-0-9"></g><g id="text7018-0-921" serif:id="text7018-0-9"></g><g id="text6007-6-1-630" serif:id="text6007-6-1-6"></g><g id="text6007-6-1-631" serif:id="text6007-6-1-6"></g><path id="path6044-5-3-11" serif:id="path6044-5-3-1" d="M475.916,339.57l9.123,4.245l-8.87,4.752c2.186,-2.313 2.059,-6.811 -0.253,-8.997Z" style="fill:#808080;"/><path d="M167.154,352.783c0,0 263.478,-7.433 310.688,-8.765" style="fill:none;stroke:#808080;stroke-width:3px;"/><g><g><g id="text4795-1-619" serif:id="text4795-1-6"></g></g></g><g><g><g id="text4795-1-620" serif:id="text4795-1-6"></g></g></g><g><g><g id="text4795-1-621" serif:id="text4795-1-6"></g></g></g><g><g><g id="text4795-1-622" serif:id="text4795-1-6"></g></g></g><path id="path6044-5-3-12" serif:id="path6044-5-3-1" d="M462.486,301.321l8.601,5.222l-9.339,3.748c2.427,-2.058 2.796,-6.543 0.738,-8.97Z" style="fill:#808080;"/><path d="M166.903,281.527c0,0 251.059,20.647 297.008,24.426" style="fill:none;stroke:#808080;stroke-width:3px;"/><path id="path6044-5-3-13" serif:id="path6044-5-3-1" d="M552.798,288.471l-4.442,9.029l-4.558,-8.971c2.264,2.236 6.764,2.207 9,-0.058Z" style="fill:#808080;"/><path d="M547.622,184.208c0,0 0.526,81.157 0.687,106.092" style="fill:none;stroke:#808080;stroke-width:3px;"/><path id="path6044-5-3-14" serif:id="path6044-5-3-1" d="M476.543,386.954l8.906,4.685l-9.091,4.313c2.296,-2.203 2.388,-6.702 0.185,-8.998Z" style="fill:#808080;"/><path d="M167.71,425.274c0,0 17.062,-33.789 41.312,-36.776c16.567,-2.041 227.367,2.139 269.228,2.992" style="fill:none;stroke:#808080;stroke-width:3px;"/><path id="path3964-2-2" d="M502.288,427.303l5.216,-9.37l4.366,9.795c-2.289,-2.502 -7.08,-2.714 -9.582,-0.425Z" style="fill-rule:nonzero;"/><path d="M367.366,471.813c71.265,-0.662 134.626,8.442 139.798,-46.214" style="fill:none;fill-rule:nonzero;stroke:#000;stroke-width:3.2px;"/><path id="path3964-2-21" serif:id="path3964-2-2" d="M409.972,405.68l-5.228,9.364l-4.354,-9.801c2.286,2.505 7.077,2.723 9.582,0.437Z" style="fill-rule:nonzero;"/><path d="M500.884,362.031c-70.505,0.656 -92.67,1.84 -95.79,45.347" style="fill:none;fill-rule:nonzero;stroke:#000;stroke-width:3.2px;"/><path id="path3964-2-22" serif:id="path3964-2-2" d="M485.518,205.19l10.473,-2.309l-4.436,9.764c0.354,-3.373 -2.664,-7.1 -6.037,-7.455Z" style="fill:#808080;fill-rule:nonzero;"/><path d="M386.037,514.026c15.65,0.202 50.793,0.832 67.851,-5.526c29.397,-10.955 -61.51,-216.272 36.139,-300.79" style="fill:none;fill-rule:nonzero;stroke:#808080;stroke-width:3.2px;"/><path id="path6044-5-3-15" serif:id="path6044-5-3-1" d="M472.271,155.768l9.973,1.34l-7.056,7.174c1.399,-2.858 -0.059,-7.115 -2.917,-8.514Z"/><path d="M354.415,200.905c0,0 94.55,-32.395 121.017,-41.463" style="fill:none;stroke:#000;stroke-width:3px;"/><path id="path6044-5-3-16" serif:id="path6044-5-3-1" d="M390.016,173.792l-9.929,-1.632l7.263,-6.964c-1.483,2.816 -0.15,7.114 2.666,8.596Z"/><path d="M495.287,136.434c0,0 -83.504,25.896 -108.324,33.593" style="fill:none;stroke:#000;stroke-width:3px;"/><path id="path6044-5-3-17" serif:id="path6044-5-3-1" d="M474.307,191.283l10.061,0.118l-6.131,7.979c1.042,-3.007 -0.923,-7.055 -3.93,-8.097Z" style="fill:#808080;"/><path d="M376.434,243.802c0,0 78.161,-37.947 101.457,-49.257" style="fill:none;stroke:#808080;stroke-width:3px;"/><g id="text6007-6-1-632" serif:id="text6007-6-1-6"></g><g id="text6007-6-1-633" serif:id="text6007-6-1-6"><text x="495.696px" y="141.78px" style="font-family:'Delicious-Heavy', 'Delicious Heavy';font-weight:500;font-size:22.5px;">constructor</text></g><g id="text6007-6-1-634" serif:id="text6007-6-1-6"></g><g id="text6007-6-1-635" serif:id="text6007-6-1-6"></g><g id="text6007-6-1-636" serif:id="text6007-6-1-6"></g><g id="text7022-9-214" serif:id="text7022-9-2"></g><g id="text7022-9-215" serif:id="text7022-9-2"></g><g id="text7022-9-216" serif:id="text7022-9-2"></g><g id="text7022-9-217" serif:id="text7022-9-2"></g><g id="text7022-9-218" serif:id="text7022-9-2"></g><g id="text7022-9-219" serif:id="text7022-9-2"></g><g id="text7022-9-220" serif:id="text7022-9-2"></g><g id="text7022-9-221" serif:id="text7022-9-2"></g><g id="text7022-9-222" serif:id="text7022-9-2"></g></g></svg>