<?xml version="1.0" encoding="UTF-8" standalone="no"?><!DOCTYPE svg PUBLIC "-//W3C//DTD SVG 1.1//EN" "http://www.w3.org/Graphics/SVG/1.1/DTD/svg11.dtd"><svg width="1028px" height="713px" version="1.1" xmlns="http://www.w3.org/2000/svg" xmlns:xlink="http://www.w3.org/1999/xlink" xml:space="preserve" xmlns:serif="http://www.serif.com/" style="fill-rule:evenodd;clip-rule:evenodd;"><g id="Layer-1" serif:id="Layer 1"><g id="text6007"></g><g id="text60071" serif:id="text6007"></g><g id="text60072" serif:id="text6007"></g><g id="text60073" serif:id="text6007"></g><g id="text7018"></g><g id="text70181" serif:id="text7018"></g><g id="text70182" serif:id="text7018"></g><g id="text70183" serif:id="text7018"></g><g id="text4795"></g><g id="text47951" serif:id="text4795"></g><g id="text47952" serif:id="text4795"></g><g id="text47953" serif:id="text4795"></g><g id="text47954" serif:id="text4795"></g><g id="text47955" serif:id="text4795"></g><g id="text47956" serif:id="text4795"></g><g id="text47957" serif:id="text4795"></g><g id="text47958" serif:id="text4795"></g><g id="text47959" serif:id="text4795"></g><g id="text479510" serif:id="text4795"></g><g id="text479511" serif:id="text4795"></g><g id="text479512" serif:id="text4795"></g><g id="text479513" serif:id="text4795"></g><g id="text479514" serif:id="text4795"></g><g id="text479515" serif:id="text4795"></g><g id="text479516" serif:id="text4795"></g><g id="text1254"></g><g id="text1620"></g><g id="text4795-1"></g><g id="text4795-11" serif:id="text4795-1"></g><g id="text4795-12" serif:id="text4795-1"></g><g id="text7022-9"></g><g id="text7022-91" serif:id="text7022-9"></g><g id="text7022-92" serif:id="text7022-9"></g><g id="text8102"></g><g id="text81021" serif:id="text8102"></g><g id="text81022" serif:id="text8102"></g><g id="text70184" serif:id="text7018"></g><g id="text70185" serif:id="text7018"></g><g id="text70186" serif:id="text7018"></g><g id="text70187" serif:id="text7018"></g><g id="text7018-0-4-7-2-6"></g><g id="text7018-0-4-7-2-61" serif:id="text7018-0-4-7-2-6"></g><g id="text7018-0-4-7-2-62" serif:id="text7018-0-4-7-2-6"></g><g id="text4795-13" serif:id="text4795-1"></g><g id="text7022-93" serif:id="text7022-9"></g><g id="text81023" serif:id="text8102"></g><g id="text7018-0-4-7-2-63" serif:id="text7018-0-4-7-2-6"></g><g id="text4795-14" serif:id="text4795-1"></g><g id="text4795-15" serif:id="text4795-1"></g><g id="text7022-94" serif:id="text7022-9"></g><g id="text7022-95" serif:id="text7022-9"></g><g id="text81024" serif:id="text8102"></g><g id="text81025" serif:id="text8102"></g><g id="text7018-0-4-7-2-64" serif:id="text7018-0-4-7-2-6"></g><g id="text7018-0-4-7-2-65" serif:id="text7018-0-4-7-2-6"></g><g><g id="text4795-16" serif:id="text4795-1"></g><g id="text7022-96" serif:id="text7022-9"></g><g id="text81026" serif:id="text8102"></g><g id="text7018-0-4-7-2-66" serif:id="text7018-0-4-7-2-6"></g></g><rect id="rect6003-9-3" x="637.286" y="420.648" width="123.595" height="82.032" style="fill:#fff287;stroke:#000;stroke-width:3px;"/><g id="text4795-17" serif:id="text4795-1"></g><g id="text4795-18" serif:id="text4795-1"><text x="624.729px" y="411.329px" style="font-family:'Delicious-Heavy', 'Delicious Heavy';font-weight:500;font-size:22.5px;">Object.pr<tspan x="704.964px " y="411.329px ">o</tspan>totype</text></g><g id="text4795-19" serif:id="text4795-1"></g><g id="text7022-97" serif:id="text7022-9"></g><g id="text7022-98" serif:id="text7022-9"><text x="648.044px" y="443.47px" style="font-family:'Delicious-Heavy', 'Delicious Heavy';font-weight:500;font-size:22.5px;">toString()</text></g><g id="text7022-99" serif:id="text7022-9"></g><g id="text81027" serif:id="text8102"></g><g id="text81028" serif:id="text8102"><text x="647.727px" y="460.203px" style="font-family:'Delicious-Heavy', 'Delicious Heavy';font-weight:500;font-size:30px;">...</text></g><g id="text81029" serif:id="text8102"></g><g><path id="path6044-5-3-1" d="M794.222,475.167l9.018,4.463l-8.982,4.537c2.241,-2.259 2.223,-6.759 -0.036,-9Z" style="fill:#808080;"/><path d="M753.298,479.833c0,0 28.915,-0.118 42.742,-0.174" style="fill:none;stroke:#808080;stroke-width:3px;"/><text x="804.843px" y="487.357px" style="font-family:'Delicious-Bold', 'Delicious';font-weight:700;font-size:36px;fill:#000080;">null</text></g><g id="text7018-0-4-7-2-67" serif:id="text7018-0-4-7-2-6"></g><g id="text7018-0-4-7-2-68" serif:id="text7018-0-4-7-2-6"><path id="path7932-2-0-2" d="M647.292,489.294l0,-2.745l-1.35,0l0,-14.468l1.35,0l0,-2.745l-4.32,0l0,19.958l4.32,0Z" style="fill:#808080;fill-rule:nonzero;"/><path id="path7934-7-6-1" d="M652.873,489.294l0,-2.745l-1.35,0l0,-14.468l1.35,0l0,-2.745l-4.32,0l0,19.958l4.32,0Z" style="fill:#808080;fill-rule:nonzero;"/><path id="path7936-2-8-7" d="M664.236,476.266c0,-3.577 -2.7,-4.657 -5.827,-4.657l-3.735,0l0,14.175l3.352,0l0,-4.86c0.338,0.202 0.878,0.315 1.238,0.315c2.722,0 4.972,-2.25 4.972,-4.973Zm-3.352,-0.022c0,1.305 -0.54,2.25 -1.958,2.25c-0.225,0 -0.675,-0.18 -0.9,-0.27l0,-3.803l0.495,0c1.305,0 2.363,0.293 2.363,1.823l0,0Z" style="fill:#808080;fill-rule:nonzero;"/><path id="path7938-2-9-8" d="M671.24,477.954l0.428,-3.195c0,0 -0.518,-0.338 -1.17,-0.338c-0.563,0 -1.53,1.148 -1.53,1.148l0,-0.81l-3.285,0l0,11.025l3.262,0l0,-7.83c0,0 0.315,-0.338 0.878,-0.338c0.63,0 1.417,0.338 1.417,0.338Z" style="fill:#808080;fill-rule:nonzero;"/><path id="path7940-6-2-5" d="M677.012,486.121c3.42,0 4.95,-3.24 4.95,-5.85c0,-2.61 -1.53,-5.85 -4.95,-5.85c-3.42,0 -4.95,3.24 -4.95,5.85c0,2.61 1.53,5.85 4.95,5.85Zm0,-8.977c1.057,0 1.687,1.17 1.687,3.127c0,1.935 -0.63,3.15 -1.687,3.15c-1.058,0 -1.688,-1.192 -1.688,-3.15c0,-1.957 0.63,-3.127 1.688,-3.127Z" style="fill:#808080;fill-rule:nonzero;"/><path id="path7942-1-66-74" d="M687.953,485.941c0.36,-0.112 1.327,-0.517 1.327,-0.517l-0.697,-2.228c0,0 -0.608,0.338 -1.103,0.158c-0.315,-0.09 -0.36,-0.653 -0.36,-0.788l0,-5.22l1.8,0l0,-2.587l-1.845,0l0,-1.98l-3.127,0l0,1.98l-1.058,0l0,2.34l0.968,0.247l0,5.76c0,1.463 0.675,3.015 2.7,3.015c0.585,0 0.99,-0.045 1.395,-0.18l0,0Z" style="fill:#808080;fill-rule:nonzero;"/><path id="path7944-0-4-1" d="M694.897,486.121c3.42,0 4.95,-3.24 4.95,-5.85c0,-2.61 -1.53,-5.85 -4.95,-5.85c-3.42,0 -4.95,3.24 -4.95,5.85c0,2.61 1.53,5.85 4.95,5.85Zm0,-8.977c1.058,0 1.688,1.17 1.688,3.127c0,1.935 -0.63,3.15 -1.688,3.15c-1.057,0 -1.687,-1.192 -1.687,-3.15c0,-1.957 0.63,-3.127 1.687,-3.127Z" style="fill:#808080;fill-rule:nonzero;"/><path id="path7946-6-9-8" d="M705.839,485.941c0.36,-0.112 1.327,-0.517 1.327,-0.517l-0.697,-2.228c0,0 -0.608,0.338 -1.103,0.158c-0.315,-0.09 -0.36,-0.653 -0.36,-0.788l0,-5.22l1.8,0l0,-2.587l-1.845,0l0,-1.98l-3.127,0l0,1.98l-1.058,0l0,2.34l0.968,0.247l0,5.76c0,1.463 0.675,3.015 2.7,3.015c0.585,0 0.99,-0.045 1.395,-0.18l0,0Z" style="fill:#808080;fill-rule:nonzero;"/><path id="path7948-1-5-5" d="M712.603,481.981c-0.135,-2.182 -1.642,-7.222 -1.642,-7.222l-3.465,0l3.375,10.8c-0.653,1.102 -0.765,1.485 -2.52,2.092l0.742,2.385c0,0 1.733,-0.337 2.633,-0.945c2.88,-1.935 4.927,-10.755 5.602,-14.332l-3.352,0c-0.315,2.542 -0.743,4.95 -1.373,7.222Z" style="fill:#808080;fill-rule:nonzero;"/><path id="path7950-5-0-9" d="M723.856,486.121c3.892,0 4.68,-3.712 4.68,-6.232c0,-2.34 -1.283,-5.468 -4.208,-5.468c-1.215,0 -2.34,1.148 -2.34,1.148l0.023,-0.81l-3.285,0l0,14.962l3.285,0l0,-4.387c0,0 0.788,0.787 1.845,0.787l0,0Zm-0.09,-9c1.417,0 1.44,1.958 1.44,2.948c0,0.967 0.045,3.42 -1.44,3.42c-1.62,0 -1.755,-1.778 -1.755,-3.038l0,-2.407c0.495,-0.428 0.832,-0.923 1.755,-0.923Z" style="fill:#808080;fill-rule:nonzero;"/><path id="path7952-9-4-7" d="M739.305,480.564c0,-0.608 -0.023,-1.193 -0.045,-1.8c-0.068,-2.363 -2.003,-4.343 -4.388,-4.343c-3.127,0 -5.265,2.588 -5.265,5.603c0,3.015 1.395,6.12 4.86,6.12c1.373,0 3.083,-0.743 4.163,-1.643l-0.945,-2.025c-0.833,0.608 -2.093,0.968 -3.105,0.968c-1.283,0 -1.71,-1.485 -1.71,-2.52c0,-0.113 0,-0.248 0.023,-0.36l6.412,0Zm-3.06,-2.07l-3.128,0c0.091,-0.788 0.675,-1.913 1.598,-1.913c1.012,0 1.507,1.035 1.53,1.913Z" style="fill:#808080;fill-rule:nonzero;"/><path id="path7954-4-8-5" d="M744.631,489.294l-4.32,0l0,-2.745l1.35,0l0,-14.468l-1.35,0l0,-2.745l4.32,0l0,19.958Z" style="fill:#808080;fill-rule:nonzero;"/><path id="path7956-9-7-3" d="M750.212,489.294l-4.32,0l0,-2.745l1.35,0l0,-14.468l-1.35,0l0,-2.745l4.32,0l0,19.958Z" style="fill:#808080;fill-rule:nonzero;"/></g><g id="text7018-0-4-7-2-69" serif:id="text7018-0-4-7-2-6"></g><g id="text4795-110" serif:id="text4795-1"></g><g id="text4795-111" serif:id="text4795-1"></g><g id="text4795-112" serif:id="text4795-1"></g><g id="text7022-910" serif:id="text7022-9"></g><g id="text810210" serif:id="text8102"></g><g id="text7018-0-4-7-2-610" serif:id="text7018-0-4-7-2-6"></g><g id="text4795-113" serif:id="text4795-1"></g><g id="text7022-911" serif:id="text7022-9"></g><g id="text810211" serif:id="text8102"></g><g id="text7018-0-4-7-2-611" serif:id="text7018-0-4-7-2-6"></g><g id="text4795-114" serif:id="text4795-1"></g><g id="text7022-912" serif:id="text7022-9"></g><g id="text810212" serif:id="text8102"></g><g id="text7018-0-4-7-2-612" serif:id="text7018-0-4-7-2-6"></g><g><g id="text479517" serif:id="text4795"></g><g id="text70188" serif:id="text7018"></g></g><rect id="rect6003-9" x="56.066" y="256.401" width="168.984" height="67.019" style="fill:#e6e6e6;stroke:#000;stroke-width:3px;"/><g id="text479518" serif:id="text4795"></g><g id="text479519" serif:id="text4795"></g><g id="text479520" serif:id="text4795"></g><g id="text479521" serif:id="text4795"></g><g id="text479522" serif:id="text4795"></g><g id="text479523" serif:id="text4795"><text x="122.254px" y="248.712px" style="font-family:'Delicious-Heavy', 'Delicious Heavy';font-weight:500;font-size:22.5px;">acc1</text></g><g id="text479524" serif:id="text4795"></g><g id="text479525" serif:id="text4795"></g><g id="text479526" serif:id="text4795"></g><g id="text479527" serif:id="text4795"></g><g id="text479528" serif:id="text4795"></g><g id="text479529" serif:id="text4795"></g><g id="text70189" serif:id="text7018"></g><g id="text701810" serif:id="text7018"></g><g id="text701811" serif:id="text7018"></g><g id="text701812" serif:id="text7018"></g><g id="text701813" serif:id="text7018"></g><g id="text701814" serif:id="text7018"><text x="63.138px" y="311.504px" style="font-family:'Delicious-Heavy', 'Delicious Heavy';font-weight:500;font-size:22.5px;fill:#808080;">[[Pr<tspan x="92.365px " y="311.504px ">o</tspan>totype]]</text></g><g id="text701815" serif:id="text7018"></g><g id="text701816" serif:id="text7018"></g><g id="text701817" serif:id="text7018"></g><g id="text701818" serif:id="text7018"></g><g id="text701819" serif:id="text7018"></g><rect id="rect6003-91" serif:id="rect6003-9" x="134.002" y="400.329" width="207.206" height="128.948" style="fill:#e6e6e6;stroke:#000;stroke-width:3px;"/><g id="text479530" serif:id="text4795"></g><g id="text479531" serif:id="text4795"></g><g id="text479532" serif:id="text4795"></g><g id="text479533" serif:id="text4795"></g><g id="text479534" serif:id="text4795"><text x="199.12px" y="392.582px" style="font-family:'Delicious-Heavy', 'Delicious Heavy';font-weight:500;font-size:22.5px;">Account()</text></g><g id="text479535" serif:id="text4795"></g><g id="text479536" serif:id="text4795"></g><path d="M325.586,568.468l-4.265,9.114l-4.732,-8.88c2.307,2.191 6.806,2.073 8.997,-0.234Z"/><path d="M215.101,461.408c0,0 11.526,-0.164 67.723,-0.369c37.769,-0.137 37.984,82.093 38.31,109.345" style="fill:none;stroke:#000;stroke-width:3px;stroke-linecap:round;stroke-linejoin:round;stroke-miterlimit:1.5;"/><g id="text479537" serif:id="text4795"></g><g id="text479538" serif:id="text4795"></g><g id="text479539" serif:id="text4795"></g><g id="text479540" serif:id="text4795"></g><g id="text479541" serif:id="text4795"></g><g id="text479542" serif:id="text4795"></g><g id="text479543" serif:id="text4795"></g><text x="142.552px" y="444.552px" style="font-family:'Delicious-Heavy', 'Delicious Heavy';font-weight:500;font-size:22.5px;">count:</text><text x="141.902px" y="422.643px" style="font-family:'Delicious-Heavy', 'Delicious Heavy';font-weight:500;font-size:22.5px;">MAX_WITHDRA<tspan x="268.779px 283.877px " y="422.643px 422.643px ">W:</tspan></text><text x="64.608px" y="280.923px" style="font-family:'Delicious-Heavy', 'Delicious Heavy';font-weight:500;font-size:22.5px;">_balance:</text><text x="199.792px" y="444.758px" style="font-family:'Delicious-Bold', 'Delicious';font-weight:700;font-size:22.5px;fill:#000080;">1</text><text x="293.717px" y="421.331px" style="font-family:'Delicious-Bold', 'Delicious';font-weight:700;font-size:22.5px;fill:#000080;">5000</text><text x="152.421px" y="280.688px" style="font-family:'Delicious-Bold', 'Delicious';font-weight:700;font-size:22.5px;fill:#000080;">1000</text><g id="text701820" serif:id="text7018"></g><g id="text701821" serif:id="text7018"></g><g id="text701822" serif:id="text7018"></g><g id="text701823" serif:id="text7018"></g><g id="text701824" serif:id="text7018"><text x="141.656px" y="515.058px" style="font-family:'Delicious-Heavy', 'Delicious Heavy';font-weight:500;font-size:22.5px;fill:#808080;">[[Pr<tspan x="170.884px " y="515.058px ">o</tspan>totype]]</text></g><g id="text701825" serif:id="text7018"></g><g id="text701826" serif:id="text7018"></g><g id="text701827" serif:id="text7018"></g><g id="text701828" serif:id="text7018"></g><g id="text701829" serif:id="text7018"></g><g id="text701830" serif:id="text7018"></g><g id="text701831" serif:id="text7018"></g><path id="path6044-5-3-11" serif:id="path6044-5-3-1" d="M394.077,503.284l8.99,4.519l-9.009,4.481c2.254,-2.245 2.264,-6.745 0.019,-9Z" style="fill:#808080;"/><path d="M256.874,507.492c0,0 109.568,0.233 138.993,0.296" style="fill:none;stroke:#808080;stroke-width:3px;"/><g id="text479544" serif:id="text4795"></g><g id="text701832" serif:id="text7018"></g><g id="text479545" serif:id="text4795"></g><g id="text701833" serif:id="text7018"></g><g id="text4795-1-6"></g><g id="text7022-9-2"></g><g id="text7018-0-4-7-6"></g><g id="text8102-5"></g><g id="text7022-9-2-6"></g><g id="text4795-1-61" serif:id="text4795-1-6"></g><g id="text4795-1-62" serif:id="text4795-1-6"></g><g id="text7022-9-21" serif:id="text7022-9-2"></g><g id="text7022-9-22" serif:id="text7022-9-2"></g><g id="text7018-0-4-7-61" serif:id="text7018-0-4-7-6"></g><g id="text7018-0-4-7-62" serif:id="text7018-0-4-7-6"></g><g id="text8102-51" serif:id="text8102-5"></g><g id="text8102-52" serif:id="text8102-5"></g><g id="text7022-9-2-61" serif:id="text7022-9-2-6"></g><g id="text7022-9-2-62" serif:id="text7022-9-2-6"></g><g id="text4795-1-63" serif:id="text4795-1-6"></g><g id="text7022-9-23" serif:id="text7022-9-2"></g><g id="text7018-0-4-7-63" serif:id="text7018-0-4-7-6"></g><g id="text8102-53" serif:id="text8102-5"></g><g id="text7022-9-2-63" serif:id="text7022-9-2-6"></g><rect id="rect6003-9-3-0" x="409.319" y="457.544" width="123.595" height="102.84" style="fill:#fff287;stroke:#000;stroke-width:3px;"/><g id="text4795-1-64" serif:id="text4795-1-6"></g><g id="text4795-1-65" serif:id="text4795-1-6"><text x="386.004px" y="448.46px" style="font-family:'Delicious-Heavy', 'Delicious Heavy';font-weight:500;font-size:22.5px;">Function.pr<tspan x="487.276px " y="448.46px ">o</tspan>totype</text></g><g id="text4795-1-66" serif:id="text4795-1-6"></g><g id="text7022-9-24" serif:id="text7022-9-2"></g><g id="text7022-9-25" serif:id="text7022-9-2"><text x="417px" y="481.229px" style="font-family:'Delicious-Heavy', 'Delicious Heavy';font-weight:500;font-size:22.5px;">call()</text></g><g id="text7022-9-26" serif:id="text7022-9-2"></g><g id="text7018-0-4-7-64" serif:id="text7018-0-4-7-6"></g><g id="text7018-0-4-7-65" serif:id="text7018-0-4-7-6"><path id="path7932-2-1" d="M421.816,550.563l0,-2.745l-1.35,0l0,-14.468l1.35,0l0,-2.745l-4.32,0l0,19.958l4.32,0Z" style="fill:#808080;fill-rule:nonzero;"/><path id="path7934-7-5" d="M427.397,550.563l0,-2.745l-1.35,0l0,-14.468l1.35,0l0,-2.745l-4.32,0l0,19.958l4.32,0Z" style="fill:#808080;fill-rule:nonzero;"/><path id="path7936-2-5" d="M438.761,537.535c0,-3.577 -2.7,-4.657 -5.828,-4.657l-3.735,0l0,14.175l3.353,0l0,-4.86c0.337,0.202 0.877,0.315 1.237,0.315c2.723,0 4.973,-2.25 4.973,-4.973Zm-3.353,-0.022c0,1.305 -0.54,2.25 -1.957,2.25c-0.225,0 -0.675,-0.18 -0.9,-0.27l0,-3.803l0.495,0c1.305,0 2.362,0.293 2.362,1.823l0,0Z" style="fill:#808080;fill-rule:nonzero;"/><path id="path7938-2-4" d="M445.764,539.223l0.428,-3.195c0,0 -0.518,-0.338 -1.17,-0.338c-0.563,0 -1.53,1.148 -1.53,1.148l0,-0.81l-3.285,0l0,11.025l3.262,0l0,-7.83c0,0 0.315,-0.338 0.878,-0.338c0.63,0 1.417,0.338 1.417,0.338Z" style="fill:#808080;fill-rule:nonzero;"/><path id="path7940-6-7" d="M451.536,547.39c3.42,0 4.95,-3.24 4.95,-5.85c0,-2.61 -1.53,-5.85 -4.95,-5.85c-3.42,0 -4.95,3.24 -4.95,5.85c0,2.61 1.53,5.85 4.95,5.85Zm0,-8.977c1.057,0 1.687,1.17 1.687,3.127c0,1.935 -0.63,3.15 -1.687,3.15c-1.058,0 -1.688,-1.192 -1.688,-3.15c0,-1.957 0.63,-3.127 1.688,-3.127Z" style="fill:#808080;fill-rule:nonzero;"/><path id="path7942-1-6" d="M462.477,547.21c0.36,-0.112 1.327,-0.517 1.327,-0.517l-0.697,-2.228c0,0 -0.607,0.338 -1.103,0.158c-0.314,-0.09 -0.36,-0.652 -0.36,-0.787l0,-5.22l1.8,0l0,-2.588l-1.844,0l0,-1.98l-3.128,0l0,1.98l-1.058,0l0,2.34l0.968,0.248l0,5.76c0,1.462 0.675,3.015 2.7,3.015c0.585,0 0.99,-0.046 1.395,-0.18l0,-0.001Z" style="fill:#808080;fill-rule:nonzero;"/><path id="path7944-0-5" d="M469.421,547.39c3.42,0 4.95,-3.24 4.95,-5.85c0,-2.61 -1.53,-5.85 -4.95,-5.85c-3.42,0 -4.95,3.24 -4.95,5.85c0,2.61 1.53,5.85 4.95,5.85Zm0,-8.977c1.058,0 1.688,1.17 1.688,3.127c0,1.935 -0.63,3.15 -1.688,3.15c-1.057,0 -1.687,-1.192 -1.687,-3.15c0,-1.957 0.63,-3.127 1.687,-3.127Z" style="fill:#808080;fill-rule:nonzero;"/><path id="path7946-6-6" d="M480.363,547.21c0.36,-0.112 1.327,-0.517 1.327,-0.517l-0.697,-2.228c0,0 -0.608,0.338 -1.103,0.158c-0.315,-0.09 -0.36,-0.652 -0.36,-0.787l0,-5.22l1.8,0l0,-2.588l-1.845,0l0,-1.98l-3.127,0l0,1.98l-1.058,0l0,2.34l0.968,0.248l0,5.76c0,1.462 0.675,3.015 2.7,3.015c0.585,0 0.99,-0.046 1.395,-0.18l0,-0.001Z" style="fill:#808080;fill-rule:nonzero;"/><path id="path7948-1-9" d="M487.127,543.25c-0.135,-2.182 -1.642,-7.222 -1.642,-7.222l-3.465,0l3.375,10.8c-0.653,1.102 -0.765,1.485 -2.52,2.092l0.742,2.385c0,0 1.733,-0.337 2.633,-0.945c2.88,-1.935 4.927,-10.755 5.602,-14.332l-3.352,0c-0.315,2.542 -0.743,4.95 -1.373,7.222Z" style="fill:#808080;fill-rule:nonzero;"/><path id="path7950-5-3" d="M498.38,547.39c3.892,0 4.68,-3.712 4.68,-6.232c0,-2.34 -1.283,-5.468 -4.208,-5.468c-1.215,0 -2.34,1.148 -2.34,1.148l0.023,-0.81l-3.285,0l0,14.962l3.285,0l0,-4.387c0,0 0.788,0.787 1.845,0.787l0,0Zm-0.09,-9c1.417,0 1.44,1.958 1.44,2.948c0,0.967 0.045,3.42 -1.44,3.42c-1.62,0 -1.755,-1.778 -1.755,-3.038l0,-2.407c0.495,-0.428 0.832,-0.923 1.755,-0.923Z" style="fill:#808080;fill-rule:nonzero;"/><path id="path7952-9-7" d="M513.829,541.833c0,-0.608 -0.023,-1.193 -0.045,-1.8c-0.067,-2.363 -2.003,-4.343 -4.388,-4.343c-3.127,0 -5.265,2.588 -5.265,5.603c0,3.015 1.395,6.12 4.86,6.12c1.373,0 3.083,-0.743 4.163,-1.643l-0.945,-2.025c-0.833,0.608 -2.093,0.968 -3.105,0.968c-1.283,0 -1.71,-1.485 -1.71,-2.52c0,-0.113 0,-0.247 0.023,-0.36l6.412,0Zm-3.06,-2.07l-3.127,0c0.09,-0.788 0.675,-1.913 1.597,-1.913c1.013,0 1.508,1.035 1.53,1.913Z" style="fill:#808080;fill-rule:nonzero;"/><path id="path7954-4-4" d="M519.155,550.563l-4.32,0l0,-2.745l1.35,0l0,-14.468l-1.35,0l0,-2.745l4.32,0l0,19.958Z" style="fill:#808080;fill-rule:nonzero;"/><path id="path7956-9-5" d="M524.736,550.563l-4.32,0l0,-2.745l1.35,0l0,-14.468l-1.35,0l0,-2.745l4.32,0l0,19.958Z" style="fill:#808080;fill-rule:nonzero;"/></g><g id="text7018-0-4-7-66" serif:id="text7018-0-4-7-6"></g><g id="text8102-54" serif:id="text8102-5"></g><g id="text8102-55" serif:id="text8102-5"><text x="416.324px" y="520.397px" style="font-family:'Delicious-Heavy', 'Delicious Heavy';font-weight:500;font-size:30px;">...</text></g><g id="text8102-56" serif:id="text8102-5"></g><g id="text7022-9-2-64" serif:id="text7022-9-2-6"></g><g id="text7022-9-2-65" serif:id="text7022-9-2-6"><text x="417.112px" y="506.708px" style="font-family:'Delicious-Heavy', 'Delicious Heavy';font-weight:500;font-size:22.5px;">toString()</text></g><g id="text7022-9-2-66" serif:id="text7022-9-2-6"></g><g id="text4795-1-67" serif:id="text4795-1-6"></g><g id="text7022-9-27" serif:id="text7022-9-2"></g><g id="text7018-0-4-7-67" serif:id="text7018-0-4-7-6"></g><g id="text8102-57" serif:id="text8102-5"></g><g id="text7022-9-2-67" serif:id="text7022-9-2-6"></g><g id="text4795-1-68" serif:id="text4795-1-6"></g><g id="text7022-9-28" serif:id="text7022-9-2"></g><g id="text7018-0-4-7-68" serif:id="text7018-0-4-7-6"></g><g id="text8102-58" serif:id="text8102-5"></g><g id="text7022-9-2-68" serif:id="text7022-9-2-6"></g><g id="text479546" serif:id="text4795"></g><g id="text479547" serif:id="text4795"></g><g id="text701834" serif:id="text7018"></g><g id="text701835" serif:id="text7018"></g><g id="text7022-1-0-9"></g><g id="text7022-1-0-91" serif:id="text7022-1-0-9"></g><g id="text7022-1-0-92" serif:id="text7022-1-0-9"></g><g id="text7022-1-0-93" serif:id="text7022-1-0-9"></g><g id="text7022-1-0-94" serif:id="text7022-1-0-9"><text x="142.691px" y="489.983px" style="font-family:'Delicious-Heavy', 'Delicious Heavy';font-weight:500;font-size:22.5px;fill:#d45500;">pr<tspan x="161.366px " y="489.983px ">o</tspan>totype</text></g><g id="text7022-1-0-95" serif:id="text7022-1-0-9"></g><g id="text7022-1-0-96" serif:id="text7022-1-0-9"></g><g id="text7022-1-0-97" serif:id="text7022-1-0-9"></g><g id="text7022-1-0-98" serif:id="text7022-1-0-9"></g><g id="text7022-1-0-99" serif:id="text7022-1-0-9"></g><g id="text7022-1-0-910" serif:id="text7022-1-0-9"></g><g id="text7022-1-0-911" serif:id="text7022-1-0-9"></g><rect id="rect6003-3-1" x="407.515" y="250.922" width="131.221" height="141.515" style="fill:#ffe6d5;stroke:#d45500;stroke-width:3px;"/><g id="text6007-6-1"></g><g id="text6007-6-11" serif:id="text6007-6-1"></g><g id="text6007-6-12" serif:id="text6007-6-1"></g><g id="text6007-6-13" serif:id="text6007-6-1"></g><g id="text6007-6-14" serif:id="text6007-6-1"></g><g id="text6007-6-15" serif:id="text6007-6-1"><text x="388.653px" y="241.872px" style="font-family:'Delicious-Heavy', 'Delicious Heavy';font-weight:500;font-size:22.5px;">Account.pr<tspan x="484.368px " y="241.872px ">o</tspan>totype</text></g><g id="text6007-6-16" serif:id="text6007-6-1"></g><g id="text6007-6-17" serif:id="text6007-6-1"></g><g id="text6007-6-18" serif:id="text6007-6-1"></g><g id="text6007-6-19" serif:id="text6007-6-1"></g><g id="text6007-6-110" serif:id="text6007-6-1"></g><g id="text6007-6-111" serif:id="text6007-6-1"></g><g id="text6007-6-112" serif:id="text6007-6-1"></g><g id="text7018-0-9"></g><g id="text7018-0-91" serif:id="text7018-0-9"></g><g id="text7018-0-92" serif:id="text7018-0-9"></g><g id="text7018-0-93" serif:id="text7018-0-9"></g><g id="text7018-0-94" serif:id="text7018-0-9"><text x="414.759px" y="376.871px" style="font-family:'Delicious-Heavy', 'Delicious Heavy';font-weight:500;font-size:22.5px;fill:#808080;">[[Pr<tspan x="443.987px " y="376.871px ">o</tspan>totype]]</text></g><g id="text7018-0-95" serif:id="text7018-0-9"></g><g id="text7018-0-96" serif:id="text7018-0-9"></g><g id="text7018-0-97" serif:id="text7018-0-9"></g><g id="text7018-0-98" serif:id="text7018-0-9"></g><g id="text7018-0-99" serif:id="text7018-0-9"></g><g id="text7018-0-910" serif:id="text7018-0-9"></g><g id="text7018-0-911" serif:id="text7018-0-9"></g><g id="text7018-0-912" serif:id="text7018-0-9"></g><g id="text7018-0-913" serif:id="text7018-0-9"></g><g id="text6007-6-1-6"></g><g id="text6007-6-1-61" serif:id="text6007-6-1-6"></g><g id="text6007-6-1-62" serif:id="text6007-6-1-6"></g><g id="text6007-6-1-63" serif:id="text6007-6-1-6"><text x="414.894px" y="353.847px" style="font-family:'Delicious-Heavy', 'Delicious Heavy';font-weight:500;font-size:22.5px;fill:#d45500;">constructor</text></g><g id="text6007-6-1-64" serif:id="text6007-6-1-6"></g><g id="text6007-6-1-65" serif:id="text6007-6-1-6"></g><g id="text6007-6-1-66" serif:id="text6007-6-1-6"></g><g id="text6007-6-1-67" serif:id="text6007-6-1-6"></g><g id="text6007-6-1-68" serif:id="text6007-6-1-6"></g><g id="text6007-6-1-69" serif:id="text6007-6-1-6"></g><g id="text6007-6-1-610" serif:id="text6007-6-1-6"></g><g id="text6007-6-1-611" serif:id="text6007-6-1-6"></g><g id="text6007-6-1-612" serif:id="text6007-6-1-6"></g><g id="text7022-1-0-912" serif:id="text7022-1-0-9"></g><g id="text7022-1-0-913" serif:id="text7022-1-0-9"></g><g id="text6007-6-113" serif:id="text6007-6-1"></g><g id="text6007-6-114" serif:id="text6007-6-1"></g><g id="text7018-0-914" serif:id="text7018-0-9"></g><g id="text7018-0-915" serif:id="text7018-0-9"></g><g id="text6007-6-1-613" serif:id="text6007-6-1-6"></g><g id="text6007-6-1-614" serif:id="text6007-6-1-6"></g><path id="path6044-5-3-12" serif:id="path6044-5-3-1" d="M622.987,478.831l10.026,-0.858l-5.329,8.535c0.745,-3.093 -1.603,-6.932 -4.697,-7.677Z" style="fill:#808080;"/><path d="M527.02,542.806c0,0 77.248,-47.25 99.851,-61.076" style="fill:none;stroke:#808080;stroke-width:3px;"/><path id="path3964-2-2" d="M618.363,397.129l3.226,9.532l-9.561,-3.139c3.182,-0.014 6.349,-3.211 6.335,-6.393Z" style="fill:#808080;fill-rule:nonzero;"/><path d="M523.59,370.589c0,0 39.747,-1.061 55.313,4.134c12.833,4.283 29.354,18.996 37.571,26.87" style="fill:none;fill-rule:nonzero;stroke:#808080;stroke-width:3px;"/><path id="path6044-5-3-13" serif:id="path6044-5-3-1" d="M391.312,385.729l10.061,0.16l-6.165,7.953c1.055,-3.002 -0.894,-7.059 -3.896,-8.113Z" style="fill:#d45500;"/><path d="M233.401,485.279c37.591,-0.575 92.718,4.767 118.422,-5.252c30.037,-11.708 4.305,-68.899 43.06,-91.021" style="fill:none;stroke:#d45500;stroke-width:3px;"/><path id="path6044-5-3-14" serif:id="path6044-5-3-1" d="M344.649,389.204l-10.06,-0.204l6.199,-7.926c-1.067,2.998 0.864,7.063 3.861,8.13Z" style="fill:#d45500;"/><path d="M413.384,351.572c0,0 -53.423,25.377 -72.291,34.339" style="fill:none;stroke:#d45500;stroke-width:3px;"/><rect id="rect6003-92" serif:id="rect6003-9" x="644.317" y="34.34" width="123.595" height="58.582" style="fill:#e6e6e6;stroke:#000;stroke-width:3px;"/><g id="text701836" serif:id="text7018"><text x="651.389px" y="81.746px" style="font-family:'Delicious-Heavy', 'Delicious Heavy';font-weight:500;font-size:22.5px;fill:#808080;">[[Pr<tspan x="680.617px " y="81.746px ">o</tspan>totype]]</text></g><g id="text7022-1-0-914" serif:id="text7022-1-0-9"><text x="649.908px" y="56.688px" style="font-family:'Delicious-Heavy', 'Delicious Heavy';font-weight:500;font-size:22.5px;fill:#d45500;">pr<tspan x="668.583px " y="56.688px ">o</tspan>totype</text></g><rect id="rect6003-3-11" serif:id="rect6003-3-1" x="803.441" y="56.256" width="123.595" height="62.014" style="fill:#ffe6d5;stroke:#d45500;stroke-width:3px;"/><g id="text7018-0-916" serif:id="text7018-0-9"><text x="808.685px" y="102.704px" style="font-family:'Delicious-Heavy', 'Delicious Heavy';font-weight:500;font-size:22.5px;fill:#808080;">[[Pr<tspan x="837.912px " y="102.704px ">o</tspan>totype]]</text></g><g id="text6007-6-1-615" serif:id="text6007-6-1-6"><text x="808.82px" y="78.216px" style="font-family:'Delicious-Heavy', 'Delicious Heavy';font-weight:500;font-size:22.5px;fill:#d45500;">constructor</text></g><path id="path6044-5-3-15" serif:id="path6044-5-3-1" d="M778.228,73.676l-8.471,-5.431l9.427,-3.518c-2.476,1.998 -2.954,6.472 -0.956,8.949Z" style="fill:#d45500;"/><path d="M808.938,72.431c0,0 -20.716,-2.213 -32.021,-3.421" style="fill:none;stroke:#d45500;stroke-width:3px;"/><path id="path6044-5-3-16" serif:id="path6044-5-3-1" d="M790.443,55.302l8.285,5.71l-9.54,3.202c2.542,-1.915 3.169,-6.371 1.255,-8.912Z" style="fill:#d45500;"/><path d="M738.693,52.563c0,0 36.998,5.207 52.905,7.446" style="fill:none;stroke:#d45500;stroke-width:3px;"/><rect id="rect6003-93" serif:id="rect6003-9" x="644.317" y="144.536" width="123.595" height="58.582" style="fill:#e6e6e6;stroke:#000;stroke-width:3px;"/><g id="text701837" serif:id="text7018"><text x="651.389px" y="191.942px" style="font-family:'Delicious-Heavy', 'Delicious Heavy';font-weight:500;font-size:22.5px;fill:#808080;">[[Pr<tspan x="680.617px " y="191.942px ">o</tspan>totype]]</text></g><g id="text7022-1-0-915" serif:id="text7022-1-0-9"><text x="649.908px" y="166.884px" style="font-family:'Delicious-Heavy', 'Delicious Heavy';font-weight:500;font-size:22.5px;fill:#d45500;">pr<tspan x="668.583px " y="166.884px ">o</tspan>totype</text></g><rect id="rect6003-3-12" serif:id="rect6003-3-1" x="803.441" y="166.452" width="123.595" height="62.014" style="fill:#ffe6d5;stroke:#d45500;stroke-width:3px;"/><g id="text7018-0-917" serif:id="text7018-0-9"><text x="808.685px" y="212.899px" style="font-family:'Delicious-Heavy', 'Delicious Heavy';font-weight:500;font-size:22.5px;fill:#808080;">[[Pr<tspan x="837.912px " y="212.899px ">o</tspan>totype]]</text></g><g id="text6007-6-1-616" serif:id="text6007-6-1-6"><text x="808.82px" y="188.412px" style="font-family:'Delicious-Heavy', 'Delicious Heavy';font-weight:500;font-size:22.5px;fill:#d45500;">constructor</text></g><path id="path6044-5-3-17" serif:id="path6044-5-3-1" d="M778.228,183.871l-8.471,-5.43l9.427,-3.519c-2.476,1.999 -2.954,6.473 -0.956,8.949Z" style="fill:#d45500;"/><path d="M808.938,182.626c0,0 -20.716,-2.213 -32.021,-3.42" style="fill:none;stroke:#d45500;stroke-width:3px;"/><path id="path6044-5-3-18" serif:id="path6044-5-3-1" d="M790.443,165.498l8.285,5.71l-9.54,3.202c2.542,-1.915 3.169,-6.371 1.255,-8.912Z" style="fill:#d45500;"/><path d="M738.693,162.759c0,0 36.998,5.207 52.905,7.445" style="fill:none;stroke:#d45500;stroke-width:3px;"/><rect id="rect6003-94" serif:id="rect6003-9" x="644.317" y="254.732" width="123.595" height="58.582" style="fill:#e6e6e6;stroke:#000;stroke-width:3px;"/><rect id="rect6003-95" serif:id="rect6003-9" x="268.578" y="603.018" width="123.595" height="58.582" style="fill:#e6e6e6;stroke:#000;stroke-width:3px;"/><g id="text701838" serif:id="text7018"><text x="651.389px" y="302.138px" style="font-family:'Delicious-Heavy', 'Delicious Heavy';font-weight:500;font-size:22.5px;fill:#808080;">[[Pr<tspan x="680.617px " y="302.138px ">o</tspan>totype]]</text></g><g id="text701839" serif:id="text7018"><text x="275.65px" y="650.423px" style="font-family:'Delicious-Heavy', 'Delicious Heavy';font-weight:500;font-size:22.5px;fill:#808080;">[[Pr<tspan x="304.878px " y="650.423px ">o</tspan>totype]]</text></g><g id="text7022-1-0-916" serif:id="text7022-1-0-9"><text x="649.908px" y="277.08px" style="font-family:'Delicious-Heavy', 'Delicious Heavy';font-weight:500;font-size:22.5px;fill:#d45500;">pr<tspan x="668.583px " y="277.08px ">o</tspan>totype</text></g><g id="text7022-1-0-917" serif:id="text7022-1-0-9"><text x="274.169px" y="625.366px" style="font-family:'Delicious-Heavy', 'Delicious Heavy';font-weight:500;font-size:22.5px;fill:#d45500;">pr<tspan x="292.844px " y="625.366px ">o</tspan>totype</text></g><rect id="rect6003-3-13" serif:id="rect6003-3-1" x="803.441" y="276.647" width="123.595" height="62.014" style="fill:#ffe6d5;stroke:#d45500;stroke-width:3px;"/><rect id="rect6003-3-14" serif:id="rect6003-3-1" x="461.065" y="626.522" width="123.595" height="62.014" style="fill:#ffe6d5;stroke:#d45500;stroke-width:3px;"/><g id="text7018-0-918" serif:id="text7018-0-9"><text x="808.685px" y="323.095px" style="font-family:'Delicious-Heavy', 'Delicious Heavy';font-weight:500;font-size:22.5px;fill:#808080;">[[Pr<tspan x="837.912px " y="323.095px ">o</tspan>totype]]</text></g><g id="text7018-0-919" serif:id="text7018-0-9"><text x="466.309px" y="672.97px" style="font-family:'Delicious-Heavy', 'Delicious Heavy';font-weight:500;font-size:22.5px;fill:#808080;">[[Pr<tspan x="495.537px " y="672.97px ">o</tspan>totype]]</text></g><g id="text6007-6-1-617" serif:id="text6007-6-1-6"><text x="808.82px" y="298.608px" style="font-family:'Delicious-Heavy', 'Delicious Heavy';font-weight:500;font-size:22.5px;fill:#d45500;">constructor</text></g><g id="text6007-6-1-618" serif:id="text6007-6-1-6"><text x="466.444px" y="648.482px" style="font-family:'Delicious-Heavy', 'Delicious Heavy';font-weight:500;font-size:22.5px;fill:#d45500;">constructor</text></g><path id="path6044-5-3-19" serif:id="path6044-5-3-1" d="M778.228,294.067l-8.471,-5.43l9.427,-3.519c-2.476,1.998 -2.954,6.473 -0.956,8.949Z" style="fill:#d45500;"/><path d="M808.938,292.822c0,0 -20.716,-2.213 -32.021,-3.421" style="fill:none;stroke:#d45500;stroke-width:3px;"/><path id="path6044-5-3-110" serif:id="path6044-5-3-1" d="M402.518,642.308l-8.5,-5.386l9.408,-3.568c-2.465,2.011 -2.92,6.488 -0.908,8.954Z" style="fill:#d45500;"/><path d="M466.562,644.285c0,0 -47.073,-4.778 -65.381,-6.636" style="fill:none;stroke:#d45500;stroke-width:3px;"/><path id="path6044-5-3-111" serif:id="path6044-5-3-1" d="M790.443,275.693l8.285,5.711l-9.54,3.201c2.542,-1.914 3.169,-6.37 1.255,-8.912Z" style="fill:#d45500;"/><path d="M738.693,272.955c0,0 36.998,5.207 52.905,7.445" style="fill:none;stroke:#d45500;stroke-width:3px;"/><path id="path6044-5-3-112" serif:id="path6044-5-3-1" d="M451.246,628.138l8.347,5.618l-9.503,3.307c2.52,-1.942 3.098,-6.405 1.156,-8.925Z" style="fill:#d45500;"/><path d="M362.954,621.24c0,0 67.147,8.697 89.499,11.592" style="fill:none;stroke:#d45500;stroke-width:3px;"/><g id="text479548" serif:id="text4795"></g><g id="text479549" serif:id="text4795"></g><g id="text479550" serif:id="text4795"></g><g id="text479551" serif:id="text4795"></g><g id="text479552" serif:id="text4795"></g><g id="text479553" serif:id="text4795"></g><g id="text479554" serif:id="text4795"></g><g id="text479555" serif:id="text4795"></g><g id="text479556" serif:id="text4795"></g><g id="text701840" serif:id="text7018"></g><g id="text701841" serif:id="text7018"></g><g id="text701842" serif:id="text7018"></g><g id="text701843" serif:id="text7018"></g><g id="text701844" serif:id="text7018"></g><g id="text701845" serif:id="text7018"></g><g id="text701846" serif:id="text7018"></g><g id="text701847" serif:id="text7018"></g><g id="text7022-1-0-918" serif:id="text7022-1-0-9"></g><g id="text7022-1-0-919" serif:id="text7022-1-0-9"></g><g id="text479557" serif:id="text4795"></g><g id="text479558" serif:id="text4795"></g><g id="text701848" serif:id="text7018"></g><g id="text701849" serif:id="text7018"></g><g id="text7022-1-0-920" serif:id="text7022-1-0-9"></g><g id="text7022-1-0-921" serif:id="text7022-1-0-9"></g><g id="text4795-115" serif:id="text4795-1"></g><g id="text4795-116" serif:id="text4795-1"></g><g id="text4795-117" serif:id="text4795-1"></g><g id="text4795-118" serif:id="text4795-1"></g><g id="text4795-119" serif:id="text4795-1"></g><g id="text4795-120" serif:id="text4795-1"></g><g id="text4795-121" serif:id="text4795-1"></g><g id="text4795-122" serif:id="text4795-1"></g><g id="text7022-913" serif:id="text7022-9"></g><g id="text7022-914" serif:id="text7022-9"></g><g id="text7022-915" serif:id="text7022-9"></g><g id="text7022-916" serif:id="text7022-9"></g><g id="text7022-917" serif:id="text7022-9"></g><g id="text7022-918" serif:id="text7022-9"></g><g id="text7022-919" serif:id="text7022-9"></g><g id="text7022-920" serif:id="text7022-9"></g><g id="text7022-921" serif:id="text7022-9"></g><g id="text7022-922" serif:id="text7022-9"></g><g id="text810213" serif:id="text8102"></g><g id="text810214" serif:id="text8102"></g><g id="text810215" serif:id="text8102"></g><g id="text810216" serif:id="text8102"></g><g id="text810217" serif:id="text8102"></g><g id="text810218" serif:id="text8102"></g><g id="text810219" serif:id="text8102"></g><g id="text810220" serif:id="text8102"></g><g id="text810221" serif:id="text8102"></g><g id="text810222" serif:id="text8102"></g><g id="text7018-0-4-7-2-613" serif:id="text7018-0-4-7-2-6"></g><g id="text7018-0-4-7-2-614" serif:id="text7018-0-4-7-2-6"></g><g id="text7018-0-4-7-2-615" serif:id="text7018-0-4-7-2-6"></g><g id="text7018-0-4-7-2-616" serif:id="text7018-0-4-7-2-6"></g><g id="text7018-0-4-7-2-617" serif:id="text7018-0-4-7-2-6"></g><g id="text7018-0-4-7-2-618" serif:id="text7018-0-4-7-2-6"></g><g id="text7018-0-4-7-2-619" serif:id="text7018-0-4-7-2-6"></g><g id="text7018-0-4-7-2-620" serif:id="text7018-0-4-7-2-6"></g><g id="text7018-0-4-7-2-621" serif:id="text7018-0-4-7-2-6"></g><g id="text7018-0-4-7-2-622" serif:id="text7018-0-4-7-2-6"></g><g id="text6007-6-1-619" serif:id="text6007-6-1-6"></g><g id="text6007-6-1-620" serif:id="text6007-6-1-6"></g><g id="text6007-6-1-621" serif:id="text6007-6-1-6"></g><g id="text6007-6-1-622" serif:id="text6007-6-1-6"></g><g id="text6007-6-1-623" serif:id="text6007-6-1-6"></g><g id="text6007-6-1-624" serif:id="text6007-6-1-6"></g><g id="text4795-1-69" serif:id="text4795-1-6"></g><g id="text4795-1-610" serif:id="text4795-1-6"></g><g id="text4795-1-611" serif:id="text4795-1-6"></g><g id="text4795-1-612" serif:id="text4795-1-6"></g><g id="text4795-1-613" serif:id="text4795-1-6"></g><g id="text7022-9-29" serif:id="text7022-9-2"></g><g id="text7022-9-210" serif:id="text7022-9-2"></g><g id="text7022-9-211" serif:id="text7022-9-2"></g><g id="text7022-9-212" serif:id="text7022-9-2"></g><g id="text7022-9-213" serif:id="text7022-9-2"></g><g id="text7018-0-4-7-69" serif:id="text7018-0-4-7-6"></g><g id="text7018-0-4-7-610" serif:id="text7018-0-4-7-6"></g><g id="text7018-0-4-7-611" serif:id="text7018-0-4-7-6"></g><g id="text7018-0-4-7-612" serif:id="text7018-0-4-7-6"></g><g id="text7018-0-4-7-613" serif:id="text7018-0-4-7-6"></g><g id="text8102-59" serif:id="text8102-5"></g><g id="text8102-510" serif:id="text8102-5"></g><g id="text8102-511" serif:id="text8102-5"></g><g id="text8102-512" serif:id="text8102-5"></g><g id="text8102-513" serif:id="text8102-5"></g><g id="text7022-9-2-69" serif:id="text7022-9-2-6"></g><g id="text7022-9-2-610" serif:id="text7022-9-2-6"></g><g id="text7022-9-2-611" serif:id="text7022-9-2-6"></g><g id="text7022-9-2-612" serif:id="text7022-9-2-6"></g><g id="text7022-9-2-613" serif:id="text7022-9-2-6"></g><g id="text479559" serif:id="text4795"></g><g id="text479560" serif:id="text4795"></g><g id="text479561" serif:id="text4795"></g><g id="text479562" serif:id="text4795"></g><g id="text701850" serif:id="text7018"></g><g id="text701851" serif:id="text7018"></g><g id="text701852" serif:id="text7018"></g><g id="text701853" serif:id="text7018"></g><g id="text4795-1-614" serif:id="text4795-1-6"></g><g id="text4795-1-615" serif:id="text4795-1-6"></g><g id="text4795-1-616" serif:id="text4795-1-6"></g><g id="text4795-1-617" serif:id="text4795-1-6"></g><g id="text4795-1-618" serif:id="text4795-1-6"></g><g id="text7018-0-4-7-614" serif:id="text7018-0-4-7-6"></g><g id="text7018-0-4-7-615" serif:id="text7018-0-4-7-6"></g><g id="text7018-0-4-7-616" serif:id="text7018-0-4-7-6"></g><g id="text7018-0-4-7-617" serif:id="text7018-0-4-7-6"></g><g id="text7018-0-4-7-618" serif:id="text7018-0-4-7-6"></g><g id="text8102-514" serif:id="text8102-5"></g><g id="text8102-515" serif:id="text8102-5"></g><g id="text8102-516" serif:id="text8102-5"></g><g id="text8102-517" serif:id="text8102-5"></g><g id="text8102-518" serif:id="text8102-5"></g><g id="text6007-6-1-625" serif:id="text6007-6-1-6"></g><g id="text6007-6-1-626" serif:id="text6007-6-1-6"></g><g id="text6007-6-1-627" serif:id="text6007-6-1-6"></g><g id="text6007-6-1-628" serif:id="text6007-6-1-6"></g><g id="text6007-6-1-629" serif:id="text6007-6-1-6"></g><g id="text7022-923" serif:id="text7022-9"></g><g id="text7022-924" serif:id="text7022-9"></g><g id="text7022-925" serif:id="text7022-9"></g><g id="text7022-926" serif:id="text7022-9"></g><g id="text7022-927" serif:id="text7022-9"></g><g id="text6007-6-115" serif:id="text6007-6-1"></g><g id="text6007-6-116" serif:id="text6007-6-1"></g><g id="text7018-0-920" serif:id="text7018-0-9"></g><g id="text7018-0-921" serif:id="text7018-0-9"></g><g id="text6007-6-1-630" serif:id="text6007-6-1-6"></g><g id="text6007-6-1-631" serif:id="text6007-6-1-6"></g><path id="path6044-5-3-113" serif:id="path6044-5-3-1" d="M391.785,322.531l8.514,5.363l-9.399,3.593c2.46,-2.018 2.903,-6.496 0.885,-8.956Z" style="fill:#808080;"/><path d="M173.392,305.479c0,0 181.173,17.897 219.742,21.707" style="fill:none;stroke:#808080;stroke-width:3px;"/><g><g><g id="text4795-1-619" serif:id="text4795-1-6"></g></g></g><g><g><g id="text4795-1-620" serif:id="text4795-1-6"></g></g></g><g><g><g id="text4795-1-621" serif:id="text4795-1-6"></g></g></g><g><g><g id="text4795-1-622" serif:id="text4795-1-6"></g></g></g><g id="text6007-6-1-632" serif:id="text6007-6-1-6"></g><g id="text6007-6-1-633" serif:id="text6007-6-1-6"></g><g id="text6007-6-1-634" serif:id="text6007-6-1-6"></g><g id="text6007-6-1-635" serif:id="text6007-6-1-6"></g><g id="text6007-6-1-636" serif:id="text6007-6-1-6"></g><g id="text7022-9-214" serif:id="text7022-9-2"><text x="414.849px" y="275.327px" style="font-family:'Delicious-Heavy', 'Delicious Heavy';font-weight:500;font-size:22.5px;">deposit()</text></g><g id="text7022-9-215" serif:id="text7022-9-2"><text x="661.9px" y="25.893px" style="font-family:'Delicious-Heavy', 'Delicious Heavy';font-weight:500;font-size:22.5px;">deposit()</text></g><g id="text7022-9-216" serif:id="text7022-9-2"><text x="143.364px" y="467.039px" style="font-family:'Delicious-Heavy', 'Delicious Heavy';font-weight:500;font-size:22.5px;">r<tspan x="150.429px " y="467.039px ">e</tspan>port()</text></g><g id="text7022-9-217" serif:id="text7022-9-2"><text x="291.118px" y="593.846px" style="font-family:'Delicious-Heavy', 'Delicious Heavy';font-weight:500;font-size:22.5px;">r<tspan x="298.183px " y="593.846px ">e</tspan>port()</text></g><g id="text7022-9-218" serif:id="text7022-9-2"><text x="415.211px" y="331.341px" style="font-family:'Delicious-Heavy', 'Delicious Heavy';font-weight:500;font-size:22.5px;">withdraw()</text></g><g id="text7022-9-219" serif:id="text7022-9-2"><text x="659.878px" y="247.138px" style="font-family:'Delicious-Heavy', 'Delicious Heavy';font-weight:500;font-size:22.5px;">withdraw()</text></g><g id="text7022-9-220" serif:id="text7022-9-2"><text x="414.984px" y="303.075px" style="font-family:'Delicious-Heavy', 'Delicious Heavy';font-weight:500;font-size:22.5px;">getBalance()</text></g><g id="text7022-9-221" serif:id="text7022-9-2"><text x="651.708px" y="137.051px" style="font-family:'Delicious-Heavy', 'Delicious Heavy';font-weight:500;font-size:22.5px;">getBalance()</text></g><path d="M632.971,55.669l9.357,3.701l-8.575,5.265c2.046,-2.437 1.655,-6.92 -0.782,-8.966Z"/><path d="M500.789,268.628c94.113,4.04 62.369,-51.914 77.57,-182.639c1.581,-13.596 28.733,-22.994 56.796,-25.993" style="fill:none;stroke:#000;stroke-width:3px;stroke-linecap:round;stroke-linejoin:round;stroke-miterlimit:1.5;"/><path id="path3964-2-21" serif:id="path3964-2-2" d="M569.22,445.99l-9.318,-3.798l8.629,-5.176c-2.071,2.416 -1.727,6.903 0.689,8.974Z" style="fill:#808080;fill-rule:nonzero;"/><path d="M651.653,76.189c0,0 -50.696,-0.477 -53.751,18.19c-8.315,50.812 -8.371,254.112 -8.088,329.992c0.046,12.226 -13.869,16.065 -22.733,17.27" style="fill:none;fill-rule:nonzero;stroke:#808080;stroke-width:3px;"/><path id="path3964-2-22" serif:id="path3964-2-2" d="M797.749,410.907l-9.438,-3.49l8.455,-5.456c-1.991,2.482 -1.499,6.955 0.983,8.946Z" style="fill:#808080;fill-rule:nonzero;"/><path d="M916.799,96.321c0,0 50.696,-0.476 53.751,18.191c8.315,50.812 7.151,179.072 6.868,254.952c-0.059,15.838 -147.461,33.298 -181.95,37.167" style="fill:none;fill-rule:nonzero;stroke:#808080;stroke-width:3px;"/><path d="M649.678,297.853l-58.958,32.798" style="fill:none;stroke:#808080;stroke-width:3px;stroke-linecap:round;stroke-linejoin:round;stroke-miterlimit:1.5;"/><path d="M918.774,317.986l58.958,32.798" style="fill:none;stroke:#808080;stroke-width:3px;stroke-linecap:round;stroke-linejoin:round;stroke-miterlimit:1.5;"/><path d="M650.068,184.232l-58.958,32.798" style="fill:none;stroke:#808080;stroke-width:3px;stroke-linecap:round;stroke-linejoin:round;stroke-miterlimit:1.5;"/><path d="M918.384,204.364l58.958,32.798" style="fill:none;stroke:#808080;stroke-width:3px;stroke-linecap:round;stroke-linejoin:round;stroke-miterlimit:1.5;"/><path d="M630.566,166.344l9.931,1.62l-7.255,6.973c1.48,-2.817 0.142,-7.114 -2.676,-8.593Z"/><path d="M530.073,295.471c0,0 53.766,-30.913 67.663,-58.462c24.814,-49.191 -5.222,-53.452 35.887,-66.904" style="fill:none;stroke:#000;stroke-width:3px;stroke-linecap:round;stroke-linejoin:round;stroke-miterlimit:1.5;"/><path d="M631.761,279.372l9.957,1.457l-7.14,7.091c1.433,-2.841 0.024,-7.115 -2.817,-8.548Z"/><path d="M522.142,324.755c0,0 67.311,-26.483 112.737,-41.672" style="fill:none;stroke:#000;stroke-width:3px;stroke-linecap:round;stroke-linejoin:round;stroke-miterlimit:1.5;"/><path id="path3964-2-23" serif:id="path3964-2-2" d="M426.97,573.811l3.737,-9.343l5.232,8.595c-2.429,-2.055 -6.914,-1.681 -8.969,0.748Z" style="fill:#808080;fill-rule:nonzero;"/><path d="M384.453,646.802c0,0 19.192,6.186 26.741,7.274c19.007,2.74 22.351,-49.179 20.111,-82.433" style="fill:none;fill-rule:nonzero;stroke:#808080;stroke-width:3px;"/><path id="path3964-2-24" serif:id="path3964-2-2" d="M684.732,517.864l4.02,-9.224l4.967,8.75c-2.365,-2.128 -6.859,-1.891 -8.987,0.474Z" style="fill:#808080;fill-rule:nonzero;"/><path d="M575.897,668.25c0,0 46.137,0.594 78.598,-3.911c19.153,-2.657 35.324,-108.533 34.636,-148.509" style="fill:none;fill-rule:nonzero;stroke:#808080;stroke-width:3px;"/><g id="text7022-9-222" serif:id="text7022-9-2"></g></g></svg>