<?xml version="1.0" encoding="UTF-8" standalone="no"?><!DOCTYPE svg PUBLIC "-//W3C//DTD SVG 1.1//EN" "http://www.w3.org/Graphics/SVG/1.1/DTD/svg11.dtd"><svg width="608px" height="162px" version="1.1" xmlns="http://www.w3.org/2000/svg" xmlns:xlink="http://www.w3.org/1999/xlink" xml:space="preserve" xmlns:serif="http://www.serif.com/" style="fill-rule:evenodd;clip-rule:evenodd;"><g id="Layer-1" serif:id="Layer 1"><rect id="rect6003" x="29.729" y="59.074" width="123.595" height="82.032" style="fill:#e6e6e6;stroke:#000;stroke-width:3px;"/><g id="text6007"><path d="M76.745,52.015c3.758,0 5.197,-3.193 5.197,-6.502c0,-2.521 -1.394,-5.196 -4.228,-5.196c-0.721,0 -1.599,0.63 -2.095,1.147l0,-5.399l-3.259,0l0,14.354c1.281,0.899 2.81,1.596 4.385,1.596Zm0.451,-9c1.373,0 1.441,1.71 1.441,2.723c0,1.193 -0.135,3.602 -1.802,3.602c-0.428,0 -0.855,-0.158 -1.216,-0.405l0,-4.772c0.361,-0.541 0.879,-1.148 1.577,-1.148Z" style="fill-rule:nonzero;"/><path d="M92.674,51.543l-0.495,-1.529c-0.09,0.045 -0.202,0.09 -0.315,0.09c-0.27,0 -0.27,-0.382 -0.27,-0.584l0,-5.875c0,-2.339 -1.798,-3.328 -3.935,-3.328c-1.487,0 -3.129,0.787 -4.185,1.799l1.146,1.844c0.81,-0.63 1.687,-1.035 2.723,-1.035c0.518,0 1.216,0.292 1.216,0.9l0,0.473l-4.95,1.981c-0.382,0.697 -0.809,1.598 -0.809,2.386c0,2.248 1.236,3.35 3.44,3.35c1.126,0 2.342,-0.675 2.747,-1.776c0.135,1.011 0.786,1.776 1.955,1.776c0.607,0 1.192,-0.203 1.732,-0.472Zm-4.047,-5.107l0,0.608c0,1.17 -0.586,2.363 -1.892,2.363c-0.45,0 -0.878,-0.315 -0.878,-0.787c0,-0.361 0.09,-0.788 0.202,-1.126l2.568,-1.058Z" style="fill-rule:nonzero;"/><path d="M99.627,43.847l0.427,-3.192c0,0 -0.517,-0.338 -1.17,-0.338c-0.562,0 -1.53,1.147 -1.53,1.147l0,-0.809l-3.282,0l0,11.022l3.26,0l0,-7.83c0,0 0.315,-0.337 0.877,-0.337c0.63,0 1.418,0.337 1.418,0.337Z" style="fill-rule:nonzero;"/></g><g id="text60071" serif:id="text6007"></g><g id="text60072" serif:id="text6007"></g><g id="text60073" serif:id="text6007"></g><g id="text60074" serif:id="text6007"></g><g id="text7018"><path d="M40.185,127.719l0,-2.742l-1.35,0l0,-14.471l1.35,0l0,-2.742l-4.317,0l0,19.955l4.317,0Z" style="fill:#808080;fill-rule:nonzero;"/><path d="M45.765,127.719l0,-2.742l-1.35,0l0,-14.471l1.35,0l0,-2.742l-4.317,0l0,19.955l4.317,0Z" style="fill:#808080;fill-rule:nonzero;"/><path d="M57.128,114.705c0,-3.567 -2.698,-4.646 -5.827,-4.646l-3.733,0l0,14.15l3.35,0l0,-4.86c0.338,0.202 0.878,0.315 1.239,0.315c2.723,0 4.971,-2.248 4.971,-4.959Zm-3.35,-0.022c0,1.298 -0.54,2.239 -1.959,2.239c-0.225,0 -0.676,-0.179 -0.901,-0.269l0,-3.784l0.495,0c1.307,0 2.365,0.291 2.365,1.814Z" style="fill:#808080;fill-rule:nonzero;"/><path d="M64.148,116.379l0.427,-3.193c0,0 -0.517,-0.337 -1.17,-0.337c-0.562,0 -1.53,1.147 -1.53,1.147l0,-0.81l-3.282,0l0,11.023l3.26,0l0,-7.83c0,0 0.315,-0.338 0.877,-0.338c0.63,0 1.418,0.338 1.418,0.338Z" style="fill:#808080;fill-rule:nonzero;"/><path d="M69.954,124.546c3.42,0 4.949,-3.237 4.949,-5.848c0,-2.611 -1.529,-5.849 -4.949,-5.849c-3.42,0 -4.948,3.238 -4.948,5.849c0,2.611 1.528,5.848 4.948,5.848Zm0,-8.977c1.059,0 1.689,1.17 1.689,3.129c0,1.936 -0.63,3.151 -1.689,3.151c-1.058,0 -1.689,-1.193 -1.689,-3.151c0,-1.959 0.631,-3.129 1.689,-3.129Z" style="fill:#808080;fill-rule:nonzero;"/><path d="M80.888,124.367c0.36,-0.111 1.327,-0.515 1.327,-0.515l-0.697,-2.222c0,0 -0.608,0.337 -1.103,0.157c-0.315,-0.09 -0.36,-0.651 -0.36,-0.785l0,-5.208l1.8,0l0,-2.585l-1.845,0l0,-1.98l-3.124,0l0,1.98l-1.058,0l0,2.338l0.968,0.247l0,5.746c0,1.459 0.674,3.006 2.697,3.006c0.585,0 0.99,-0.044 1.395,-0.179Z" style="fill:#808080;fill-rule:nonzero;"/><path d="M87.819,124.546c3.42,0 4.949,-3.237 4.949,-5.848c0,-2.611 -1.529,-5.849 -4.949,-5.849c-3.42,0 -4.948,3.238 -4.948,5.849c0,2.611 1.528,5.848 4.948,5.848Zm0,-8.977c1.059,0 1.689,1.17 1.689,3.129c0,1.936 -0.63,3.151 -1.689,3.151c-1.058,0 -1.689,-1.193 -1.689,-3.151c0,-1.959 0.631,-3.129 1.689,-3.129Z" style="fill:#808080;fill-rule:nonzero;"/><path d="M98.753,124.367c0.36,-0.111 1.327,-0.515 1.327,-0.515l-0.697,-2.222c0,0 -0.608,0.337 -1.103,0.157c-0.315,-0.09 -0.36,-0.651 -0.36,-0.785l0,-5.208l1.8,0l0,-2.585l-1.845,0l0,-1.98l-3.124,0l0,1.98l-1.058,0l0,2.338l0.968,0.247l0,5.746c0,1.459 0.674,3.006 2.697,3.006c0.585,0 0.99,-0.044 1.395,-0.179Z" style="fill:#808080;fill-rule:nonzero;"/><path d="M105.504,120.42c-0.135,-2.18 -1.642,-7.211 -1.642,-7.211l-3.465,0l3.375,10.783c-0.653,1.101 -0.765,1.483 -2.52,2.09l0.742,2.379c0,0 1.733,-0.335 2.633,-0.941c2.88,-1.932 4.927,-10.74 5.602,-14.311l-3.352,0c-0.315,2.537 -0.743,4.941 -1.373,7.211Z" style="fill:#808080;fill-rule:nonzero;"/><path d="M116.777,124.546c3.892,0 4.678,-3.71 4.678,-6.231c0,-2.341 -1.281,-5.466 -4.205,-5.466c-1.216,0 -2.342,1.146 -2.342,1.146l0.022,-0.809l-3.282,0l0,14.96l3.282,0l0,-4.386c0,0 0.789,0.786 1.847,0.786Zm-0.09,-9c1.419,0 1.441,1.959 1.441,2.949c0,0.968 0.045,3.422 -1.441,3.422c-1.621,0 -1.757,-1.779 -1.757,-3.039l0,-2.409c0.496,-0.427 0.834,-0.923 1.757,-0.923Z" style="fill:#808080;fill-rule:nonzero;"/><path d="M132.233,118.989c0,-0.607 -0.023,-1.191 -0.045,-1.798c-0.068,-2.364 -2.003,-4.342 -4.388,-4.342c-3.126,0 -5.262,2.586 -5.262,5.601c0,3.016 1.394,6.119 4.857,6.119c1.373,0 3.083,-0.742 4.163,-1.641l-0.945,-2.025c-0.833,0.608 -2.093,0.969 -3.105,0.969c-1.283,0 -1.71,-1.487 -1.71,-2.523c0,-0.112 0,-0.248 0.022,-0.36l6.413,0Zm-3.06,-2.067l-3.128,0c0.09,-0.789 0.675,-1.916 1.598,-1.916c1.012,0 1.507,1.037 1.53,1.916Z" style="fill:#808080;fill-rule:nonzero;"/><path d="M137.567,127.72l-4.32,0l0,-2.745l1.35,0l0,-14.467l-1.35,0l0,-2.745l4.32,0l0,19.957Z" style="fill:#808080;fill-rule:nonzero;"/><path d="M143.169,127.72l-4.32,0l0,-2.745l1.35,0l0,-14.467l-1.35,0l0,-2.745l4.32,0l0,19.957Z" style="fill:#808080;fill-rule:nonzero;"/></g><g id="text70181" serif:id="text7018"></g><g id="text70182" serif:id="text7018"></g><g id="text70183" serif:id="text7018"></g><g id="text70184" serif:id="text7018"></g><rect id="rect6003-9" x="198.831" y="59.074" width="123.595" height="82.032" style="fill:#e6e6e6;stroke:#000;stroke-width:3px;"/><g id="text4795"><path d="M246.958,38.255l-0.495,-2.325c0,0 -4.587,0.045 -4.587,3.842l0,1.04l-1.103,0l0,2.338l1.103,0.18l0,8.482l3.259,0l0,-8.37l1.688,0l0,-2.63l-1.688,0l0,-0.905c0,-1.335 1.823,-1.652 1.823,-1.652Z" style="fill-rule:nonzero;"/><path d="M252.517,52.15c3.42,0 4.948,-3.238 4.948,-5.849c0,-2.611 -1.528,-5.849 -4.948,-5.849c-3.42,0 -4.949,3.238 -4.949,5.849c0,2.611 1.529,5.849 4.949,5.849Zm0,-8.978c1.058,0 1.689,1.171 1.689,3.129c0,1.936 -0.631,3.151 -1.689,3.151c-1.059,0 -1.689,-1.193 -1.689,-3.151c0,-1.958 0.63,-3.129 1.689,-3.129Z" style="fill-rule:nonzero;"/><path d="M263.497,52.15c3.42,0 4.948,-3.238 4.948,-5.849c0,-2.611 -1.528,-5.849 -4.948,-5.849c-3.42,0 -4.949,3.238 -4.949,5.849c0,2.611 1.529,5.849 4.949,5.849Zm0,-8.978c1.058,0 1.689,1.171 1.689,3.129c0,1.936 -0.631,3.151 -1.689,3.151c-1.059,0 -1.689,-1.193 -1.689,-3.151c0,-1.958 0.63,-3.129 1.689,-3.129Z" style="fill-rule:nonzero;"/></g><g id="text47951" serif:id="text4795"></g><g id="text47952" serif:id="text4795"></g><g id="text47953" serif:id="text4795"></g><g id="text47954" serif:id="text4795"></g><g id="text47955" serif:id="text4795"></g><g id="text47956" serif:id="text4795"></g><g id="text47957" serif:id="text4795"></g><g id="text47958" serif:id="text4795"></g><g id="text47959" serif:id="text4795"></g><g id="text479510" serif:id="text4795"></g><g id="text479511" serif:id="text4795"></g><g id="text479512" serif:id="text4795"></g><g id="text479513" serif:id="text4795"></g><g id="text479514" serif:id="text4795"></g><g id="text479515" serif:id="text4795"></g><g id="text479516" serif:id="text4795"></g><g id="text479517" serif:id="text4795"></g><g id="text479518" serif:id="text4795"></g><g id="text479519" serif:id="text4795"></g><g id="text1254"></g><g id="text1620"></g><path d="M213.523,79.329l3.667,0l-3.082,-5.791l2.97,-5.208l-3.578,0l-1.057,2.356l-1.013,-2.356l-3.622,0l2.947,5.32l-3.015,5.679l3.555,0l1.148,-2.872l1.08,2.872Z" style="fill-rule:nonzero;"/><path d="M220.048,79.667c1.034,0 2.046,-0.809 2.046,-1.889c0,-1.056 -0.944,-1.776 -1.934,-1.776c-1.056,0 -2.046,0.81 -2.046,1.889c0,1.034 0.945,1.776 1.934,1.776Zm0,-6.48c1.034,0 2.046,-0.81 2.046,-1.911c0,-1.034 -0.944,-1.776 -1.934,-1.776c-1.056,0 -2.046,0.809 -2.046,1.911c0,1.034 0.945,1.776 1.934,1.776Z" style="fill-rule:nonzero;"/><path d="M235.144,77.775l0,-2.068l-1.283,0l0,-8.932l-2.292,0c-2.138,2.849 -4.118,5.857 -5.423,9.18l0.113,1.82l5.31,0l0,3.105l2.247,0l0,-3.105l1.328,0Zm-3.575,-2.068l-2.993,0c0.765,-1.975 1.868,-3.816 2.993,-5.499l0,5.499Z" style="fill:#000080;fill-rule:nonzero;"/><path d="M244.796,77.775l0,-2.113l-4.227,0c1.934,-1.26 3.845,-3.534 3.845,-5.942c0,-2.249 -1.506,-3.305 -3.643,-3.305c-1.237,0 -2.835,0.517 -3.735,1.438l0.495,1.89c0.743,-0.698 1.958,-1.238 2.993,-1.238c0.81,0 1.507,0.405 1.507,1.305c0,2.071 -3.532,5.267 -5.197,6.212l0.427,1.753l7.535,0Z" style="fill:#000080;fill-rule:nonzero;"/><path id="path6044-5-3-1" d="M186.427,113.547l9.018,4.464l-8.982,4.536c2.241,-2.259 2.223,-6.759 -0.036,-9Z" style="fill:#808080;"/><path d="M145.503,118.213c0,0 28.915,-0.117 42.742,-0.173" style="fill:none;stroke:#808080;stroke-width:3px;"/><rect id="rect6003-9-3" x="369.354" y="59.074" width="123.595" height="82.032" style="fill:#fff287;stroke:#000;stroke-width:3px;"/><g id="text4795-1"><path d="M368.451,42.667c0,-3.128 -1.372,-7.423 -5.489,-7.423c-4.117,0 -5.489,4.295 -5.489,7.423c0,3.129 1.372,7.424 5.489,7.424c4.117,0 5.489,-4.295 5.489,-7.424Zm-3.35,0c0,1.913 -0.135,4.547 -2.139,4.547c-2.004,0 -2.139,-2.589 -2.139,-4.547c0,-1.935 0.135,-4.546 2.139,-4.546c2.004,0 2.139,2.611 2.139,4.546Z" style="fill-rule:nonzero;"/><path d="M374.797,50.091c3.757,0 5.196,-3.193 5.196,-6.501c0,-2.522 -1.394,-5.196 -4.228,-5.196c-0.721,0 -1.599,0.629 -2.094,1.146l0,-5.399l-3.26,0l0,14.354c1.281,0.899 2.81,1.596 4.386,1.596Zm0.45,-9c1.374,0 1.441,1.711 1.441,2.724c0,1.193 -0.135,3.601 -1.801,3.601c-0.428,0 -0.856,-0.157 -1.216,-0.405l0,-4.772c0.36,-0.54 0.878,-1.148 1.576,-1.148Z" style="fill-rule:nonzero;"/><path d="M380.761,54.163c1.732,-0.514 3.98,-1.279 3.98,-3.732l0,-11.702l-3.215,0l0,11.544c0,0.653 -0.18,1.035 -1.463,1.598l0.698,2.292Zm2.316,-16.56c1.034,0 2.046,-0.786 2.046,-1.888c0,-1.057 -0.944,-1.799 -1.956,-1.799c-1.034,0 -2.046,0.832 -2.046,1.911c0,1.057 0.944,1.776 1.956,1.776Z" style="fill-rule:nonzero;"/><path d="M396.013,44.533c0,-0.606 -0.022,-1.19 -0.045,-1.797c-0.067,-2.365 -2.002,-4.342 -4.387,-4.342c-3.127,0 -5.263,2.585 -5.263,5.6c0,3.017 1.394,6.119 4.858,6.119c1.372,0 3.082,-0.741 4.162,-1.64l-0.945,-2.025c-0.832,0.608 -2.092,0.968 -3.105,0.968c-1.282,0 -1.71,-1.486 -1.71,-2.522c0,-0.113 0,-0.248 0.023,-0.361l6.412,0Zm-3.06,-2.067l-3.127,0c0.09,-0.788 0.675,-1.915 1.597,-1.915c1.013,0 1.508,1.036 1.53,1.915Z" style="fill-rule:nonzero;"/><path d="M405.531,48.563l-1.17,-2.092c-0.608,0.495 -1.575,0.968 -2.385,0.968c-1.35,0 -1.823,-2.251 -1.823,-3.287c0,-1.013 0.45,-3.084 1.755,-3.084c0.585,0 1.485,0.248 1.935,0.608l1.463,-1.911c-0.855,-0.809 -2.25,-1.371 -3.42,-1.371c-3.262,0 -4.993,2.99 -4.993,5.938c0,2.882 1.776,5.759 4.925,5.759c1.26,0 2.768,-0.697 3.713,-1.528Z" style="fill-rule:nonzero;"/><path d="M411.111,49.912c0.36,-0.112 1.327,-0.515 1.327,-0.515l-0.697,-2.222c0,0 -0.608,0.336 -1.103,0.157c-0.315,-0.09 -0.36,-0.651 -0.36,-0.786l0,-5.208l1.8,0l0,-2.584l-1.845,0l0,-1.98l-3.125,0l0,1.98l-1.057,0l0,2.337l0.967,0.247l0,5.747c0,1.459 0.675,3.006 2.698,3.006c0.585,0 0.99,-0.045 1.395,-0.179Z" style="fill-rule:nonzero;"/><path d="M415.364,50.091c1.035,0 2.047,-0.809 2.047,-1.889c0,-1.056 -0.945,-1.776 -1.934,-1.776c-1.057,0 -2.046,0.81 -2.046,1.889c0,1.034 0.944,1.776 1.933,1.776Z" style="fill-rule:nonzero;"/><path d="M424.725,50.091c3.891,0 4.678,-3.71 4.678,-6.231c0,-2.341 -1.281,-5.466 -4.205,-5.466c-1.216,0 -2.342,1.146 -2.342,1.146l0.022,-0.809l-3.282,0l0,14.96l3.282,0l0,-4.387c0,0 0.788,0.787 1.847,0.787Zm-0.09,-9c1.418,0 1.441,1.958 1.441,2.949c0,0.968 0.045,3.421 -1.441,3.421c-1.622,0 -1.757,-1.778 -1.757,-3.039l0,-2.408c0.495,-0.428 0.833,-0.923 1.757,-0.923Z" style="fill-rule:nonzero;"/><path d="M436.716,41.924l0.427,-3.193c0,0 -0.517,-0.337 -1.17,-0.337c-0.562,0 -1.53,1.146 -1.53,1.146l0,-0.809l-3.282,0l0,11.022l3.26,0l0,-7.829c0,0 0.315,-0.338 0.877,-0.338c0.63,0 1.418,0.338 1.418,0.338Z" style="fill-rule:nonzero;"/><path d="M442.522,50.091c3.42,0 4.949,-3.238 4.949,-5.849c0,-2.611 -1.529,-5.848 -4.949,-5.848c-3.42,0 -4.949,3.237 -4.949,5.848c0,2.611 1.529,5.849 4.949,5.849Zm0,-8.978c1.058,0 1.689,1.171 1.689,3.129c0,1.936 -0.631,3.152 -1.689,3.152c-1.058,0 -1.689,-1.193 -1.689,-3.152c0,-1.958 0.631,-3.129 1.689,-3.129Z" style="fill-rule:nonzero;"/><path d="M453.456,49.912c0.36,-0.112 1.327,-0.515 1.327,-0.515l-0.697,-2.222c0,0 -0.608,0.336 -1.103,0.157c-0.315,-0.09 -0.36,-0.651 -0.36,-0.786l0,-5.208l1.8,0l0,-2.584l-1.845,0l0,-1.98l-3.125,0l0,1.98l-1.057,0l0,2.337l0.967,0.247l0,5.747c0,1.459 0.675,3.006 2.698,3.006c0.585,0 0.99,-0.045 1.395,-0.179Z" style="fill-rule:nonzero;"/><path d="M460.387,50.091c3.42,0 4.949,-3.238 4.949,-5.849c0,-2.611 -1.529,-5.848 -4.949,-5.848c-3.42,0 -4.949,3.237 -4.949,5.848c0,2.611 1.529,5.849 4.949,5.849Zm0,-8.978c1.058,0 1.689,1.171 1.689,3.129c0,1.936 -0.631,3.152 -1.689,3.152c-1.058,0 -1.689,-1.193 -1.689,-3.152c0,-1.958 0.631,-3.129 1.689,-3.129Z" style="fill-rule:nonzero;"/><path d="M471.321,49.912c0.36,-0.112 1.327,-0.515 1.327,-0.515l-0.697,-2.222c0,0 -0.608,0.336 -1.103,0.157c-0.315,-0.09 -0.36,-0.651 -0.36,-0.786l0,-5.208l1.8,0l0,-2.584l-1.845,0l0,-1.98l-3.125,0l0,1.98l-1.057,0l0,2.337l0.967,0.247l0,5.747c0,1.459 0.675,3.006 2.698,3.006c0.585,0 0.99,-0.045 1.395,-0.179Z" style="fill-rule:nonzero;"/><path d="M478.072,45.964c-0.135,-2.179 -1.643,-7.21 -1.643,-7.21l-3.465,0l3.375,10.783c-0.652,1.101 -0.765,1.483 -2.52,2.089l0.743,2.38c0,0 1.732,-0.335 2.632,-0.942c2.88,-1.932 4.928,-10.74 5.603,-14.31l-3.353,0c-0.315,2.537 -0.742,4.941 -1.372,7.21Z" style="fill-rule:nonzero;"/><path d="M489.345,50.091c3.891,0 4.678,-3.71 4.678,-6.231c0,-2.341 -1.281,-5.466 -4.205,-5.466c-1.216,0 -2.342,1.146 -2.342,1.146l0.022,-0.809l-3.282,0l0,14.96l3.282,0l0,-4.387c0,0 0.788,0.787 1.847,0.787Zm-0.09,-9c1.418,0 1.441,1.958 1.441,2.949c0,0.968 0.045,3.421 -1.441,3.421c-1.622,0 -1.757,-1.778 -1.757,-3.039l0,-2.408c0.495,-0.428 0.833,-0.923 1.757,-0.923Z" style="fill-rule:nonzero;"/><path d="M504.801,44.533c0,-0.606 -0.023,-1.19 -0.045,-1.797c-0.068,-2.365 -2.003,-4.342 -4.388,-4.342c-3.126,0 -5.262,2.585 -5.262,5.6c0,3.017 1.394,6.119 4.857,6.119c1.373,0 3.083,-0.741 4.163,-1.64l-0.945,-2.025c-0.833,0.608 -2.093,0.968 -3.105,0.968c-1.283,0 -1.71,-1.486 -1.71,-2.522c0,-0.113 0,-0.248 0.022,-0.361l6.413,0Zm-3.06,-2.067l-3.128,0c0.09,-0.788 0.675,-1.915 1.598,-1.915c1.012,0 1.507,1.036 1.53,1.915Z" style="fill-rule:nonzero;"/></g><g id="text4795-11" serif:id="text4795-1"></g><g id="text4795-12" serif:id="text4795-1"></g><g id="text4795-13" serif:id="text4795-1"></g><g id="text7022-9"><path d="M385.556,82.053c0.36,-0.112 1.327,-0.516 1.327,-0.516l-0.697,-2.222c0,0 -0.608,0.337 -1.103,0.157c-0.315,-0.089 -0.36,-0.651 -0.36,-0.785l0,-5.208l1.8,0l0,-2.585l-1.845,0l0,-1.98l-3.125,0l0,1.98l-1.057,0l0,2.338l0.967,0.247l0,5.746c0,1.459 0.675,3.007 2.698,3.007c0.585,0 0.99,-0.045 1.395,-0.179Z" style="fill-rule:nonzero;"/><path d="M392.487,82.232c3.42,0 4.949,-3.238 4.949,-5.849c0,-2.611 -1.529,-5.849 -4.949,-5.849c-3.42,0 -4.949,3.238 -4.949,5.849c0,2.611 1.529,5.849 4.949,5.849Zm0,-8.978c1.058,0 1.689,1.171 1.689,3.129c0,1.936 -0.631,3.151 -1.689,3.151c-1.058,0 -1.689,-1.193 -1.689,-3.151c0,-1.958 0.631,-3.129 1.689,-3.129Z" style="fill-rule:nonzero;"/><path d="M407.426,78.004c0,-4.456 -5.648,-4.524 -5.648,-6.685c0,-0.675 0.608,-1.192 1.262,-1.192c0.811,0 1.755,0.45 2.295,1.057l1.866,-1.664c-0.944,-1.237 -2.698,-2.136 -4.274,-2.136c-2.43,0 -4.431,1.484 -4.431,4.025c0,4.097 5.625,4.839 5.625,6.572c0,0.878 -0.608,1.418 -1.464,1.418c-0.744,0 -1.823,-0.675 -2.408,-1.103l-1.483,2.34c0.989,0.831 2.562,1.596 3.868,1.596c2.499,0 4.792,-1.551 4.792,-4.228Z" style="fill-rule:nonzero;"/><path d="M413.186,82.053c0.36,-0.112 1.327,-0.516 1.327,-0.516l-0.697,-2.222c0,0 -0.608,0.337 -1.103,0.157c-0.315,-0.089 -0.36,-0.651 -0.36,-0.785l0,-5.208l1.8,0l0,-2.585l-1.845,0l0,-1.98l-3.125,0l0,1.98l-1.057,0l0,2.338l0.967,0.247l0,5.746c0,1.459 0.675,3.007 2.698,3.007c0.585,0 0.99,-0.045 1.395,-0.179Z" style="fill-rule:nonzero;"/><path d="M421.376,74.064l0.427,-3.192c0,0 -0.517,-0.338 -1.17,-0.338c-0.562,0 -1.53,1.147 -1.53,1.147l0,-0.809l-3.282,0l0,11.022l3.26,0l0,-7.83c0,0 0.315,-0.337 0.877,-0.337c0.63,0 1.418,0.337 1.418,0.337Z" style="fill-rule:nonzero;"/><path d="M422.863,81.894l3.215,0l0,-11.025l-3.215,0l0,11.025Zm1.574,-12.15c1.034,0 2.046,-0.787 2.046,-1.889c0,-1.056 -0.944,-1.798 -1.956,-1.798c-1.034,0 -2.046,0.832 -2.046,1.911c0,1.057 0.944,1.776 1.956,1.776Z" style="fill-rule:nonzero;"/><path d="M434.383,81.894l3.26,0l0,-7.965c0,-1.642 -0.517,-3.395 -3.417,-3.395c-0.901,0 -1.87,0.652 -2.568,1.147l0,-0.81l-3.26,0l0,11.023l3.26,0l0,-7.762c0.586,-0.36 1.149,-0.9 2.162,-0.9c0.428,0 0.563,0.247 0.563,0.697l0,7.965Z" style="fill-rule:nonzero;"/><path d="M447.611,72.962l1.057,0.27l0,-2.361l-2.766,0c-0.629,-0.247 -1.304,-0.337 -1.935,-0.337c-2.633,0 -4.431,1.663 -4.431,4.184c0,1.059 0.787,2.521 1.888,3.06c-0.562,0.315 -1.506,0.968 -1.506,1.755c0,0.719 0.652,1.326 1.259,1.506c-0.832,0.293 -1.934,1.216 -1.934,2.184c0,2.429 2.428,3.126 4.274,3.126c2.475,0 5.309,-1.438 5.309,-4.297c0,-1.845 -1.462,-2.497 -3.126,-2.497l-0.719,0c-0.451,0 -1.847,0.09 -1.847,-0.382c0,-0.675 1.284,-0.742 1.757,-0.832c1.753,-0.338 3.17,-1.642 3.17,-3.578c0,-1.013 -0.45,-1.801 -0.45,-1.801Zm-3.058,8.865c0.428,0 1.237,-0.068 1.237,0.383c0,0.991 -1.012,1.667 -2.183,1.667c-0.744,0 -1.239,-0.225 -1.239,-0.969c0,-0.473 0.991,-1.081 0.991,-1.081l1.194,0Zm-0.721,-8.82c0.879,0 1.081,0.878 1.081,1.598c0,0.609 -0.18,1.509 -1.036,1.509c-0.969,0 -1.126,-0.81 -1.126,-1.621c0,-0.721 0.202,-1.486 1.081,-1.486Z" style="fill-rule:nonzero;"/><path d="M456.251,82.57c-2.543,-2.07 -3.893,-4.77 -3.893,-8.055c0,-3.06 1.508,-5.827 4.005,-7.56l-0.405,-2.632c-3.735,2.25 -6.5,5.625 -6.5,10.147c0,5.153 2.338,7.808 6.298,10.71l0.495,-2.61Z" style="fill-rule:nonzero;"/><path d="M463.857,74.47c0,5.153 -2.318,7.808 -6.3,10.71l-0.495,-2.61c2.542,-2.07 3.892,-4.77 3.892,-8.055c0,-3.06 -1.507,-5.827 -4.005,-7.56l0.405,-2.632c3.735,2.25 6.503,5.625 6.503,10.147Z" style="fill-rule:nonzero;"/></g><g id="text7022-91" serif:id="text7022-9"></g><g id="text7022-92" serif:id="text7022-9"></g><g id="text7022-93" serif:id="text7022-9"></g><g id="text8102"><path d="M383.545,99.077c1.379,0 2.728,-1.079 2.728,-2.518c0,-1.409 -1.259,-2.368 -2.578,-2.368c-1.409,0 -2.728,1.079 -2.728,2.518c0,1.379 1.259,2.368 2.578,2.368Z" style="fill-rule:nonzero;"/><path d="M391.285,99.077c1.379,0 2.728,-1.079 2.728,-2.518c0,-1.409 -1.259,-2.368 -2.578,-2.368c-1.409,0 -2.728,1.079 -2.728,2.518c0,1.379 1.259,2.368 2.578,2.368Z" style="fill-rule:nonzero;"/><path d="M399.025,99.077c1.379,0 2.728,-1.079 2.728,-2.518c0,-1.409 -1.259,-2.368 -2.578,-2.368c-1.409,0 -2.728,1.079 -2.728,2.518c0,1.379 1.259,2.368 2.578,2.368Z" style="fill-rule:nonzero;"/></g><g id="text81021" serif:id="text8102"></g><g id="text81022" serif:id="text8102"></g><g id="text81023" serif:id="text8102"></g><g><path id="path6044-5-3-11" serif:id="path6044-5-3-1" d="M526.289,113.593l9.019,4.463l-8.982,4.537c2.241,-2.26 2.222,-6.76 -0.037,-9Z" style="fill:#808080;"/><path d="M485.366,118.258c0,0 28.915,-0.117 42.742,-0.173" style="fill:none;stroke:#808080;stroke-width:3px;"/><path d="M552.965,125.781l0,-13.032c0,-2.699 -0.72,-5.144 -4.749,-5.144c-1.549,0 -3.639,0.899 -4.827,1.834l0,-1.295l-3.776,0l0,17.637l3.776,0l0,-13.032c0.864,-0.684 2.81,-1.872 4.395,-1.872c1.189,0 1.405,0.504 1.405,1.872l0,13.032l3.776,0Z" style="fill:#000080;fill-rule:nonzero;"/><path d="M572.333,124.236c0,0 -0.72,-0.54 -0.72,-1.726l0,-14.329l-3.776,0l0,13c-1.117,0.826 -2.882,1.796 -4.251,1.796c-1.333,0 -1.549,-0.575 -1.549,-1.724l0,-13.072l-3.776,0l0,13.072c0,3.342 1.33,5.068 4.856,5.068c1.694,0 3.927,-1.115 5.295,-2.157c0.288,0.934 1.618,2.049 2.769,2.157l1.152,-2.085Z" style="fill:#000080;fill-rule:nonzero;"/><path d="M581.405,125.781c-0.792,-2.693 -1.224,-4.455 -1.224,-7.367l0,-17.613l-3.704,0l0,17.613c0,4.135 0.647,6.364 1.043,7.367l3.885,0Z" style="fill:#000080;fill-rule:nonzero;"/><path d="M589.901,125.781c-0.792,-2.693 -1.224,-4.455 -1.224,-7.367l0,-17.613l-3.704,0l0,17.613c0,4.135 0.647,6.364 1.043,7.367l3.885,0Z" style="fill:#000080;fill-rule:nonzero;"/></g><g id="text70185" serif:id="text7018"><path d="M210.852,127.719l0,-2.742l-1.35,0l0,-14.471l1.35,0l0,-2.742l-4.317,0l0,19.955l4.317,0Z" style="fill:#808080;fill-rule:nonzero;"/><path d="M216.432,127.719l0,-2.742l-1.35,0l0,-14.471l1.35,0l0,-2.742l-4.317,0l0,19.955l4.317,0Z" style="fill:#808080;fill-rule:nonzero;"/><path d="M227.795,114.705c0,-3.567 -2.698,-4.646 -5.828,-4.646l-3.732,0l0,14.15l3.35,0l0,-4.86c0.337,0.202 0.878,0.315 1.238,0.315c2.723,0 4.972,-2.248 4.972,-4.959Zm-3.35,-0.022c0,1.298 -0.541,2.239 -1.96,2.239c-0.225,0 -0.675,-0.179 -0.9,-0.269l0,-3.784l0.495,0c1.306,0 2.365,0.291 2.365,1.814Z" style="fill:#808080;fill-rule:nonzero;"/><path d="M234.815,116.379l0.427,-3.193c0,0 -0.517,-0.337 -1.17,-0.337c-0.562,0 -1.53,1.147 -1.53,1.147l0,-0.81l-3.282,0l0,11.023l3.26,0l0,-7.83c0,0 0.315,-0.338 0.877,-0.338c0.63,0 1.418,0.338 1.418,0.338Z" style="fill:#808080;fill-rule:nonzero;"/><path d="M240.621,124.546c3.42,0 4.949,-3.237 4.949,-5.848c0,-2.611 -1.529,-5.849 -4.949,-5.849c-3.42,0 -4.949,3.238 -4.949,5.849c0,2.611 1.529,5.848 4.949,5.848Zm0,-8.977c1.058,0 1.689,1.17 1.689,3.129c0,1.936 -0.631,3.151 -1.689,3.151c-1.058,0 -1.689,-1.193 -1.689,-3.151c0,-1.959 0.631,-3.129 1.689,-3.129Z" style="fill:#808080;fill-rule:nonzero;"/><path d="M251.555,124.367c0.36,-0.111 1.327,-0.515 1.327,-0.515l-0.697,-2.222c0,0 -0.608,0.337 -1.103,0.157c-0.315,-0.09 -0.36,-0.651 -0.36,-0.785l0,-5.208l1.8,0l0,-2.585l-1.845,0l0,-1.98l-3.125,0l0,1.98l-1.057,0l0,2.338l0.967,0.247l0,5.746c0,1.459 0.675,3.006 2.698,3.006c0.585,0 0.99,-0.044 1.395,-0.179Z" style="fill:#808080;fill-rule:nonzero;"/><path d="M258.486,124.546c3.42,0 4.949,-3.237 4.949,-5.848c0,-2.611 -1.529,-5.849 -4.949,-5.849c-3.42,0 -4.949,3.238 -4.949,5.849c0,2.611 1.529,5.848 4.949,5.848Zm0,-8.977c1.058,0 1.689,1.17 1.689,3.129c0,1.936 -0.631,3.151 -1.689,3.151c-1.058,0 -1.689,-1.193 -1.689,-3.151c0,-1.959 0.631,-3.129 1.689,-3.129Z" style="fill:#808080;fill-rule:nonzero;"/><path d="M269.42,124.367c0.36,-0.111 1.327,-0.515 1.327,-0.515l-0.697,-2.222c0,0 -0.608,0.337 -1.103,0.157c-0.315,-0.09 -0.36,-0.651 -0.36,-0.785l0,-5.208l1.8,0l0,-2.585l-1.845,0l0,-1.98l-3.125,0l0,1.98l-1.057,0l0,2.338l0.967,0.247l0,5.746c0,1.459 0.675,3.006 2.698,3.006c0.585,0 0.99,-0.044 1.395,-0.179Z" style="fill:#808080;fill-rule:nonzero;"/><path d="M276.171,120.42c-0.135,-2.18 -1.643,-7.211 -1.643,-7.211l-3.465,0l3.375,10.783c-0.652,1.101 -0.765,1.483 -2.52,2.09l0.743,2.379c0,0 1.732,-0.335 2.632,-0.941c2.88,-1.932 4.928,-10.74 5.603,-14.311l-3.353,0c-0.315,2.537 -0.742,4.941 -1.372,7.211Z" style="fill:#808080;fill-rule:nonzero;"/><path d="M287.444,124.546c3.891,0 4.678,-3.71 4.678,-6.231c0,-2.341 -1.281,-5.466 -4.205,-5.466c-1.217,0 -2.342,1.146 -2.342,1.146l0.022,-0.809l-3.282,0l0,14.96l3.282,0l0,-4.386c0,0 0.788,0.786 1.847,0.786Zm-0.09,-9c1.418,0 1.441,1.959 1.441,2.949c0,0.968 0.045,3.422 -1.441,3.422c-1.622,0 -1.757,-1.779 -1.757,-3.039l0,-2.409c0.495,-0.427 0.833,-0.923 1.757,-0.923Z" style="fill:#808080;fill-rule:nonzero;"/><path d="M302.9,118.989c0,-0.607 -0.023,-1.191 -0.045,-1.798c-0.068,-2.364 -2.003,-4.342 -4.388,-4.342c-3.127,0 -5.262,2.586 -5.262,5.601c0,3.016 1.394,6.119 4.857,6.119c1.373,0 3.083,-0.742 4.163,-1.641l-0.945,-2.025c-0.833,0.608 -2.093,0.969 -3.105,0.969c-1.283,0 -1.71,-1.487 -1.71,-2.523c0,-0.112 0,-0.248 0.022,-0.36l6.413,0Zm-3.06,-2.067l-3.128,0c0.09,-0.789 0.675,-1.916 1.598,-1.916c1.012,0 1.507,1.037 1.53,1.916Z" style="fill:#808080;fill-rule:nonzero;"/><path d="M308.233,127.72l-4.32,0l0,-2.745l1.35,0l0,-14.467l-1.35,0l0,-2.745l4.32,0l0,19.957Z" style="fill:#808080;fill-rule:nonzero;"/><path d="M313.836,127.72l-4.32,0l0,-2.745l1.35,0l0,-14.467l-1.35,0l0,-2.745l4.32,0l0,19.957Z" style="fill:#808080;fill-rule:nonzero;"/></g><g id="text70186" serif:id="text7018"></g><g id="text70187" serif:id="text7018"></g><g id="text70188" serif:id="text7018"></g><g id="text70189" serif:id="text7018"></g><path id="path6044-5-3-12" serif:id="path6044-5-3-1" d="M357.093,113.547l9.018,4.464l-8.981,4.536c2.241,-2.259 2.222,-6.759 -0.037,-9Z" style="fill:#808080;"/><path d="M316.169,118.213c0,0 28.916,-0.117 42.743,-0.173" style="fill:none;stroke:#808080;stroke-width:3px;"/><g id="text7018-0-4-7-2-6"><path id="path7932-2-0-2" d="M379.359,127.72l0,-2.745l-1.35,0l0,-14.468l1.35,0l0,-2.745l-4.32,0l0,19.958l4.32,0Z" style="fill:#808080;fill-rule:nonzero;"/><path id="path7934-7-6-1" d="M384.94,127.72l0,-2.745l-1.35,0l0,-14.468l1.35,0l0,-2.745l-4.32,0l0,19.958l4.32,0Z" style="fill:#808080;fill-rule:nonzero;"/><path id="path7936-2-8-7" d="M396.304,114.692c0,-3.577 -2.7,-4.657 -5.828,-4.657l-3.735,0l0,14.175l3.353,0l0,-4.86c0.337,0.202 0.877,0.315 1.237,0.315c2.723,0 4.973,-2.25 4.973,-4.973Zm-3.353,-0.023c0,1.305 -0.54,2.25 -1.957,2.25c-0.225,0 -0.675,-0.18 -0.9,-0.269l0,-3.803l0.495,0c1.305,0 2.362,0.293 2.362,1.823l0,-0.001Z" style="fill:#808080;fill-rule:nonzero;"/><path id="path7938-2-9-8" d="M403.308,116.38l0.427,-3.195c0,0 -0.517,-0.338 -1.17,-0.338c-0.562,0 -1.53,1.148 -1.53,1.148l0,-0.81l-3.285,0l0,11.025l3.263,0l0,-7.83c0,0 0.315,-0.338 0.877,-0.338c0.63,0 1.418,0.338 1.418,0.338Z" style="fill:#808080;fill-rule:nonzero;"/><path id="path7940-6-2-5" d="M409.079,124.547c3.42,0 4.95,-3.24 4.95,-5.85c0,-2.61 -1.53,-5.85 -4.95,-5.85c-3.42,0 -4.95,3.24 -4.95,5.85c0,2.61 1.53,5.85 4.95,5.85Zm0,-8.977c1.058,0 1.688,1.17 1.688,3.127c0,1.935 -0.63,3.15 -1.688,3.15c-1.057,0 -1.687,-1.192 -1.687,-3.15c0,-1.957 0.63,-3.127 1.687,-3.127Z" style="fill:#808080;fill-rule:nonzero;"/><path id="path7942-1-66-74" d="M420.02,124.367c0.36,-0.112 1.328,-0.517 1.328,-0.517l-0.698,-2.228c0,0 -0.607,0.338 -1.102,0.158c-0.315,-0.09 -0.36,-0.653 -0.36,-0.788l0,-5.22l1.8,0l0,-2.587l-1.845,0l0,-1.98l-3.128,0l0,1.98l-1.057,0l0,2.34l0.967,0.247l0,5.76c0,1.463 0.675,3.015 2.7,3.015c0.585,0 0.99,-0.045 1.395,-0.18l0,0Z" style="fill:#808080;fill-rule:nonzero;"/><path id="path7944-0-4-1" d="M426.965,124.547c3.42,0 4.95,-3.24 4.95,-5.85c0,-2.61 -1.53,-5.85 -4.95,-5.85c-3.42,0 -4.95,3.24 -4.95,5.85c0,2.61 1.53,5.85 4.95,5.85Zm0,-8.977c1.057,0 1.687,1.17 1.687,3.127c0,1.935 -0.63,3.15 -1.687,3.15c-1.058,0 -1.688,-1.192 -1.688,-3.15c0,-1.957 0.63,-3.127 1.688,-3.127Z" style="fill:#808080;fill-rule:nonzero;"/><path id="path7946-6-9-8" d="M437.906,124.367c0.36,-0.112 1.328,-0.517 1.328,-0.517l-0.698,-2.228c0,0 -0.607,0.338 -1.102,0.158c-0.315,-0.09 -0.36,-0.653 -0.36,-0.788l0,-5.22l1.8,0l0,-2.587l-1.845,0l0,-1.98l-3.128,0l0,1.98l-1.057,0l0,2.34l0.967,0.247l0,5.76c0,1.463 0.675,3.015 2.7,3.015c0.585,0 0.99,-0.045 1.395,-0.18l0,0Z" style="fill:#808080;fill-rule:nonzero;"/><path id="path7948-1-5-5" d="M444.671,120.407c-0.135,-2.182 -1.643,-7.222 -1.643,-7.222l-3.465,0l3.375,10.8c-0.652,1.102 -0.765,1.485 -2.52,2.092l0.743,2.385c0,0 1.732,-0.337 2.632,-0.945c2.88,-1.935 4.928,-10.755 5.603,-14.332l-3.353,0c-0.315,2.542 -0.742,4.95 -1.372,7.222Z" style="fill:#808080;fill-rule:nonzero;"/><path id="path7950-5-0-9" d="M455.923,124.547c3.893,0 4.68,-3.712 4.68,-6.232c0,-2.34 -1.282,-5.468 -4.207,-5.468c-1.215,0 -2.34,1.148 -2.34,1.148l0.023,-0.81l-3.285,0l0,14.962l3.285,0l0,-4.387c0,0 0.787,0.787 1.845,0.787l-0.001,0Zm-0.09,-9c1.418,0 1.44,1.958 1.44,2.948c0,0.967 0.045,3.42 -1.44,3.42c-1.62,0 -1.755,-1.778 -1.755,-3.038l0,-2.407c0.495,-0.428 0.833,-0.923 1.755,-0.923Z" style="fill:#808080;fill-rule:nonzero;"/><path id="path7952-9-4-7" d="M471.372,118.99c0,-0.608 -0.022,-1.193 -0.045,-1.8c-0.067,-2.363 -2.002,-4.343 -4.387,-4.343c-3.128,0 -5.265,2.588 -5.265,5.603c0,3.015 1.395,6.12 4.86,6.12c1.372,0 3.082,-0.743 4.162,-1.643l-0.945,-2.025c-0.832,0.608 -2.092,0.968 -3.105,0.968c-1.282,0 -1.71,-1.485 -1.71,-2.52c0,-0.113 0,-0.248 0.023,-0.36l6.412,0Zm-3.06,-2.07l-3.127,0c0.09,-0.788 0.675,-1.913 1.597,-1.913c1.013,0 1.508,1.035 1.53,1.913Z" style="fill:#808080;fill-rule:nonzero;"/><path id="path7954-4-8-5" d="M476.698,127.72l-4.32,0l0,-2.745l1.35,0l0,-14.468l-1.35,0l0,-2.745l4.32,0l0,19.958Z" style="fill:#808080;fill-rule:nonzero;"/><path id="path7956-9-7-3" d="M482.279,127.72l-4.32,0l0,-2.745l1.35,0l0,-14.468l-1.35,0l0,-2.745l4.32,0l0,19.958Z" style="fill:#808080;fill-rule:nonzero;"/></g><g id="text7018-0-4-7-2-61" serif:id="text7018-0-4-7-2-6"></g><g id="text7018-0-4-7-2-62" serif:id="text7018-0-4-7-2-6"></g><g id="text7018-0-4-7-2-63" serif:id="text7018-0-4-7-2-6"></g><g id="text4795-14" serif:id="text4795-1"></g><g id="text7022-94" serif:id="text7022-9"></g><g id="text81024" serif:id="text8102"></g><g id="text7018-0-4-7-2-64" serif:id="text7018-0-4-7-2-6"></g><g id="text4795-15" serif:id="text4795-1"></g><g id="text4795-16" serif:id="text4795-1"></g><g id="text7022-95" serif:id="text7022-9"></g><g id="text7022-96" serif:id="text7022-9"></g><g id="text81025" serif:id="text8102"></g><g id="text81026" serif:id="text8102"></g><g id="text7018-0-4-7-2-65" serif:id="text7018-0-4-7-2-6"></g><g id="text7018-0-4-7-2-66" serif:id="text7018-0-4-7-2-6"></g><g><g id="text4795-17" serif:id="text4795-1"></g><g id="text7022-97" serif:id="text7022-9"></g><g id="text81027" serif:id="text8102"></g><g id="text7018-0-4-7-2-67" serif:id="text7018-0-4-7-2-6"></g></g><g id="text4795-18" serif:id="text4795-1"></g><g id="text4795-19" serif:id="text4795-1"></g><g id="text4795-110" serif:id="text4795-1"></g><g id="text7022-98" serif:id="text7022-9"></g><g id="text7022-99" serif:id="text7022-9"></g><g id="text7022-910" serif:id="text7022-9"></g><g id="text81028" serif:id="text8102"></g><g id="text81029" serif:id="text8102"></g><g id="text810210" serif:id="text8102"></g><g id="text7018-0-4-7-2-68" serif:id="text7018-0-4-7-2-6"></g><g id="text7018-0-4-7-2-69" serif:id="text7018-0-4-7-2-6"></g><g id="text7018-0-4-7-2-610" serif:id="text7018-0-4-7-2-6"></g><g id="text4795-111" serif:id="text4795-1"></g><g id="text4795-112" serif:id="text4795-1"></g><g id="text4795-113" serif:id="text4795-1"></g><g id="text4795-114" serif:id="text4795-1"></g><g id="text7022-911" serif:id="text7022-9"></g><g id="text810211" serif:id="text8102"></g><g id="text7018-0-4-7-2-611" serif:id="text7018-0-4-7-2-6"></g><g id="text4795-115" serif:id="text4795-1"></g><g id="text7022-912" serif:id="text7022-9"></g><g id="text810212" serif:id="text8102"></g><g id="text7018-0-4-7-2-612" serif:id="text7018-0-4-7-2-6"></g><g id="text4795-116" serif:id="text4795-1"></g><g id="text7022-913" serif:id="text7022-9"></g><g id="text810213" serif:id="text8102"></g><g id="text7018-0-4-7-2-613" serif:id="text7018-0-4-7-2-6"></g><g><g id="text479520" serif:id="text4795"></g><g id="text701810" serif:id="text7018"></g></g><g id="text479521" serif:id="text4795"></g><g id="text479522" serif:id="text4795"></g><g id="text479523" serif:id="text4795"></g><g id="text479524" serif:id="text4795"></g><g id="text479525" serif:id="text4795"></g><g id="text479526" serif:id="text4795"></g><g id="text479527" serif:id="text4795"></g><g id="text479528" serif:id="text4795"></g><g id="text479529" serif:id="text4795"></g><g id="text479530" serif:id="text4795"></g><g id="text479531" serif:id="text4795"></g><g id="text479532" serif:id="text4795"></g><g id="text479533" serif:id="text4795"></g><g id="text479534" serif:id="text4795"></g><g id="text701811" serif:id="text7018"></g><g id="text701812" serif:id="text7018"></g><g id="text701813" serif:id="text7018"></g><g id="text701814" serif:id="text7018"></g><g id="text701815" serif:id="text7018"></g><g id="text701816" serif:id="text7018"></g><g id="text701817" serif:id="text7018"></g><g id="text701818" serif:id="text7018"></g><g id="text701819" serif:id="text7018"></g><g id="text701820" serif:id="text7018"></g><g id="text701821" serif:id="text7018"></g><g id="text701822" serif:id="text7018"></g><g id="text701823" serif:id="text7018"></g><g id="text479535" serif:id="text4795"></g><g id="text479536" serif:id="text4795"></g><g id="text479537" serif:id="text4795"></g><g id="text479538" serif:id="text4795"></g><g id="text479539" serif:id="text4795"></g><g id="text479540" serif:id="text4795"></g><g id="text479541" serif:id="text4795"></g><g id="text479542" serif:id="text4795"></g><g id="text479543" serif:id="text4795"></g><g id="text479544" serif:id="text4795"></g><g id="text479545" serif:id="text4795"></g><g id="text479546" serif:id="text4795"></g><g id="text479547" serif:id="text4795"></g><g id="text479548" serif:id="text4795"></g><g id="text479549" serif:id="text4795"></g><g id="text701824" serif:id="text7018"></g><g id="text701825" serif:id="text7018"></g><g id="text701826" serif:id="text7018"></g><g id="text701827" serif:id="text7018"></g><g id="text701828" serif:id="text7018"></g><g id="text701829" serif:id="text7018"></g><g id="text701830" serif:id="text7018"></g><g id="text701831" serif:id="text7018"></g><g id="text701832" serif:id="text7018"></g><g id="text701833" serif:id="text7018"></g><g id="text701834" serif:id="text7018"></g><g id="text701835" serif:id="text7018"></g><g id="text701836" serif:id="text7018"></g><g id="text479550" serif:id="text4795"></g><g id="text701837" serif:id="text7018"></g><g id="text479551" serif:id="text4795"></g><g id="text701838" serif:id="text7018"></g><g id="text4795-1-6"></g><g id="text7022-9-2"></g><g id="text7018-0-4-7-6"></g><g id="text8102-5"></g><g id="text7022-9-2-6"></g><g id="text4795-1-61" serif:id="text4795-1-6"></g><g id="text4795-1-62" serif:id="text4795-1-6"></g><g id="text7022-9-21" serif:id="text7022-9-2"></g><g id="text7022-9-22" serif:id="text7022-9-2"></g><g id="text7018-0-4-7-61" serif:id="text7018-0-4-7-6"></g><g id="text7018-0-4-7-62" serif:id="text7018-0-4-7-6"></g><g id="text8102-51" serif:id="text8102-5"></g><g id="text8102-52" serif:id="text8102-5"></g><g id="text7022-9-2-61" serif:id="text7022-9-2-6"></g><g id="text7022-9-2-62" serif:id="text7022-9-2-6"></g><g id="text4795-1-63" serif:id="text4795-1-6"></g><g id="text7022-9-23" serif:id="text7022-9-2"></g><g id="text7018-0-4-7-63" serif:id="text7018-0-4-7-6"></g><g id="text8102-53" serif:id="text8102-5"></g><g id="text7022-9-2-63" serif:id="text7022-9-2-6"></g><g id="text4795-1-64" serif:id="text4795-1-6"></g><g id="text4795-1-65" serif:id="text4795-1-6"></g><g id="text4795-1-66" serif:id="text4795-1-6"></g><g id="text7022-9-24" serif:id="text7022-9-2"></g><g id="text7022-9-25" serif:id="text7022-9-2"></g><g id="text7022-9-26" serif:id="text7022-9-2"></g><g id="text7018-0-4-7-64" serif:id="text7018-0-4-7-6"></g><g id="text7018-0-4-7-65" serif:id="text7018-0-4-7-6"></g><g id="text7018-0-4-7-66" serif:id="text7018-0-4-7-6"></g><g id="text8102-54" serif:id="text8102-5"></g><g id="text8102-55" serif:id="text8102-5"></g><g id="text8102-56" serif:id="text8102-5"></g><g id="text7022-9-2-64" serif:id="text7022-9-2-6"></g><g id="text7022-9-2-65" serif:id="text7022-9-2-6"></g><g id="text7022-9-2-66" serif:id="text7022-9-2-6"></g><g id="text4795-1-67" serif:id="text4795-1-6"></g><g id="text7022-9-27" serif:id="text7022-9-2"></g><g id="text7018-0-4-7-67" serif:id="text7018-0-4-7-6"></g><g id="text8102-57" serif:id="text8102-5"></g><g id="text7022-9-2-67" serif:id="text7022-9-2-6"></g><g id="text4795-1-68" serif:id="text4795-1-6"></g><g id="text7022-9-28" serif:id="text7022-9-2"></g><g id="text7018-0-4-7-68" serif:id="text7018-0-4-7-6"></g><g id="text8102-58" serif:id="text8102-5"></g><g id="text7022-9-2-68" serif:id="text7022-9-2-6"></g><g id="text479552" serif:id="text4795"></g><g id="text479553" serif:id="text4795"></g><g id="text701839" serif:id="text7018"></g><g id="text701840" serif:id="text7018"></g><g id="text7022-1-0-9"></g><g id="text7022-1-0-91" serif:id="text7022-1-0-9"></g><g id="text7022-1-0-92" serif:id="text7022-1-0-9"></g><g id="text7022-1-0-93" serif:id="text7022-1-0-9"></g><g id="text7022-1-0-94" serif:id="text7022-1-0-9"></g><g id="text7022-1-0-95" serif:id="text7022-1-0-9"></g><g id="text7022-1-0-96" serif:id="text7022-1-0-9"></g><g id="text7022-1-0-97" serif:id="text7022-1-0-9"></g><g id="text7022-1-0-98" serif:id="text7022-1-0-9"></g><g id="text7022-1-0-99" serif:id="text7022-1-0-9"></g><g id="text7022-1-0-910" serif:id="text7022-1-0-9"></g><g id="text7022-1-0-911" serif:id="text7022-1-0-9"></g><g id="text7022-1-0-912" serif:id="text7022-1-0-9"></g><g id="text6007-6-1"></g><g id="text6007-6-11" serif:id="text6007-6-1"></g><g id="text6007-6-12" serif:id="text6007-6-1"></g><g id="text6007-6-13" serif:id="text6007-6-1"></g><g id="text6007-6-14" serif:id="text6007-6-1"></g><g id="text6007-6-15" serif:id="text6007-6-1"></g><g id="text6007-6-16" serif:id="text6007-6-1"></g><g id="text6007-6-17" serif:id="text6007-6-1"></g><g id="text6007-6-18" serif:id="text6007-6-1"></g><g id="text6007-6-19" serif:id="text6007-6-1"></g><g id="text6007-6-110" serif:id="text6007-6-1"></g><g id="text6007-6-111" serif:id="text6007-6-1"></g><g id="text6007-6-112" serif:id="text6007-6-1"></g><g id="text6007-6-113" serif:id="text6007-6-1"></g><g id="text7018-0-9"></g><g id="text7018-0-91" serif:id="text7018-0-9"></g><g id="text7018-0-92" serif:id="text7018-0-9"></g><g id="text7018-0-93" serif:id="text7018-0-9"></g><g id="text7018-0-94" serif:id="text7018-0-9"></g><g id="text7018-0-95" serif:id="text7018-0-9"></g><g id="text7018-0-96" serif:id="text7018-0-9"></g><g id="text7018-0-97" serif:id="text7018-0-9"></g><g id="text7018-0-98" serif:id="text7018-0-9"></g><g id="text7018-0-99" serif:id="text7018-0-9"></g><g id="text7018-0-910" serif:id="text7018-0-9"></g><g id="text7018-0-911" serif:id="text7018-0-9"></g><g id="text7018-0-912" serif:id="text7018-0-9"></g><g id="text7018-0-913" serif:id="text7018-0-9"></g><g id="text7018-0-914" serif:id="text7018-0-9"></g><g id="text7018-0-915" serif:id="text7018-0-9"></g><g id="text6007-6-1-6"></g><g id="text6007-6-1-61" serif:id="text6007-6-1-6"></g><g id="text6007-6-1-62" serif:id="text6007-6-1-6"></g><g id="text6007-6-1-63" serif:id="text6007-6-1-6"></g><g id="text6007-6-1-64" serif:id="text6007-6-1-6"></g><g id="text6007-6-1-65" serif:id="text6007-6-1-6"></g><g id="text6007-6-1-66" serif:id="text6007-6-1-6"></g><g id="text6007-6-1-67" serif:id="text6007-6-1-6"></g><g id="text6007-6-1-68" serif:id="text6007-6-1-6"></g><g id="text6007-6-1-69" serif:id="text6007-6-1-6"></g><g id="text6007-6-1-610" serif:id="text6007-6-1-6"></g><g id="text6007-6-1-611" serif:id="text6007-6-1-6"></g><g id="text6007-6-1-612" serif:id="text6007-6-1-6"></g><g id="text6007-6-1-613" serif:id="text6007-6-1-6"></g><g id="text7022-1-0-913" serif:id="text7022-1-0-9"></g><g id="text7022-1-0-914" serif:id="text7022-1-0-9"></g><g id="text6007-6-114" serif:id="text6007-6-1"></g><g id="text6007-6-115" serif:id="text6007-6-1"></g><g id="text7018-0-916" serif:id="text7018-0-9"></g><g id="text7018-0-917" serif:id="text7018-0-9"></g><g id="text6007-6-1-614" serif:id="text6007-6-1-6"></g><g id="text6007-6-1-615" serif:id="text6007-6-1-6"></g><g id="text701841" serif:id="text7018"></g><g id="text7022-1-0-915" serif:id="text7022-1-0-9"></g><g id="text7018-0-918" serif:id="text7018-0-9"></g><g id="text6007-6-1-616" serif:id="text6007-6-1-6"></g><g id="text701842" serif:id="text7018"></g><g id="text7022-1-0-916" serif:id="text7022-1-0-9"></g><g id="text7018-0-919" serif:id="text7018-0-9"></g><g id="text6007-6-1-617" serif:id="text6007-6-1-6"></g><g id="text701843" serif:id="text7018"></g><g id="text701844" serif:id="text7018"></g><g id="text7022-1-0-917" serif:id="text7022-1-0-9"></g><g id="text7022-1-0-918" serif:id="text7022-1-0-9"></g><g id="text7018-0-920" serif:id="text7018-0-9"></g><g id="text7018-0-921" serif:id="text7018-0-9"></g><g id="text6007-6-1-618" serif:id="text6007-6-1-6"></g><g id="text6007-6-1-619" serif:id="text6007-6-1-6"></g><g id="text479554" serif:id="text4795"></g><g id="text479555" serif:id="text4795"></g><g id="text479556" serif:id="text4795"></g><g id="text479557" serif:id="text4795"></g><g id="text479558" serif:id="text4795"></g><g id="text479559" serif:id="text4795"></g><g id="text479560" serif:id="text4795"></g><g id="text479561" serif:id="text4795"></g><g id="text479562" serif:id="text4795"></g><g id="text701845" serif:id="text7018"></g><g id="text701846" serif:id="text7018"></g><g id="text701847" serif:id="text7018"></g><g id="text701848" serif:id="text7018"></g><g id="text701849" serif:id="text7018"></g><g id="text701850" serif:id="text7018"></g><g id="text701851" serif:id="text7018"></g><g id="text701852" serif:id="text7018"></g><g id="text7022-1-0-919" serif:id="text7022-1-0-9"></g><g id="text7022-1-0-920" serif:id="text7022-1-0-9"></g><g id="text479563" serif:id="text4795"></g><g id="text479564" serif:id="text4795"></g><g id="text701853" serif:id="text7018"></g><g id="text701854" serif:id="text7018"></g><g id="text7022-1-0-921" serif:id="text7022-1-0-9"></g><g id="text7022-1-0-922" serif:id="text7022-1-0-9"></g><g id="text4795-117" serif:id="text4795-1"></g><g id="text4795-118" serif:id="text4795-1"></g><g id="text4795-119" serif:id="text4795-1"></g><g id="text4795-120" serif:id="text4795-1"></g><g id="text4795-121" serif:id="text4795-1"></g><g id="text4795-122" serif:id="text4795-1"></g><g id="text4795-123" serif:id="text4795-1"></g><g id="text4795-124" serif:id="text4795-1"></g><g id="text4795-125" serif:id="text4795-1"></g><g id="text7022-914" serif:id="text7022-9"></g><g id="text7022-915" serif:id="text7022-9"></g><g id="text7022-916" serif:id="text7022-9"></g><g id="text7022-917" serif:id="text7022-9"></g><g id="text7022-918" serif:id="text7022-9"></g><g id="text7022-919" serif:id="text7022-9"></g><g id="text7022-920" serif:id="text7022-9"></g><g id="text7022-921" serif:id="text7022-9"></g><g id="text7022-922" serif:id="text7022-9"></g><g id="text7022-923" serif:id="text7022-9"></g><g id="text7022-924" serif:id="text7022-9"></g><g id="text7022-925" serif:id="text7022-9"></g><g id="text810214" serif:id="text8102"></g><g id="text810215" serif:id="text8102"></g><g id="text810216" serif:id="text8102"></g><g id="text810217" serif:id="text8102"></g><g id="text810218" serif:id="text8102"></g><g id="text810219" serif:id="text8102"></g><g id="text810220" serif:id="text8102"></g><g id="text810221" serif:id="text8102"></g><g id="text810222" serif:id="text8102"></g><g id="text810223" serif:id="text8102"></g><g id="text810224" serif:id="text8102"></g><g id="text810225" serif:id="text8102"></g><g id="text7018-0-4-7-2-614" serif:id="text7018-0-4-7-2-6"></g><g id="text7018-0-4-7-2-615" serif:id="text7018-0-4-7-2-6"></g><g id="text7018-0-4-7-2-616" serif:id="text7018-0-4-7-2-6"></g><g id="text7018-0-4-7-2-617" serif:id="text7018-0-4-7-2-6"></g><g id="text7018-0-4-7-2-618" serif:id="text7018-0-4-7-2-6"></g><g id="text7018-0-4-7-2-619" serif:id="text7018-0-4-7-2-6"></g><g id="text7018-0-4-7-2-620" serif:id="text7018-0-4-7-2-6"></g><g id="text7018-0-4-7-2-621" serif:id="text7018-0-4-7-2-6"></g><g id="text7018-0-4-7-2-622" serif:id="text7018-0-4-7-2-6"></g><g id="text7018-0-4-7-2-623" serif:id="text7018-0-4-7-2-6"></g><g id="text7018-0-4-7-2-624" serif:id="text7018-0-4-7-2-6"></g><g id="text7018-0-4-7-2-625" serif:id="text7018-0-4-7-2-6"></g><g id="text6007-6-1-620" serif:id="text6007-6-1-6"></g><g id="text6007-6-1-621" serif:id="text6007-6-1-6"></g><g id="text6007-6-1-622" serif:id="text6007-6-1-6"></g><g id="text6007-6-1-623" serif:id="text6007-6-1-6"></g><g id="text6007-6-1-624" serif:id="text6007-6-1-6"></g><g id="text6007-6-1-625" serif:id="text6007-6-1-6"></g><g id="text6007-6-1-626" serif:id="text6007-6-1-6"></g><g id="text4795-1-69" serif:id="text4795-1-6"></g><g id="text4795-1-610" serif:id="text4795-1-6"></g><g id="text4795-1-611" serif:id="text4795-1-6"></g><g id="text4795-1-612" serif:id="text4795-1-6"></g><g id="text4795-1-613" serif:id="text4795-1-6"></g><g id="text4795-1-614" serif:id="text4795-1-6"></g><g id="text7022-9-29" serif:id="text7022-9-2"></g><g id="text7022-9-210" serif:id="text7022-9-2"></g><g id="text7022-9-211" serif:id="text7022-9-2"></g><g id="text7022-9-212" serif:id="text7022-9-2"></g><g id="text7022-9-213" serif:id="text7022-9-2"></g><g id="text7022-9-214" serif:id="text7022-9-2"></g><g id="text7018-0-4-7-69" serif:id="text7018-0-4-7-6"></g><g id="text7018-0-4-7-610" serif:id="text7018-0-4-7-6"></g><g id="text7018-0-4-7-611" serif:id="text7018-0-4-7-6"></g><g id="text7018-0-4-7-612" serif:id="text7018-0-4-7-6"></g><g id="text7018-0-4-7-613" serif:id="text7018-0-4-7-6"></g><g id="text7018-0-4-7-614" serif:id="text7018-0-4-7-6"></g><g id="text8102-59" serif:id="text8102-5"></g><g id="text8102-510" serif:id="text8102-5"></g><g id="text8102-511" serif:id="text8102-5"></g><g id="text8102-512" serif:id="text8102-5"></g><g id="text8102-513" serif:id="text8102-5"></g><g id="text8102-514" serif:id="text8102-5"></g><g id="text7022-9-2-69" serif:id="text7022-9-2-6"></g><g id="text7022-9-2-610" serif:id="text7022-9-2-6"></g><g id="text7022-9-2-611" serif:id="text7022-9-2-6"></g><g id="text7022-9-2-612" serif:id="text7022-9-2-6"></g><g id="text7022-9-2-613" serif:id="text7022-9-2-6"></g><g id="text7022-9-2-614" serif:id="text7022-9-2-6"></g><g id="text479565" serif:id="text4795"></g><g id="text479566" serif:id="text4795"></g><g id="text479567" serif:id="text4795"></g><g id="text479568" serif:id="text4795"></g><g id="text701855" serif:id="text7018"></g><g id="text701856" serif:id="text7018"></g><g id="text701857" serif:id="text7018"></g><g id="text701858" serif:id="text7018"></g><g id="text4795-1-615" serif:id="text4795-1-6"></g><g id="text4795-1-616" serif:id="text4795-1-6"></g><g id="text4795-1-617" serif:id="text4795-1-6"></g><g id="text4795-1-618" serif:id="text4795-1-6"></g><g id="text4795-1-619" serif:id="text4795-1-6"></g><g id="text4795-1-620" serif:id="text4795-1-6"></g><g id="text7018-0-4-7-615" serif:id="text7018-0-4-7-6"></g><g id="text7018-0-4-7-616" serif:id="text7018-0-4-7-6"></g><g id="text7018-0-4-7-617" serif:id="text7018-0-4-7-6"></g><g id="text7018-0-4-7-618" serif:id="text7018-0-4-7-6"></g><g id="text7018-0-4-7-619" serif:id="text7018-0-4-7-6"></g><g id="text7018-0-4-7-620" serif:id="text7018-0-4-7-6"></g><g id="text8102-515" serif:id="text8102-5"></g><g id="text8102-516" serif:id="text8102-5"></g><g id="text8102-517" serif:id="text8102-5"></g><g id="text8102-518" serif:id="text8102-5"></g><g id="text8102-519" serif:id="text8102-5"></g><g id="text8102-520" serif:id="text8102-5"></g><g id="text6007-6-1-627" serif:id="text6007-6-1-6"></g><g id="text6007-6-1-628" serif:id="text6007-6-1-6"></g><g id="text6007-6-1-629" serif:id="text6007-6-1-6"></g><g id="text6007-6-1-630" serif:id="text6007-6-1-6"></g><g id="text6007-6-1-631" serif:id="text6007-6-1-6"></g><g id="text6007-6-1-632" serif:id="text6007-6-1-6"></g><g id="text7022-926" serif:id="text7022-9"></g><g id="text7022-927" serif:id="text7022-9"></g><g id="text7022-928" serif:id="text7022-9"></g><g id="text7022-929" serif:id="text7022-9"></g><g id="text7022-930" serif:id="text7022-9"></g><g id="text7022-931" serif:id="text7022-9"></g><g id="text6007-6-116" serif:id="text6007-6-1"></g><g id="text6007-6-117" serif:id="text6007-6-1"></g><g id="text7018-0-922" serif:id="text7018-0-9"></g><g id="text7018-0-923" serif:id="text7018-0-9"></g><g id="text6007-6-1-633" serif:id="text6007-6-1-6"></g><g id="text6007-6-1-634" serif:id="text6007-6-1-6"></g><g><g><g id="text4795-1-621" serif:id="text4795-1-6"></g></g></g><g><g><g id="text4795-1-622" serif:id="text4795-1-6"></g></g></g><g><g><g id="text4795-1-623" serif:id="text4795-1-6"></g></g></g><g><g><g id="text4795-1-624" serif:id="text4795-1-6"></g></g></g><g id="text6007-6-1-635" serif:id="text6007-6-1-6"></g><g id="text6007-6-1-636" serif:id="text6007-6-1-6"></g><g id="text6007-6-1-637" serif:id="text6007-6-1-6"></g><g id="text6007-6-1-638" serif:id="text6007-6-1-6"></g><g id="text6007-6-1-639" serif:id="text6007-6-1-6"></g><g id="text6007-6-1-640" serif:id="text6007-6-1-6"></g><g id="text7022-9-215" serif:id="text7022-9-2"></g><g id="text7022-9-216" serif:id="text7022-9-2"></g><g id="text7022-9-217" serif:id="text7022-9-2"></g><g id="text7022-9-218" serif:id="text7022-9-2"></g><g id="text7022-9-219" serif:id="text7022-9-2"></g><g id="text7022-9-220" serif:id="text7022-9-2"></g><g id="text7022-9-221" serif:id="text7022-9-2"></g><g id="text7022-9-222" serif:id="text7022-9-2"></g><g id="text7022-9-223" serif:id="text7022-9-2"></g></g></svg>