<?xml version="1.0" encoding="UTF-8" standalone="no"?><!DOCTYPE svg PUBLIC "-//W3C//DTD SVG 1.1//EN" "http://www.w3.org/Graphics/SVG/1.1/DTD/svg11.dtd"><svg width="241px" height="95px" version="1.1" xmlns="http://www.w3.org/2000/svg" xmlns:xlink="http://www.w3.org/1999/xlink" xml:space="preserve" xmlns:serif="http://www.serif.com/" style="fill-rule:evenodd;clip-rule:evenodd;"><g id="Layer-1" serif:id="Layer 1"><rect id="rect6003" x="101.706" y="9.176" width="101.632" height="33.348" style="fill:#e6e6e6;stroke:#000;stroke-width:3px;"/><g id="text6007"></g><g id="text60071" serif:id="text6007"></g><g id="text60072" serif:id="text6007"></g><g id="text60073" serif:id="text6007"></g><g id="text60074" serif:id="text6007"></g><g id="text7018"></g><g id="text70181" serif:id="text7018"></g><g id="text70182" serif:id="text7018"></g><g id="text70183" serif:id="text7018"></g><g id="text70184" serif:id="text7018"></g><g id="text4795"></g><g id="text47951" serif:id="text4795"></g><g id="text47952" serif:id="text4795"></g><g id="text47953" serif:id="text4795"></g><g id="text47954" serif:id="text4795"></g><g id="text47955" serif:id="text4795"></g><g id="text47956" serif:id="text4795"></g><g id="text47957" serif:id="text4795"></g><g id="text47958" serif:id="text4795"><path d="M23.307,18.235l-0.495,-2.325c0,0 -4.587,0.044 -4.587,3.841l0,1.041l-1.103,0l0,2.338l1.103,0.18l0,8.482l3.259,0l0,-8.37l1.688,0l0,-2.63l-1.688,0l0,-0.905c0,-1.335 1.823,-1.652 1.823,-1.652Z" style="fill-rule:nonzero;"/><path d="M28.866,32.129c3.42,0 4.948,-3.237 4.948,-5.848c0,-2.611 -1.528,-5.849 -4.948,-5.849c-3.42,0 -4.949,3.238 -4.949,5.849c0,2.611 1.529,5.848 4.949,5.848Zm0,-8.977c1.058,0 1.688,1.17 1.688,3.129c0,1.936 -0.63,3.151 -1.688,3.151c-1.059,0 -1.689,-1.193 -1.689,-3.151c0,-1.959 0.63,-3.129 1.689,-3.129Z" style="fill-rule:nonzero;"/><path d="M39.846,32.129c3.42,0 4.948,-3.237 4.948,-5.848c0,-2.611 -1.528,-5.849 -4.948,-5.849c-3.42,0 -4.949,3.238 -4.949,5.849c0,2.611 1.529,5.848 4.949,5.848Zm0,-8.977c1.058,0 1.688,1.17 1.688,3.129c0,1.936 -0.63,3.151 -1.688,3.151c-1.059,0 -1.689,-1.193 -1.689,-3.151c0,-1.959 0.63,-3.129 1.689,-3.129Z" style="fill-rule:nonzero;"/></g><g id="text47959" serif:id="text4795"></g><g id="text479510" serif:id="text4795"></g><g id="text479511" serif:id="text4795"></g><g id="text479512" serif:id="text4795"></g><g id="text479513" serif:id="text4795"></g><g id="text479514" serif:id="text4795"></g><g id="text479515" serif:id="text4795"></g><g id="text479516" serif:id="text4795"></g><g id="text479517" serif:id="text4795"></g><g id="text479518" serif:id="text4795"></g><g id="text479519" serif:id="text4795"><path d="M23.22,86.427c3.758,0 5.197,-3.193 5.197,-6.502c0,-2.521 -1.394,-5.196 -4.228,-5.196c-0.721,0 -1.599,0.63 -2.095,1.147l0,-5.399l-3.259,0l0,14.354c1.281,0.899 2.81,1.596 4.385,1.596Zm0.451,-9c1.374,0 1.441,1.71 1.441,2.723c0,1.193 -0.135,3.602 -1.802,3.602c-0.427,0 -0.855,-0.158 -1.216,-0.405l0,-4.772c0.361,-0.541 0.879,-1.148 1.577,-1.148Z" style="fill-rule:nonzero;"/><path d="M39.149,85.955l-0.495,-1.529c-0.09,0.045 -0.202,0.09 -0.315,0.09c-0.27,0 -0.27,-0.382 -0.27,-0.584l0,-5.875c0,-2.339 -1.798,-3.328 -3.935,-3.328c-1.487,0 -3.128,0.787 -4.185,1.798l1.146,1.845c0.81,-0.63 1.687,-1.035 2.723,-1.035c0.518,0 1.217,0.292 1.217,0.9l0,0.473l-4.951,1.981c-0.382,0.697 -0.809,1.598 -0.809,2.386c0,2.248 1.236,3.35 3.44,3.35c1.126,0 2.342,-0.675 2.747,-1.776c0.135,1.011 0.786,1.776 1.955,1.776c0.607,0 1.192,-0.203 1.732,-0.472Zm-4.047,-5.107l0,0.608c0,1.17 -0.585,2.363 -1.892,2.363c-0.45,0 -0.878,-0.315 -0.878,-0.787c0,-0.361 0.09,-0.788 0.202,-1.126l2.568,-1.058Z" style="fill-rule:nonzero;"/><path d="M46.102,78.259l0.427,-3.192c0,0 -0.517,-0.338 -1.17,-0.338c-0.562,0 -1.53,1.147 -1.53,1.147l0,-0.809l-3.282,0l0,11.022l3.26,0l0,-7.83c0,0 0.315,-0.337 0.877,-0.337c0.63,0 1.418,0.337 1.418,0.337Z" style="fill-rule:nonzero;"/><path d="M49.343,86.427c1.035,0 2.046,-0.81 2.046,-1.889c0,-1.057 -0.944,-1.776 -1.933,-1.776c-1.057,0 -2.046,0.809 -2.046,1.888c0,1.035 0.944,1.777 1.933,1.777Zm0,-6.48c1.035,0 2.046,-0.81 2.046,-1.912c0,-1.034 -0.944,-1.776 -1.933,-1.776c-1.057,0 -2.046,0.81 -2.046,1.911c0,1.035 0.944,1.777 1.933,1.777Z" style="fill-rule:nonzero;"/></g><g id="text1254"></g><g id="text1620"></g><path d="M118.294,31.181l3.667,0l-3.082,-5.792l2.97,-5.208l-3.578,0l-1.057,2.356l-1.013,-2.356l-3.622,0l2.947,5.32l-3.015,5.68l3.555,0l1.148,-2.873l1.08,2.873Z" style="fill-rule:nonzero;"/><path d="M124.819,31.518c1.034,0 2.046,-0.809 2.046,-1.888c0,-1.057 -0.945,-1.776 -1.934,-1.776c-1.057,0 -2.046,0.809 -2.046,1.888c0,1.034 0.944,1.776 1.934,1.776Zm0,-6.48c1.034,0 2.046,-0.809 2.046,-1.911c0,-1.034 -0.945,-1.776 -1.934,-1.776c-1.057,0 -2.046,0.81 -2.046,1.911c0,1.034 0.944,1.776 1.934,1.776Z" style="fill-rule:nonzero;"/><path d="M139.914,29.977l0,-2.067l-1.282,0l0,-8.933l-2.292,0c-2.138,2.85 -4.118,5.858 -5.423,9.18l0.113,1.82l5.31,0l0,3.105l2.247,0l0,-3.105l1.327,0Zm-3.574,-2.067l-2.993,0c0.765,-1.975 1.868,-3.816 2.993,-5.5l0,5.5Z" style="fill:#000080;fill-rule:nonzero;"/><path d="M149.567,29.977l0,-2.112l-4.227,0c1.934,-1.261 3.844,-3.534 3.844,-5.942c0,-2.249 -1.505,-3.306 -3.642,-3.306c-1.237,0 -2.835,0.517 -3.735,1.438l0.495,1.89c0.743,-0.698 1.958,-1.238 2.993,-1.238c0.81,0 1.507,0.405 1.507,1.306c0,2.07 -3.532,5.267 -5.197,6.211l0.427,1.753l7.535,0Z" style="fill:#000080;fill-rule:nonzero;"/><path d="M66.822,83.391l0,-2.067l-1.283,0l0,-8.933l-2.292,0c-2.137,2.849 -4.117,5.857 -5.422,9.18l0.112,1.82l5.31,0l0,3.105l2.247,0l0,-3.105l1.328,0Zm-3.575,-2.067l-2.992,0c0.765,-1.976 1.867,-3.816 2.992,-5.5l0,5.5Z" style="fill:#000080;fill-rule:nonzero;"/><path d="M76.474,83.391l0,-2.112l-4.227,0c1.935,-1.261 3.845,-3.534 3.845,-5.943c0,-2.249 -1.506,-3.305 -3.642,-3.305c-1.238,0 -2.835,0.517 -3.735,1.438l0.495,1.89c0.742,-0.698 1.957,-1.238 2.992,-1.238c0.81,0 1.508,0.405 1.508,1.305c0,2.071 -3.533,5.268 -5.198,6.212l0.428,1.753l7.534,0Z" style="fill:#000080;fill-rule:nonzero;"/><path id="path6044-5-3-1" d="M89.489,21.285l9.019,4.464l-8.982,4.536c2.241,-2.259 2.223,-6.759 -0.037,-9Z"/><path d="M48.566,25.951c0,0 28.915,-0.117 42.742,-0.173" style="fill:none;stroke:#000;stroke-width:3px;"/><g id="text4795-1"></g><g id="text4795-11" serif:id="text4795-1"></g><g id="text4795-12" serif:id="text4795-1"></g><g id="text4795-13" serif:id="text4795-1"></g><g id="text7022-9"></g><g id="text7022-91" serif:id="text7022-9"></g><g id="text7022-92" serif:id="text7022-9"></g><g id="text7022-93" serif:id="text7022-9"></g><g id="text8102"></g><g id="text81021" serif:id="text8102"></g><g id="text81022" serif:id="text8102"></g><g id="text81023" serif:id="text8102"></g><g id="text70185" serif:id="text7018"></g><g id="text70186" serif:id="text7018"></g><g id="text70187" serif:id="text7018"></g><g id="text70188" serif:id="text7018"></g><g id="text70189" serif:id="text7018"></g><g id="text7018-0-4-7-2-6"></g><g id="text7018-0-4-7-2-61" serif:id="text7018-0-4-7-2-6"></g><g id="text7018-0-4-7-2-62" serif:id="text7018-0-4-7-2-6"></g><g id="text7018-0-4-7-2-63" serif:id="text7018-0-4-7-2-6"></g><g id="text4795-14" serif:id="text4795-1"></g><g id="text7022-94" serif:id="text7022-9"></g><g id="text81024" serif:id="text8102"></g><g id="text7018-0-4-7-2-64" serif:id="text7018-0-4-7-2-6"></g><g id="text4795-15" serif:id="text4795-1"></g><g id="text4795-16" serif:id="text4795-1"></g><g id="text7022-95" serif:id="text7022-9"></g><g id="text7022-96" serif:id="text7022-9"></g><g id="text81025" serif:id="text8102"></g><g id="text81026" serif:id="text8102"></g><g id="text7018-0-4-7-2-65" serif:id="text7018-0-4-7-2-6"></g><g id="text7018-0-4-7-2-66" serif:id="text7018-0-4-7-2-6"></g><g><g id="text4795-17" serif:id="text4795-1"></g><g id="text7022-97" serif:id="text7022-9"></g><g id="text81027" serif:id="text8102"></g><g id="text7018-0-4-7-2-67" serif:id="text7018-0-4-7-2-6"></g></g><g id="text4795-18" serif:id="text4795-1"></g><g id="text4795-19" serif:id="text4795-1"></g><g id="text4795-110" serif:id="text4795-1"></g><g id="text7022-98" serif:id="text7022-9"></g><g id="text7022-99" serif:id="text7022-9"></g><g id="text7022-910" serif:id="text7022-9"></g><g id="text81028" serif:id="text8102"></g><g id="text81029" serif:id="text8102"></g><g id="text810210" serif:id="text8102"></g><g id="text7018-0-4-7-2-68" serif:id="text7018-0-4-7-2-6"></g><g id="text7018-0-4-7-2-69" serif:id="text7018-0-4-7-2-6"></g><g id="text7018-0-4-7-2-610" serif:id="text7018-0-4-7-2-6"></g><g id="text4795-111" serif:id="text4795-1"></g><g id="text4795-112" serif:id="text4795-1"></g><g id="text4795-113" serif:id="text4795-1"></g><g id="text4795-114" serif:id="text4795-1"></g><g id="text7022-911" serif:id="text7022-9"></g><g id="text810211" serif:id="text8102"></g><g id="text7018-0-4-7-2-611" serif:id="text7018-0-4-7-2-6"></g><g id="text4795-115" serif:id="text4795-1"></g><g id="text7022-912" serif:id="text7022-9"></g><g id="text810212" serif:id="text8102"></g><g id="text7018-0-4-7-2-612" serif:id="text7018-0-4-7-2-6"></g><g id="text4795-116" serif:id="text4795-1"></g><g id="text7022-913" serif:id="text7022-9"></g><g id="text810213" serif:id="text8102"></g><g id="text7018-0-4-7-2-613" serif:id="text7018-0-4-7-2-6"></g><g><g id="text479520" serif:id="text4795"></g><g id="text701810" serif:id="text7018"></g></g><g id="text479521" serif:id="text4795"></g><g id="text479522" serif:id="text4795"></g><g id="text479523" serif:id="text4795"></g><g id="text479524" serif:id="text4795"></g><g id="text479525" serif:id="text4795"></g><g id="text479526" serif:id="text4795"></g><g id="text479527" serif:id="text4795"></g><g id="text479528" serif:id="text4795"></g><g id="text479529" serif:id="text4795"></g><g id="text479530" serif:id="text4795"></g><g id="text479531" serif:id="text4795"></g><g id="text479532" serif:id="text4795"></g><g id="text479533" serif:id="text4795"></g><g id="text479534" serif:id="text4795"></g><g id="text701811" serif:id="text7018"></g><g id="text701812" serif:id="text7018"></g><g id="text701813" serif:id="text7018"></g><g id="text701814" serif:id="text7018"></g><g id="text701815" serif:id="text7018"></g><g id="text701816" serif:id="text7018"></g><g id="text701817" serif:id="text7018"></g><g id="text701818" serif:id="text7018"></g><g id="text701819" serif:id="text7018"></g><g id="text701820" serif:id="text7018"></g><g id="text701821" serif:id="text7018"></g><g id="text701822" serif:id="text7018"></g><g id="text701823" serif:id="text7018"></g><g id="text479535" serif:id="text4795"></g><g id="text479536" serif:id="text4795"></g><g id="text479537" serif:id="text4795"></g><g id="text479538" serif:id="text4795"></g><g id="text479539" serif:id="text4795"></g><g id="text479540" serif:id="text4795"></g><g id="text479541" serif:id="text4795"></g><g id="text479542" serif:id="text4795"></g><g id="text479543" serif:id="text4795"></g><g id="text479544" serif:id="text4795"></g><g id="text479545" serif:id="text4795"></g><g id="text479546" serif:id="text4795"></g><g id="text479547" serif:id="text4795"></g><g id="text479548" serif:id="text4795"></g><g id="text479549" serif:id="text4795"></g><g id="text701824" serif:id="text7018"></g><g id="text701825" serif:id="text7018"></g><g id="text701826" serif:id="text7018"></g><g id="text701827" serif:id="text7018"></g><g id="text701828" serif:id="text7018"></g><g id="text701829" serif:id="text7018"></g><g id="text701830" serif:id="text7018"></g><g id="text701831" serif:id="text7018"></g><g id="text701832" serif:id="text7018"></g><g id="text701833" serif:id="text7018"></g><g id="text701834" serif:id="text7018"></g><g id="text701835" serif:id="text7018"></g><g id="text701836" serif:id="text7018"></g><g id="text479550" serif:id="text4795"></g><g id="text701837" serif:id="text7018"></g><g id="text479551" serif:id="text4795"></g><g id="text701838" serif:id="text7018"></g><g id="text4795-1-6"></g><g id="text7022-9-2"></g><g id="text7018-0-4-7-6"></g><g id="text8102-5"></g><g id="text7022-9-2-6"></g><g id="text4795-1-61" serif:id="text4795-1-6"></g><g id="text4795-1-62" serif:id="text4795-1-6"></g><g id="text7022-9-21" serif:id="text7022-9-2"></g><g id="text7022-9-22" serif:id="text7022-9-2"></g><g id="text7018-0-4-7-61" serif:id="text7018-0-4-7-6"></g><g id="text7018-0-4-7-62" serif:id="text7018-0-4-7-6"></g><g id="text8102-51" serif:id="text8102-5"></g><g id="text8102-52" serif:id="text8102-5"></g><g id="text7022-9-2-61" serif:id="text7022-9-2-6"></g><g id="text7022-9-2-62" serif:id="text7022-9-2-6"></g><g id="text4795-1-63" serif:id="text4795-1-6"></g><g id="text7022-9-23" serif:id="text7022-9-2"></g><g id="text7018-0-4-7-63" serif:id="text7018-0-4-7-6"></g><g id="text8102-53" serif:id="text8102-5"></g><g id="text7022-9-2-63" serif:id="text7022-9-2-6"></g><g id="text4795-1-64" serif:id="text4795-1-6"></g><g id="text4795-1-65" serif:id="text4795-1-6"></g><g id="text4795-1-66" serif:id="text4795-1-6"></g><g id="text7022-9-24" serif:id="text7022-9-2"></g><g id="text7022-9-25" serif:id="text7022-9-2"></g><g id="text7022-9-26" serif:id="text7022-9-2"></g><g id="text7018-0-4-7-64" serif:id="text7018-0-4-7-6"></g><g id="text7018-0-4-7-65" serif:id="text7018-0-4-7-6"></g><g id="text7018-0-4-7-66" serif:id="text7018-0-4-7-6"></g><g id="text8102-54" serif:id="text8102-5"></g><g id="text8102-55" serif:id="text8102-5"></g><g id="text8102-56" serif:id="text8102-5"></g><g id="text7022-9-2-64" serif:id="text7022-9-2-6"></g><g id="text7022-9-2-65" serif:id="text7022-9-2-6"></g><g id="text7022-9-2-66" serif:id="text7022-9-2-6"></g><g id="text4795-1-67" serif:id="text4795-1-6"></g><g id="text7022-9-27" serif:id="text7022-9-2"></g><g id="text7018-0-4-7-67" serif:id="text7018-0-4-7-6"></g><g id="text8102-57" serif:id="text8102-5"></g><g id="text7022-9-2-67" serif:id="text7022-9-2-6"></g><g id="text4795-1-68" serif:id="text4795-1-6"></g><g id="text7022-9-28" serif:id="text7022-9-2"></g><g id="text7018-0-4-7-68" serif:id="text7018-0-4-7-6"></g><g id="text8102-58" serif:id="text8102-5"></g><g id="text7022-9-2-68" serif:id="text7022-9-2-6"></g><g id="text479552" serif:id="text4795"></g><g id="text479553" serif:id="text4795"></g><g id="text701839" serif:id="text7018"></g><g id="text701840" serif:id="text7018"></g><g id="text7022-1-0-9"></g><g id="text7022-1-0-91" serif:id="text7022-1-0-9"></g><g id="text7022-1-0-92" serif:id="text7022-1-0-9"></g><g id="text7022-1-0-93" serif:id="text7022-1-0-9"></g><g id="text7022-1-0-94" serif:id="text7022-1-0-9"></g><g id="text7022-1-0-95" serif:id="text7022-1-0-9"></g><g id="text7022-1-0-96" serif:id="text7022-1-0-9"></g><g id="text7022-1-0-97" serif:id="text7022-1-0-9"></g><g id="text7022-1-0-98" serif:id="text7022-1-0-9"></g><g id="text7022-1-0-99" serif:id="text7022-1-0-9"></g><g id="text7022-1-0-910" serif:id="text7022-1-0-9"></g><g id="text7022-1-0-911" serif:id="text7022-1-0-9"></g><g id="text7022-1-0-912" serif:id="text7022-1-0-9"></g><g id="text6007-6-1"></g><g id="text6007-6-11" serif:id="text6007-6-1"></g><g id="text6007-6-12" serif:id="text6007-6-1"></g><g id="text6007-6-13" serif:id="text6007-6-1"></g><g id="text6007-6-14" serif:id="text6007-6-1"></g><g id="text6007-6-15" serif:id="text6007-6-1"></g><g id="text6007-6-16" serif:id="text6007-6-1"></g><g id="text6007-6-17" serif:id="text6007-6-1"></g><g id="text6007-6-18" serif:id="text6007-6-1"></g><g id="text6007-6-19" serif:id="text6007-6-1"></g><g id="text6007-6-110" serif:id="text6007-6-1"></g><g id="text6007-6-111" serif:id="text6007-6-1"></g><g id="text6007-6-112" serif:id="text6007-6-1"></g><g id="text6007-6-113" serif:id="text6007-6-1"></g><g id="text7018-0-9"></g><g id="text7018-0-91" serif:id="text7018-0-9"></g><g id="text7018-0-92" serif:id="text7018-0-9"></g><g id="text7018-0-93" serif:id="text7018-0-9"></g><g id="text7018-0-94" serif:id="text7018-0-9"></g><g id="text7018-0-95" serif:id="text7018-0-9"></g><g id="text7018-0-96" serif:id="text7018-0-9"></g><g id="text7018-0-97" serif:id="text7018-0-9"></g><g id="text7018-0-98" serif:id="text7018-0-9"></g><g id="text7018-0-99" serif:id="text7018-0-9"></g><g id="text7018-0-910" serif:id="text7018-0-9"></g><g id="text7018-0-911" serif:id="text7018-0-9"></g><g id="text7018-0-912" serif:id="text7018-0-9"></g><g id="text7018-0-913" serif:id="text7018-0-9"></g><g id="text7018-0-914" serif:id="text7018-0-9"></g><g id="text7018-0-915" serif:id="text7018-0-9"></g><g id="text6007-6-1-6"></g><g id="text6007-6-1-61" serif:id="text6007-6-1-6"></g><g id="text6007-6-1-62" serif:id="text6007-6-1-6"></g><g id="text6007-6-1-63" serif:id="text6007-6-1-6"></g><g id="text6007-6-1-64" serif:id="text6007-6-1-6"></g><g id="text6007-6-1-65" serif:id="text6007-6-1-6"></g><g id="text6007-6-1-66" serif:id="text6007-6-1-6"></g><g id="text6007-6-1-67" serif:id="text6007-6-1-6"></g><g id="text6007-6-1-68" serif:id="text6007-6-1-6"></g><g id="text6007-6-1-69" serif:id="text6007-6-1-6"></g><g id="text6007-6-1-610" serif:id="text6007-6-1-6"></g><g id="text6007-6-1-611" serif:id="text6007-6-1-6"></g><g id="text6007-6-1-612" serif:id="text6007-6-1-6"></g><g id="text6007-6-1-613" serif:id="text6007-6-1-6"></g><g id="text7022-1-0-913" serif:id="text7022-1-0-9"></g><g id="text7022-1-0-914" serif:id="text7022-1-0-9"></g><g id="text6007-6-114" serif:id="text6007-6-1"></g><g id="text6007-6-115" serif:id="text6007-6-1"></g><g id="text7018-0-916" serif:id="text7018-0-9"></g><g id="text7018-0-917" serif:id="text7018-0-9"></g><g id="text6007-6-1-614" serif:id="text6007-6-1-6"></g><g id="text6007-6-1-615" serif:id="text6007-6-1-6"></g><g id="text701841" serif:id="text7018"></g><g id="text7022-1-0-915" serif:id="text7022-1-0-9"></g><g id="text7018-0-918" serif:id="text7018-0-9"></g><g id="text6007-6-1-616" serif:id="text6007-6-1-6"></g><g id="text701842" serif:id="text7018"></g><g id="text7022-1-0-916" serif:id="text7022-1-0-9"></g><g id="text7018-0-919" serif:id="text7018-0-9"></g><g id="text6007-6-1-617" serif:id="text6007-6-1-6"></g><g id="text701843" serif:id="text7018"></g><g id="text701844" serif:id="text7018"></g><g id="text7022-1-0-917" serif:id="text7022-1-0-9"></g><g id="text7022-1-0-918" serif:id="text7022-1-0-9"></g><g id="text7018-0-920" serif:id="text7018-0-9"></g><g id="text7018-0-921" serif:id="text7018-0-9"></g><g id="text6007-6-1-618" serif:id="text6007-6-1-6"></g><g id="text6007-6-1-619" serif:id="text6007-6-1-6"></g><g id="text479554" serif:id="text4795"></g><g id="text479555" serif:id="text4795"></g><g id="text479556" serif:id="text4795"></g><g id="text479557" serif:id="text4795"></g><g id="text479558" serif:id="text4795"></g><g id="text479559" serif:id="text4795"></g><g id="text479560" serif:id="text4795"></g><g id="text479561" serif:id="text4795"></g><g id="text479562" serif:id="text4795"></g><g id="text701845" serif:id="text7018"></g><g id="text701846" serif:id="text7018"></g><g id="text701847" serif:id="text7018"></g><g id="text701848" serif:id="text7018"></g><g id="text701849" serif:id="text7018"></g><g id="text701850" serif:id="text7018"></g><g id="text701851" serif:id="text7018"></g><g id="text701852" serif:id="text7018"></g><g id="text7022-1-0-919" serif:id="text7022-1-0-9"></g><g id="text7022-1-0-920" serif:id="text7022-1-0-9"></g><g id="text479563" serif:id="text4795"></g><g id="text479564" serif:id="text4795"></g><g id="text701853" serif:id="text7018"></g><g id="text701854" serif:id="text7018"></g><g id="text7022-1-0-921" serif:id="text7022-1-0-9"></g><g id="text7022-1-0-922" serif:id="text7022-1-0-9"></g><g id="text4795-117" serif:id="text4795-1"></g><g id="text4795-118" serif:id="text4795-1"></g><g id="text4795-119" serif:id="text4795-1"></g><g id="text4795-120" serif:id="text4795-1"></g><g id="text4795-121" serif:id="text4795-1"></g><g id="text4795-122" serif:id="text4795-1"></g><g id="text4795-123" serif:id="text4795-1"></g><g id="text4795-124" serif:id="text4795-1"></g><g id="text4795-125" serif:id="text4795-1"></g><g id="text7022-914" serif:id="text7022-9"></g><g id="text7022-915" serif:id="text7022-9"></g><g id="text7022-916" serif:id="text7022-9"></g><g id="text7022-917" serif:id="text7022-9"></g><g id="text7022-918" serif:id="text7022-9"></g><g id="text7022-919" serif:id="text7022-9"></g><g id="text7022-920" serif:id="text7022-9"></g><g id="text7022-921" serif:id="text7022-9"></g><g id="text7022-922" serif:id="text7022-9"></g><g id="text7022-923" serif:id="text7022-9"></g><g id="text7022-924" serif:id="text7022-9"></g><g id="text7022-925" serif:id="text7022-9"></g><g id="text810214" serif:id="text8102"></g><g id="text810215" serif:id="text8102"></g><g id="text810216" serif:id="text8102"></g><g id="text810217" serif:id="text8102"></g><g id="text810218" serif:id="text8102"></g><g id="text810219" serif:id="text8102"></g><g id="text810220" serif:id="text8102"></g><g id="text810221" serif:id="text8102"></g><g id="text810222" serif:id="text8102"></g><g id="text810223" serif:id="text8102"></g><g id="text810224" serif:id="text8102"></g><g id="text810225" serif:id="text8102"></g><g id="text7018-0-4-7-2-614" serif:id="text7018-0-4-7-2-6"></g><g id="text7018-0-4-7-2-615" serif:id="text7018-0-4-7-2-6"></g><g id="text7018-0-4-7-2-616" serif:id="text7018-0-4-7-2-6"></g><g id="text7018-0-4-7-2-617" serif:id="text7018-0-4-7-2-6"></g><g id="text7018-0-4-7-2-618" serif:id="text7018-0-4-7-2-6"></g><g id="text7018-0-4-7-2-619" serif:id="text7018-0-4-7-2-6"></g><g id="text7018-0-4-7-2-620" serif:id="text7018-0-4-7-2-6"></g><g id="text7018-0-4-7-2-621" serif:id="text7018-0-4-7-2-6"></g><g id="text7018-0-4-7-2-622" serif:id="text7018-0-4-7-2-6"></g><g id="text7018-0-4-7-2-623" serif:id="text7018-0-4-7-2-6"></g><g id="text7018-0-4-7-2-624" serif:id="text7018-0-4-7-2-6"></g><g id="text7018-0-4-7-2-625" serif:id="text7018-0-4-7-2-6"></g><g id="text6007-6-1-620" serif:id="text6007-6-1-6"></g><g id="text6007-6-1-621" serif:id="text6007-6-1-6"></g><g id="text6007-6-1-622" serif:id="text6007-6-1-6"></g><g id="text6007-6-1-623" serif:id="text6007-6-1-6"></g><g id="text6007-6-1-624" serif:id="text6007-6-1-6"></g><g id="text6007-6-1-625" serif:id="text6007-6-1-6"></g><g id="text6007-6-1-626" serif:id="text6007-6-1-6"></g><g id="text4795-1-69" serif:id="text4795-1-6"></g><g id="text4795-1-610" serif:id="text4795-1-6"></g><g id="text4795-1-611" serif:id="text4795-1-6"></g><g id="text4795-1-612" serif:id="text4795-1-6"></g><g id="text4795-1-613" serif:id="text4795-1-6"></g><g id="text4795-1-614" serif:id="text4795-1-6"></g><g id="text7022-9-29" serif:id="text7022-9-2"></g><g id="text7022-9-210" serif:id="text7022-9-2"></g><g id="text7022-9-211" serif:id="text7022-9-2"></g><g id="text7022-9-212" serif:id="text7022-9-2"></g><g id="text7022-9-213" serif:id="text7022-9-2"></g><g id="text7022-9-214" serif:id="text7022-9-2"></g><g id="text7018-0-4-7-69" serif:id="text7018-0-4-7-6"></g><g id="text7018-0-4-7-610" serif:id="text7018-0-4-7-6"></g><g id="text7018-0-4-7-611" serif:id="text7018-0-4-7-6"></g><g id="text7018-0-4-7-612" serif:id="text7018-0-4-7-6"></g><g id="text7018-0-4-7-613" serif:id="text7018-0-4-7-6"></g><g id="text7018-0-4-7-614" serif:id="text7018-0-4-7-6"></g><g id="text8102-59" serif:id="text8102-5"></g><g id="text8102-510" serif:id="text8102-5"></g><g id="text8102-511" serif:id="text8102-5"></g><g id="text8102-512" serif:id="text8102-5"></g><g id="text8102-513" serif:id="text8102-5"></g><g id="text8102-514" serif:id="text8102-5"></g><g id="text7022-9-2-69" serif:id="text7022-9-2-6"></g><g id="text7022-9-2-610" serif:id="text7022-9-2-6"></g><g id="text7022-9-2-611" serif:id="text7022-9-2-6"></g><g id="text7022-9-2-612" serif:id="text7022-9-2-6"></g><g id="text7022-9-2-613" serif:id="text7022-9-2-6"></g><g id="text7022-9-2-614" serif:id="text7022-9-2-6"></g><g id="text479565" serif:id="text4795"></g><g id="text479566" serif:id="text4795"></g><g id="text479567" serif:id="text4795"></g><g id="text479568" serif:id="text4795"></g><g id="text701855" serif:id="text7018"></g><g id="text701856" serif:id="text7018"></g><g id="text701857" serif:id="text7018"></g><g id="text701858" serif:id="text7018"></g><g id="text4795-1-615" serif:id="text4795-1-6"></g><g id="text4795-1-616" serif:id="text4795-1-6"></g><g id="text4795-1-617" serif:id="text4795-1-6"></g><g id="text4795-1-618" serif:id="text4795-1-6"></g><g id="text4795-1-619" serif:id="text4795-1-6"></g><g id="text4795-1-620" serif:id="text4795-1-6"></g><g id="text7018-0-4-7-615" serif:id="text7018-0-4-7-6"></g><g id="text7018-0-4-7-616" serif:id="text7018-0-4-7-6"></g><g id="text7018-0-4-7-617" serif:id="text7018-0-4-7-6"></g><g id="text7018-0-4-7-618" serif:id="text7018-0-4-7-6"></g><g id="text7018-0-4-7-619" serif:id="text7018-0-4-7-6"></g><g id="text7018-0-4-7-620" serif:id="text7018-0-4-7-6"></g><g id="text8102-515" serif:id="text8102-5"></g><g id="text8102-516" serif:id="text8102-5"></g><g id="text8102-517" serif:id="text8102-5"></g><g id="text8102-518" serif:id="text8102-5"></g><g id="text8102-519" serif:id="text8102-5"></g><g id="text8102-520" serif:id="text8102-5"></g><g id="text6007-6-1-627" serif:id="text6007-6-1-6"></g><g id="text6007-6-1-628" serif:id="text6007-6-1-6"></g><g id="text6007-6-1-629" serif:id="text6007-6-1-6"></g><g id="text6007-6-1-630" serif:id="text6007-6-1-6"></g><g id="text6007-6-1-631" serif:id="text6007-6-1-6"></g><g id="text6007-6-1-632" serif:id="text6007-6-1-6"></g><g id="text7022-926" serif:id="text7022-9"></g><g id="text7022-927" serif:id="text7022-9"></g><g id="text7022-928" serif:id="text7022-9"></g><g id="text7022-929" serif:id="text7022-9"></g><g id="text7022-930" serif:id="text7022-9"></g><g id="text7022-931" serif:id="text7022-9"></g><g id="text6007-6-116" serif:id="text6007-6-1"></g><g id="text6007-6-117" serif:id="text6007-6-1"></g><g id="text7018-0-922" serif:id="text7018-0-9"></g><g id="text7018-0-923" serif:id="text7018-0-9"></g><g id="text6007-6-1-633" serif:id="text6007-6-1-6"></g><g id="text6007-6-1-634" serif:id="text6007-6-1-6"></g><g><g><g id="text4795-1-621" serif:id="text4795-1-6"></g></g></g><g><g><g id="text4795-1-622" serif:id="text4795-1-6"></g></g></g><g><g><g id="text4795-1-623" serif:id="text4795-1-6"></g></g></g><g><g><g id="text4795-1-624" serif:id="text4795-1-6"></g></g></g><g id="text6007-6-1-635" serif:id="text6007-6-1-6"></g><g id="text6007-6-1-636" serif:id="text6007-6-1-6"></g><g id="text6007-6-1-637" serif:id="text6007-6-1-6"></g><g id="text6007-6-1-638" serif:id="text6007-6-1-6"></g><g id="text6007-6-1-639" serif:id="text6007-6-1-6"></g><g id="text6007-6-1-640" serif:id="text6007-6-1-6"></g><g id="text7022-9-215" serif:id="text7022-9-2"></g><g id="text7022-9-216" serif:id="text7022-9-2"></g><g id="text7022-9-217" serif:id="text7022-9-2"></g><g id="text7022-9-218" serif:id="text7022-9-2"></g><g id="text7022-9-219" serif:id="text7022-9-2"></g><g id="text7022-9-220" serif:id="text7022-9-2"></g><g id="text7022-9-221" serif:id="text7022-9-2"></g><g id="text7022-9-222" serif:id="text7022-9-2"></g><g id="text7022-9-223" serif:id="text7022-9-2"></g></g></svg>